<svg xmlns="http://www.w3.org/2000/svg" xmlns:xlink="http://www.w3.org/1999/xlink" width="800" zoomAndPan="magnify" viewBox="0 0 600 149.999998" height="200" preserveAspectRatio="xMidYMid meet" version="1.0"><defs><g/><clipPath id="99ee97de59"><path d="M 46 57.105469 L 99.75 57.105469 L 99.75 117.855469 L 46 117.855469 Z M 46 57.105469 " clip-rule="nonzero"/></clipPath><clipPath id="bb9e3e4048"><path d="M 61.386719 100.425781 L 66.441406 100.425781 L 66.441406 105.480469 L 61.386719 105.480469 Z M 61.386719 100.425781 " clip-rule="nonzero"/></clipPath><clipPath id="4afed47971"><path d="M 63.914062 100.425781 C 62.515625 100.425781 61.386719 101.558594 61.386719 102.953125 C 61.386719 104.351562 62.515625 105.480469 63.914062 105.480469 C 65.308594 105.480469 66.441406 104.351562 66.441406 102.953125 C 66.441406 101.558594 65.308594 100.425781 63.914062 100.425781 Z M 63.914062 100.425781 " clip-rule="nonzero"/></clipPath><clipPath id="45900052de"><path d="M 71.5 96.402344 L 79.546875 96.402344 L 79.546875 104.449219 L 71.5 104.449219 Z M 71.5 96.402344 " clip-rule="nonzero"/></clipPath><clipPath id="d52a144ddf"><path d="M 75.523438 96.402344 C 73.300781 96.402344 71.5 98.203125 71.5 100.425781 C 71.5 102.648438 73.300781 104.449219 75.523438 104.449219 C 77.746094 104.449219 79.546875 102.648438 79.546875 100.425781 C 79.546875 98.203125 77.746094 96.402344 75.523438 96.402344 Z M 75.523438 96.402344 " clip-rule="nonzero"/></clipPath><clipPath id="45844de009"><path d="M 80.984375 102.039062 L 84.871094 102.039062 L 84.871094 105.925781 L 80.984375 105.925781 Z M 80.984375 102.039062 " clip-rule="nonzero"/></clipPath><clipPath id="04ae5b31e2"><path d="M 82.925781 102.039062 C 81.851562 102.039062 80.984375 102.90625 80.984375 103.980469 C 80.984375 105.054688 81.851562 105.925781 82.925781 105.925781 C 84 105.925781 84.871094 105.054688 84.871094 103.980469 C 84.871094 102.90625 84 102.039062 82.925781 102.039062 Z M 82.925781 102.039062 " clip-rule="nonzero"/></clipPath><clipPath id="11b2b7f5be"><path d="M 72.835938 37.246094 L 80.882812 37.246094 L 80.882812 45.292969 L 72.835938 45.292969 Z M 72.835938 37.246094 " clip-rule="nonzero"/></clipPath><clipPath id="210257b313"><path d="M 76.859375 37.246094 C 74.636719 37.246094 72.835938 39.046875 72.835938 41.269531 C 72.835938 43.492188 74.636719 45.292969 76.859375 45.292969 C 79.082031 45.292969 80.882812 43.492188 80.882812 41.269531 C 80.882812 39.046875 79.082031 37.246094 76.859375 37.246094 Z M 76.859375 37.246094 " clip-rule="nonzero"/></clipPath><clipPath id="368cfa615b"><path d="M 68.601562 30.5 L 71.5 30.5 L 71.5 33.398438 L 68.601562 33.398438 Z M 68.601562 30.5 " clip-rule="nonzero"/></clipPath><clipPath id="86a51dc21a"><path d="M 70.050781 30.5 C 69.25 30.5 68.601562 31.148438 68.601562 31.949219 C 68.601562 32.75 69.25 33.398438 70.050781 33.398438 C 70.851562 33.398438 71.5 32.75 71.5 31.949219 C 71.5 31.148438 70.851562 30.5 70.050781 30.5 Z M 70.050781 30.5 " clip-rule="nonzero"/></clipPath><clipPath id="69fa4f6450"><path d="M 66.441406 47.605469 L 71.410156 47.605469 L 71.410156 52.574219 L 66.441406 52.574219 Z M 66.441406 47.605469 " clip-rule="nonzero"/></clipPath><clipPath id="8c407fd5e3"><path d="M 68.925781 47.605469 C 67.554688 47.605469 66.441406 48.714844 66.441406 50.089844 C 66.441406 51.460938 67.554688 52.574219 68.925781 52.574219 C 70.296875 52.574219 71.410156 51.460938 71.410156 50.089844 C 71.410156 48.714844 70.296875 47.605469 68.925781 47.605469 Z M 68.925781 47.605469 " clip-rule="nonzero"/></clipPath></defs><g fill="#ffffff" fill-opacity="1"><g transform="translate(435.856825, 113.449457)"><g><path d="M 12.40625 0 C 11.40625 0 10.21875 0.0976562 8.84375 0.296875 C 7.476562 0.492188 6.195312 0.59375 5 0.59375 C 3.863281 0.59375 2.910156 0.425781 2.140625 0.09375 C 1.378906 -0.238281 1 -0.90625 1 -1.90625 C 1 -2.632812 1.164062 -3.179688 1.5 -3.546875 C 1.832031 -3.910156 2.234375 -4.375 2.703125 -4.9375 C 3.171875 -5.507812 3.570312 -6.394531 3.90625 -7.59375 C 4.238281 -8.800781 4.40625 -10.570312 4.40625 -12.90625 C 4.40625 -15.164062 4.40625 -17.796875 4.40625 -20.796875 C 4.40625 -23.796875 4.421875 -26.78125 4.453125 -29.75 C 4.484375 -32.71875 4.5 -35.285156 4.5 -37.453125 C 4.5 -39.617188 4.5 -41 4.5 -41.59375 C 4.5 -43.394531 4.210938 -44.644531 3.640625 -45.34375 C 3.078125 -46.050781 2.507812 -46.601562 1.9375 -47 C 1.375 -47.394531 1.09375 -48.03125 1.09375 -48.90625 C 1.09375 -49.90625 1.425781 -50.585938 2.09375 -50.953125 C 2.757812 -51.316406 3.707031 -51.628906 4.9375 -51.890625 C 6.175781 -52.160156 7.664062 -52.597656 9.40625 -53.203125 C 11.53125 -54.003906 12.992188 -54.71875 13.796875 -55.34375 C 14.597656 -55.976562 15.195312 -56.492188 15.59375 -56.890625 C 16 -57.296875 16.632812 -57.5 17.5 -57.5 C 18.695312 -57.5 19.492188 -56.960938 19.890625 -55.890625 C 20.296875 -54.828125 20.5 -53.5625 20.5 -52.09375 L 20.5 -12.90625 C 20.5 -10.570312 20.664062 -8.800781 21 -7.59375 C 21.332031 -6.394531 21.734375 -5.507812 22.203125 -4.9375 C 22.671875 -4.375 23.070312 -3.910156 23.40625 -3.546875 C 23.738281 -3.179688 23.90625 -2.632812 23.90625 -1.90625 C 23.90625 -0.90625 23.519531 -0.238281 22.75 0.09375 C 21.976562 0.425781 21.03125 0.59375 19.90625 0.59375 C 18.632812 0.59375 17.316406 0.492188 15.953125 0.296875 C 14.585938 0.0976562 13.40625 0 12.40625 0 Z M 12.40625 0 "/></g></g></g><g fill="#ffffff" fill-opacity="1"><g transform="translate(460.35586, 113.449457)"><g><path d="M 13 0.59375 C 9.269531 0.59375 6.503906 -0.503906 4.703125 -2.703125 C 2.898438 -4.898438 2 -7.53125 2 -10.59375 C 2 -15.0625 3.664062 -18.578125 7 -21.140625 C 10.332031 -23.710938 14.664062 -25.566406 20 -26.703125 C 25.0625 -27.765625 27.59375 -29.429688 27.59375 -31.703125 C 27.59375 -32.566406 27.226562 -33.414062 26.5 -34.25 C 25.769531 -35.082031 24.503906 -35.5 22.703125 -35.5 C 20.898438 -35.5 19.429688 -35.015625 18.296875 -34.046875 C 17.160156 -33.078125 16.160156 -31.976562 15.296875 -30.75 C 14.429688 -29.519531 13.484375 -28.421875 12.453125 -27.453125 C 11.421875 -26.484375 10.035156 -26 8.296875 -26 C 7.160156 -26 6.175781 -26.398438 5.34375 -27.203125 C 4.507812 -28.003906 4.09375 -28.96875 4.09375 -30.09375 C 4.09375 -32.363281 4.992188 -34.28125 6.796875 -35.84375 C 8.597656 -37.414062 10.945312 -38.597656 13.84375 -39.390625 C 16.75 -40.191406 19.898438 -40.59375 23.296875 -40.59375 C 26.960938 -40.59375 30.296875 -40.007812 33.296875 -38.84375 C 36.296875 -37.675781 38.695312 -35.726562 40.5 -33 C 42.300781 -30.269531 43.203125 -26.535156 43.203125 -21.796875 L 43.203125 -12.90625 C 43.203125 -10.570312 43.367188 -8.800781 43.703125 -7.59375 C 44.035156 -6.394531 44.429688 -5.507812 44.890625 -4.9375 C 45.359375 -4.375 45.757812 -3.910156 46.09375 -3.546875 C 46.425781 -3.179688 46.59375 -2.632812 46.59375 -1.90625 C 46.59375 -0.90625 46.289062 -0.238281 45.6875 0.09375 C 45.09375 0.425781 44.332031 0.59375 43.40625 0.59375 C 42.40625 0.59375 41.300781 0.492188 40.09375 0.296875 C 38.894531 0.0976562 37.796875 0 36.796875 0 C 35.734375 0 34.800781 0.046875 34 0.140625 C 33.195312 0.242188 32.363281 0.363281 31.5 0.5 C 30.4375 0.632812 29.488281 0.5 28.65625 0.09375 C 27.820312 -0.300781 27.335938 -1.03125 27.203125 -2.09375 C 27.128906 -3.164062 26.957031 -3.882812 26.6875 -4.25 C 26.425781 -4.613281 26.097656 -4.796875 25.703125 -4.796875 C 24.960938 -4.796875 24.007812 -4.34375 22.84375 -3.4375 C 21.675781 -2.539062 20.273438 -1.644531 18.640625 -0.75 C 17.015625 0.144531 15.132812 0.59375 13 0.59375 Z M 17.5 -14.703125 C 17.5 -12.765625 17.984375 -11.378906 18.953125 -10.546875 C 19.921875 -9.710938 21.070312 -9.296875 22.40625 -9.296875 C 24.070312 -9.296875 25.335938 -10.007812 26.203125 -11.4375 C 27.066406 -12.875 27.5 -14.5625 27.5 -16.5 L 27.5 -21.296875 C 27.5 -23.097656 26.664062 -23.566406 25 -22.703125 C 23.9375 -22.171875 22.820312 -21.585938 21.65625 -20.953125 C 20.488281 -20.316406 19.503906 -19.53125 18.703125 -18.59375 C 17.898438 -17.664062 17.5 -16.367188 17.5 -14.703125 Z M 17.5 -14.703125 "/></g></g></g><g fill="#ffffff" fill-opacity="1"><g transform="translate(507.554021, 113.449457)"><g><path d="M 12.40625 0 C 11.40625 0 10.21875 0.0976562 8.84375 0.296875 C 7.476562 0.492188 6.195312 0.59375 5 0.59375 C 3.863281 0.59375 2.910156 0.425781 2.140625 0.09375 C 1.378906 -0.238281 1 -0.90625 1 -1.90625 C 1 -2.632812 1.164062 -3.179688 1.5 -3.546875 C 1.832031 -3.910156 2.234375 -4.375 2.703125 -4.9375 C 3.171875 -5.507812 3.570312 -6.394531 3.90625 -7.59375 C 4.238281 -8.800781 4.40625 -10.570312 4.40625 -12.90625 C 4.40625 -15.164062 4.40625 -17.796875 4.40625 -20.796875 C 4.40625 -23.796875 4.421875 -26.78125 4.453125 -29.75 C 4.484375 -32.71875 4.5 -35.285156 4.5 -37.453125 C 4.5 -39.617188 4.5 -41 4.5 -41.59375 C 4.5 -43.394531 4.210938 -44.613281 3.640625 -45.25 C 3.078125 -45.882812 2.507812 -46.398438 1.9375 -46.796875 C 1.375 -47.203125 1.09375 -47.90625 1.09375 -48.90625 C 1.09375 -49.90625 1.425781 -50.585938 2.09375 -50.953125 C 2.757812 -51.316406 3.707031 -51.628906 4.9375 -51.890625 C 6.175781 -52.160156 7.664062 -52.597656 9.40625 -53.203125 C 11.53125 -54.003906 12.992188 -54.71875 13.796875 -55.34375 C 14.597656 -55.976562 15.195312 -56.492188 15.59375 -56.890625 C 16 -57.296875 16.632812 -57.5 17.5 -57.5 C 18.695312 -57.5 19.492188 -56.960938 19.890625 -55.890625 C 20.296875 -54.828125 20.5 -53.5625 20.5 -52.09375 L 20.5 -35.09375 C 20.5 -34.03125 20.582031 -33.515625 20.75 -33.546875 C 20.914062 -33.578125 21.25 -33.941406 21.75 -34.640625 C 22.25 -35.347656 22.914062 -36.164062 23.75 -37.09375 C 24.582031 -38.03125 25.664062 -38.847656 27 -39.546875 C 28.332031 -40.242188 29.96875 -40.59375 31.90625 -40.59375 C 35.300781 -40.59375 38.128906 -39.59375 40.390625 -37.59375 C 42.660156 -35.59375 44.363281 -33.039062 45.5 -29.9375 C 46.632812 -26.84375 47.179688 -23.53125 47.140625 -20 C 47.109375 -16.46875 46.492188 -13.148438 45.296875 -10.046875 C 44.097656 -6.953125 42.265625 -4.40625 39.796875 -2.40625 C 37.328125 -0.40625 34.257812 0.59375 30.59375 0.59375 C 27.664062 0.59375 25.414062 0.5625 23.84375 0.5 C 22.28125 0.4375 21.03125 0.367188 20.09375 0.296875 C 19.164062 0.234375 18.148438 0.164062 17.046875 0.09375 C 15.953125 0.03125 14.40625 0 12.40625 0 Z M 25.40625 -29.296875 C 23.53125 -29.296875 22.160156 -28.160156 21.296875 -25.890625 C 20.429688 -23.628906 20 -21 20 -18 C 20 -15 20.445312 -12.429688 21.34375 -10.296875 C 22.25 -8.160156 23.601562 -7.09375 25.40625 -7.09375 C 27.195312 -7.09375 28.539062 -8.175781 29.4375 -10.34375 C 30.34375 -12.507812 30.796875 -15.09375 30.796875 -18.09375 C 30.796875 -21.09375 30.34375 -23.707031 29.4375 -25.9375 C 28.539062 -28.175781 27.195312 -29.296875 25.40625 -29.296875 Z M 25.40625 -29.296875 "/></g></g></g><g fill="#fabec0" fill-opacity="1"><g transform="translate(242.862295, 114.608078)"><g><path d="M 2 -19.90625 C 2 -26.101562 3.960938 -31.097656 7.890625 -34.890625 C 11.828125 -38.691406 17.332031 -40.59375 24.40625 -40.59375 C 30.53125 -40.59375 35.175781 -39.226562 38.34375 -36.5 C 41.507812 -33.769531 43.09375 -30.335938 43.09375 -26.203125 C 43.09375 -23.929688 42.289062 -21.894531 40.6875 -20.09375 C 39.09375 -18.300781 36.894531 -17.40625 34.09375 -17.40625 C 31.832031 -17.40625 29.96875 -18.1875 28.5 -19.75 C 27.03125 -21.3125 26.296875 -23.03125 26.296875 -24.90625 C 26.296875 -27.101562 26.445312 -28.984375 26.75 -30.546875 C 27.050781 -32.117188 27.164062 -33.335938 27.09375 -34.203125 C 27.03125 -35.066406 26.46875 -35.5 25.40625 -35.5 C 23.738281 -35.5 22.320312 -34.113281 21.15625 -31.34375 C 19.988281 -28.582031 19.4375 -24.832031 19.5 -20.09375 C 19.5625 -15.632812 20.34375 -12.050781 21.84375 -9.34375 C 23.34375 -6.644531 25.5625 -5.332031 28.5 -5.40625 C 30.5 -5.40625 32 -5.835938 33 -6.703125 C 34 -7.566406 34.78125 -8.566406 35.34375 -9.703125 C 35.914062 -10.835938 36.5 -11.835938 37.09375 -12.703125 C 37.695312 -13.566406 38.632812 -14 39.90625 -14 C 41.03125 -14 41.875 -13.648438 42.4375 -12.953125 C 43.007812 -12.253906 43.296875 -11.46875 43.296875 -10.59375 C 43.296875 -8.332031 42.410156 -6.367188 40.640625 -4.703125 C 38.878906 -3.035156 36.53125 -1.734375 33.59375 -0.796875 C 30.664062 0.128906 27.5 0.59375 24.09375 0.59375 C 20.5625 0.59375 17.09375 -0.0859375 13.6875 -1.453125 C 10.289062 -2.816406 7.492188 -5.015625 5.296875 -8.046875 C 3.097656 -11.078125 2 -15.03125 2 -19.90625 Z M 2 -19.90625 "/></g></g></g><g fill="#fabec0" fill-opacity="1"><g transform="translate(284.060559, 114.608078)"><g><path d="M 1 -32 C 1 -33 1.332031 -33.679688 2 -34.046875 C 2.664062 -34.410156 3.613281 -34.726562 4.84375 -35 C 6.082031 -35.269531 7.566406 -35.703125 9.296875 -36.296875 C 11.429688 -37.097656 12.898438 -37.816406 13.703125 -38.453125 C 14.503906 -39.085938 15.101562 -39.601562 15.5 -40 C 15.894531 -40.394531 16.53125 -40.59375 17.40625 -40.59375 C 18.601562 -40.59375 19.398438 -40.0625 19.796875 -39 C 20.203125 -37.9375 20.40625 -36.671875 20.40625 -35.203125 C 20.46875 -33.128906 20.515625 -31.441406 20.546875 -30.140625 C 20.578125 -28.847656 20.59375 -27.164062 20.59375 -25.09375 L 20.59375 -20.203125 C 20.59375 -16.003906 20.957031 -13.15625 21.6875 -11.65625 C 22.425781 -10.15625 23.5625 -9.40625 25.09375 -9.40625 C 26.632812 -9.40625 27.738281 -10.15625 28.40625 -11.65625 C 29.070312 -13.15625 29.40625 -16.035156 29.40625 -20.296875 L 29.40625 -25.09375 C 29.40625 -26.757812 29.117188 -27.925781 28.546875 -28.59375 C 27.984375 -29.257812 27.414062 -29.789062 26.84375 -30.1875 C 26.28125 -30.59375 26 -31.195312 26 -32 C 26 -33 26.332031 -33.679688 27 -34.046875 C 27.664062 -34.410156 28.613281 -34.726562 29.84375 -35 C 31.082031 -35.269531 32.566406 -35.703125 34.296875 -36.296875 C 36.429688 -37.097656 37.898438 -37.816406 38.703125 -38.453125 C 39.503906 -39.085938 40.101562 -39.601562 40.5 -40 C 40.894531 -40.394531 41.53125 -40.59375 42.40625 -40.59375 C 43.601562 -40.59375 44.398438 -40.0625 44.796875 -39 C 45.203125 -37.9375 45.40625 -36.671875 45.40625 -35.203125 L 45.5 -27.09375 C 45.5 -24.09375 45.515625 -21.691406 45.546875 -19.890625 C 45.578125 -18.097656 45.59375 -16.664062 45.59375 -15.59375 C 45.59375 -14.53125 45.59375 -13.597656 45.59375 -12.796875 C 45.59375 -10.460938 45.757812 -8.695312 46.09375 -7.5 C 46.425781 -6.300781 46.828125 -5.414062 47.296875 -4.84375 C 47.765625 -4.28125 48.164062 -3.816406 48.5 -3.453125 C 48.832031 -3.085938 49 -2.535156 49 -1.796875 C 49 -0.796875 48.710938 -0.128906 48.140625 0.203125 C 47.578125 0.535156 46.832031 0.703125 45.90625 0.703125 C 44.96875 0.703125 43.878906 0.597656 42.640625 0.390625 C 41.410156 0.191406 40.226562 0.09375 39.09375 0.09375 C 38.03125 0.09375 37.113281 0.144531 36.34375 0.25 C 35.582031 0.351562 34.769531 0.46875 33.90625 0.59375 C 32.632812 0.726562 31.597656 0.5 30.796875 -0.09375 C 29.992188 -0.695312 29.53125 -1.566406 29.40625 -2.703125 C 29.132812 -4.703125 28.832031 -5.703125 28.5 -5.703125 C 28.164062 -5.703125 27.332031 -5 26 -3.59375 C 24.9375 -2.46875 23.382812 -1.488281 21.34375 -0.65625 C 19.3125 0.175781 17.394531 0.59375 15.59375 0.59375 C 12.53125 0.59375 10.179688 -0.0703125 8.546875 -1.40625 C 6.910156 -2.738281 5.8125 -4.40625 5.25 -6.40625 C 4.6875 -8.40625 4.40625 -10.4375 4.40625 -12.5 L 4.40625 -24.703125 C 4.40625 -26.503906 4.117188 -27.753906 3.546875 -28.453125 C 2.984375 -29.148438 2.414062 -29.695312 1.84375 -30.09375 C 1.28125 -30.5 1 -31.132812 1 -32 Z M 1 -32 "/></g></g></g><g fill="#fabec0" fill-opacity="1"><g transform="translate(331.156137, 116.868048)"><g><path d="M 11.5 0.484375 C 9.050781 0.484375 7.328125 -0.800781 6.328125 -3.375 C 5.328125 -5.957031 4.828125 -10.082031 4.828125 -15.75 C 4.828125 -24.125 6.019531 -32.082031 8.40625 -39.625 C 8.988281 -41.488281 9.9375 -42.851562 11.25 -43.71875 C 12.570312 -44.59375 14.425781 -45.03125 16.8125 -45.03125 C 18.101562 -45.03125 19.003906 -44.867188 19.515625 -44.546875 C 20.035156 -44.222656 20.296875 -43.613281 20.296875 -42.71875 C 20.296875 -41.6875 19.8125 -39.363281 18.84375 -35.75 C 18.195312 -33.175781 17.679688 -30.921875 17.296875 -28.984375 C 16.910156 -27.054688 16.585938 -24.675781 16.328125 -21.84375 C 18.453125 -27.382812 20.835938 -31.894531 23.484375 -35.375 C 26.128906 -38.851562 28.722656 -41.332031 31.265625 -42.8125 C 33.804688 -44.289062 36.140625 -45.03125 38.265625 -45.03125 C 42.453125 -45.03125 44.546875 -42.9375 44.546875 -38.75 C 44.546875 -37.914062 44.257812 -35.890625 43.6875 -32.671875 C 43.164062 -30.085938 42.90625 -28.472656 42.90625 -27.828125 C 42.90625 -25.578125 43.710938 -24.453125 45.328125 -24.453125 C 47.128906 -24.453125 49.445312 -25.867188 52.28125 -28.703125 C 53.113281 -29.535156 53.984375 -29.953125 54.890625 -29.953125 C 55.722656 -29.953125 56.378906 -29.582031 56.859375 -28.84375 C 57.347656 -28.101562 57.59375 -27.125 57.59375 -25.90625 C 57.59375 -23.519531 56.953125 -21.648438 55.671875 -20.296875 C 53.859375 -18.421875 51.742188 -16.820312 49.328125 -15.5 C 46.921875 -14.1875 44.363281 -13.53125 41.65625 -13.53125 C 38.238281 -13.53125 35.644531 -14.398438 33.875 -16.140625 C 32.101562 -17.878906 31.21875 -20.226562 31.21875 -23.1875 C 31.21875 -24.15625 31.3125 -25.125 31.5 -26.09375 C 31.632812 -27.382812 31.703125 -28.253906 31.703125 -28.703125 C 31.703125 -29.734375 31.347656 -30.25 30.640625 -30.25 C 29.671875 -30.25 28.394531 -29.171875 26.8125 -27.015625 C 25.238281 -24.859375 23.675781 -22.003906 22.125 -18.453125 C 20.582031 -14.910156 19.328125 -11.175781 18.359375 -7.25 C 17.648438 -4.21875 16.828125 -2.171875 15.890625 -1.109375 C 14.960938 -0.046875 13.5 0.484375 11.5 0.484375 Z M 11.5 0.484375 "/></g></g></g><g fill="#fabec0" fill-opacity="1"><g transform="translate(375.90079, 116.868048)"><g><path d="M 41.265625 -21.546875 C 42.097656 -21.546875 42.753906 -21.160156 43.234375 -20.390625 C 43.722656 -19.617188 43.96875 -18.554688 43.96875 -17.203125 C 43.96875 -14.628906 43.359375 -12.628906 42.140625 -11.203125 C 39.367188 -7.796875 36.351562 -4.992188 33.09375 -2.796875 C 29.84375 -0.609375 26.15625 0.484375 22.03125 0.484375 C 16.363281 0.484375 12.160156 -2.09375 9.421875 -7.25 C 6.679688 -12.40625 5.3125 -19.070312 5.3125 -27.25 C 5.3125 -35.113281 6.328125 -44.066406 8.359375 -54.109375 C 10.390625 -64.160156 13.382812 -72.796875 17.34375 -80.015625 C 21.3125 -87.234375 26.03125 -90.84375 31.5 -90.84375 C 34.59375 -90.84375 37.023438 -89.40625 38.796875 -86.53125 C 40.566406 -83.664062 41.453125 -79.5625 41.453125 -74.21875 C 41.453125 -66.550781 39.328125 -57.660156 35.078125 -47.546875 C 30.828125 -37.429688 25.0625 -27.410156 17.78125 -17.484375 C 18.226562 -14.847656 18.96875 -12.960938 20 -11.828125 C 21.03125 -10.703125 22.382812 -10.140625 24.0625 -10.140625 C 26.707031 -10.140625 29.023438 -10.894531 31.015625 -12.40625 C 33.015625 -13.925781 35.5625 -16.523438 38.65625 -20.203125 C 39.425781 -21.097656 40.296875 -21.546875 41.265625 -21.546875 Z M 29.375 -81.28125 C 27.894531 -81.28125 26.21875 -78.601562 24.34375 -73.25 C 22.476562 -67.90625 20.835938 -61.269531 19.421875 -53.34375 C 18.003906 -45.414062 17.234375 -37.8125 17.109375 -30.53125 C 21.679688 -38.070312 25.316406 -45.628906 28.015625 -53.203125 C 30.722656 -60.773438 32.078125 -67.6875 32.078125 -73.9375 C 32.078125 -78.832031 31.175781 -81.28125 29.375 -81.28125 Z M 29.375 -81.28125 "/></g></g></g><path fill="#ffffff" d="M 54.199219 113.550781 L 68.804688 113.550781 C 68.9375 113.550781 69.066406 113.527344 69.1875 113.476562 C 69.3125 113.425781 69.421875 113.351562 69.515625 113.257812 C 69.609375 113.164062 69.683594 113.054688 69.734375 112.929688 C 69.785156 112.808594 69.808594 112.679688 69.808594 112.546875 C 69.808594 112.410156 69.785156 112.28125 69.734375 112.160156 C 69.683594 112.035156 69.609375 111.925781 69.515625 111.832031 C 69.421875 111.738281 69.3125 111.664062 69.1875 111.613281 C 69.066406 111.5625 68.9375 111.539062 68.804688 111.539062 L 54.199219 111.539062 C 54.023438 111.539062 53.847656 111.515625 53.675781 111.46875 C 53.507812 111.421875 53.34375 111.355469 53.191406 111.265625 C 53.039062 111.179688 52.898438 111.070312 52.777344 110.945312 C 52.652344 110.820312 52.542969 110.683594 52.457031 110.527344 C 52.367188 110.375 52.300781 110.214844 52.253906 110.042969 C 52.210938 109.871094 52.1875 109.699219 52.1875 109.523438 C 52.1875 109.347656 52.210938 109.171875 52.253906 109 C 52.300781 108.832031 52.367188 108.667969 52.457031 108.515625 L 60.703125 95.132812 C 66.703125 97.398438 69.917969 94.660156 72.773438 92.234375 C 75.34375 90.046875 77.574219 88.152344 81.75 89.105469 L 93.195312 108.496094 C 93.378906 108.804688 93.472656 109.140625 93.476562 109.503906 C 93.480469 109.867188 93.394531 110.203125 93.214844 110.519531 C 93.035156 110.832031 92.789062 111.082031 92.476562 111.261719 C 92.164062 111.445312 91.828125 111.539062 91.464844 111.539062 L 76.59375 111.539062 C 76.460938 111.539062 76.332031 111.5625 76.210938 111.613281 C 76.085938 111.664062 75.976562 111.738281 75.882812 111.832031 C 75.789062 111.925781 75.714844 112.035156 75.664062 112.160156 C 75.613281 112.28125 75.589844 112.410156 75.589844 112.546875 C 75.589844 112.679688 75.613281 112.808594 75.664062 112.929688 C 75.714844 113.054688 75.789062 113.164062 75.882812 113.257812 C 75.976562 113.351562 76.085938 113.425781 76.210938 113.476562 C 76.332031 113.527344 76.460938 113.550781 76.59375 113.550781 L 91.464844 113.550781 C 92.1875 113.550781 92.863281 113.371094 93.488281 113.007812 C 94.113281 112.644531 94.605469 112.148438 94.964844 111.519531 C 95.324219 110.890625 95.5 110.214844 95.492188 109.492188 C 95.488281 108.765625 95.300781 108.09375 94.933594 107.472656 L 83.269531 87.703125 C 83.128906 87.46875 82.925781 87.3125 82.65625 87.242188 C 77.207031 85.804688 74.160156 88.402344 71.46875 90.6875 C 68.570312 93.15625 66.066406 95.28125 60.695312 92.941406 C 60.464844 92.84375 60.230469 92.832031 59.992188 92.90625 C 59.75 92.980469 59.566406 93.125 59.433594 93.339844 L 50.730469 107.476562 C 50.363281 108.097656 50.175781 108.769531 50.171875 109.492188 C 50.164062 110.21875 50.339844 110.890625 50.699219 111.519531 C 51.058594 112.148438 51.550781 112.644531 52.175781 113.007812 C 52.800781 113.371094 53.476562 113.550781 54.199219 113.550781 Z M 54.199219 113.550781 " fill-opacity="1" fill-rule="nonzero"/><g clip-path="url(#99ee97de59)"><path fill="#ffffff" d="M 47.242188 113.503906 C 48.691406 116.039062 51.257812 117.582031 53.957031 117.582031 C 54.035156 117.582031 54.117188 117.582031 54.199219 117.582031 L 91.433594 117.582031 C 94.253906 117.671875 96.929688 116.117188 98.421875 113.503906 C 99.914062 110.886719 99.902344 107.78125 98.390625 105.410156 L 80.890625 77.007812 L 80.890625 66.210938 L 82.402344 66.210938 C 82.699219 66.210938 82.992188 66.183594 83.285156 66.125 C 83.578125 66.066406 83.859375 65.980469 84.136719 65.867188 C 84.410156 65.753906 84.671875 65.613281 84.917969 65.449219 C 85.167969 65.28125 85.394531 65.09375 85.605469 64.882812 C 85.816406 64.675781 86.003906 64.445312 86.167969 64.199219 C 86.335938 63.949219 86.472656 63.6875 86.589844 63.414062 C 86.703125 63.140625 86.789062 62.855469 86.847656 62.5625 C 86.902344 62.273438 86.933594 61.976562 86.933594 61.679688 C 86.933594 61.382812 86.902344 61.085938 86.847656 60.796875 C 86.789062 60.503906 86.703125 60.21875 86.589844 59.945312 C 86.472656 59.671875 86.335938 59.410156 86.167969 59.160156 C 86.003906 58.914062 85.816406 58.683594 85.605469 58.476562 C 85.394531 58.265625 85.167969 58.078125 84.917969 57.910156 C 84.671875 57.746094 84.410156 57.605469 84.136719 57.492188 C 83.859375 57.378906 83.578125 57.292969 83.285156 57.234375 C 82.992188 57.175781 82.699219 57.148438 82.402344 57.148438 L 63.261719 57.148438 C 62.964844 57.148438 62.671875 57.175781 62.378906 57.234375 C 62.085938 57.292969 61.804688 57.378906 61.527344 57.492188 C 61.253906 57.605469 60.992188 57.746094 60.746094 57.910156 C 60.496094 58.078125 60.269531 58.265625 60.058594 58.476562 C 59.847656 58.683594 59.660156 58.914062 59.496094 59.160156 C 59.328125 59.410156 59.191406 59.671875 59.074219 59.945312 C 58.960938 60.21875 58.875 60.503906 58.816406 60.796875 C 58.761719 61.085938 58.730469 61.382812 58.730469 61.679688 C 58.730469 61.976562 58.761719 62.273438 58.816406 62.5625 C 58.875 62.855469 58.960938 63.140625 59.074219 63.414062 C 59.191406 63.6875 59.328125 63.949219 59.496094 64.199219 C 59.660156 64.445312 59.847656 64.675781 60.058594 64.882812 C 60.269531 65.09375 60.496094 65.28125 60.746094 65.449219 C 60.992188 65.613281 61.253906 65.753906 61.527344 65.867188 C 61.804688 65.980469 62.085938 66.066406 62.378906 66.125 C 62.671875 66.183594 62.964844 66.210938 63.261719 66.210938 L 64.773438 66.210938 L 64.773438 77.007812 L 47.285156 105.398438 C 45.761719 107.78125 45.75 110.886719 47.242188 113.503906 Z M 60.746094 61.679688 C 60.746094 61.347656 60.808594 61.023438 60.9375 60.714844 C 61.066406 60.40625 61.246094 60.136719 61.484375 59.898438 C 61.71875 59.664062 61.992188 59.480469 62.300781 59.351562 C 62.609375 59.226562 62.929688 59.160156 63.261719 59.160156 L 82.402344 59.160156 C 82.734375 59.160156 83.054688 59.226562 83.363281 59.351562 C 83.671875 59.480469 83.945312 59.664062 84.179688 59.898438 C 84.417969 60.136719 84.597656 60.40625 84.726562 60.714844 C 84.855469 61.023438 84.917969 61.347656 84.917969 61.679688 C 84.917969 62.011719 84.855469 62.335938 84.726562 62.644531 C 84.597656 62.953125 84.417969 63.222656 84.179688 63.460938 C 83.945312 63.695312 83.671875 63.878906 83.363281 64.007812 C 83.054688 64.132812 82.734375 64.199219 82.402344 64.199219 L 63.261719 64.199219 C 62.929688 64.199219 62.609375 64.132812 62.300781 64.007812 C 61.992188 63.878906 61.71875 63.695312 61.484375 63.460938 C 61.246094 63.222656 61.066406 62.953125 60.9375 62.644531 C 60.808594 62.335938 60.746094 62.011719 60.746094 61.679688 Z M 48.992188 106.46875 L 66.34375 78.300781 L 70.816406 78.300781 C 70.949219 78.300781 71.078125 78.273438 71.203125 78.222656 C 71.328125 78.171875 71.433594 78.097656 71.53125 78.003906 C 71.625 77.910156 71.695312 77.800781 71.75 77.675781 C 71.800781 77.554688 71.824219 77.425781 71.824219 77.292969 C 71.824219 77.160156 71.800781 77.03125 71.75 76.90625 C 71.695312 76.78125 71.625 76.675781 71.53125 76.578125 C 71.433594 76.484375 71.328125 76.414062 71.203125 76.359375 C 71.078125 76.308594 70.949219 76.285156 70.816406 76.285156 L 66.789062 76.285156 L 66.789062 74.269531 L 68.804688 74.269531 C 68.9375 74.269531 69.066406 74.246094 69.1875 74.195312 C 69.3125 74.140625 69.421875 74.070312 69.515625 73.976562 C 69.609375 73.878906 69.683594 73.773438 69.734375 73.648438 C 69.785156 73.523438 69.808594 73.398438 69.808594 73.261719 C 69.808594 73.128906 69.785156 73 69.734375 72.878906 C 69.683594 72.753906 69.609375 72.644531 69.515625 72.550781 C 69.421875 72.457031 69.3125 72.382812 69.1875 72.332031 C 69.066406 72.28125 68.9375 72.253906 68.804688 72.253906 L 66.789062 72.253906 L 66.789062 70.242188 L 70.816406 70.242188 C 70.949219 70.242188 71.078125 70.214844 71.203125 70.164062 C 71.328125 70.113281 71.433594 70.039062 71.53125 69.945312 C 71.625 69.851562 71.695312 69.742188 71.75 69.621094 C 71.800781 69.496094 71.824219 69.367188 71.824219 69.234375 C 71.824219 69.101562 71.800781 68.972656 71.75 68.847656 C 71.695312 68.726562 71.625 68.617188 71.53125 68.523438 C 71.433594 68.425781 71.328125 68.355469 71.203125 68.304688 C 71.078125 68.253906 70.949219 68.226562 70.816406 68.226562 L 66.789062 68.226562 L 66.789062 66.210938 L 78.875 66.210938 L 78.875 77.292969 C 78.875 77.480469 78.925781 77.660156 79.023438 77.820312 L 96.683594 106.480469 C 97.796875 108.230469 97.792969 110.539062 96.671875 112.503906 C 95.550781 114.464844 93.585938 115.640625 91.464844 115.566406 L 54.164062 115.566406 C 52.074219 115.636719 50.113281 114.460938 48.992188 112.5 C 47.871094 110.539062 47.867188 108.230469 48.992188 106.46875 Z M 48.992188 106.46875 " fill-opacity="1" fill-rule="nonzero"/></g><path fill="#ffffff" d="M 73.839844 112.546875 C 73.839844 112.679688 73.8125 112.808594 73.761719 112.929688 C 73.710938 113.054688 73.640625 113.164062 73.542969 113.257812 C 73.449219 113.351562 73.339844 113.425781 73.21875 113.476562 C 73.09375 113.527344 72.964844 113.550781 72.832031 113.550781 C 72.699219 113.550781 72.570312 113.527344 72.445312 113.476562 C 72.324219 113.425781 72.214844 113.351562 72.121094 113.257812 C 72.023438 113.164062 71.953125 113.054688 71.902344 112.929688 C 71.851562 112.808594 71.824219 112.679688 71.824219 112.546875 C 71.824219 112.410156 71.851562 112.28125 71.902344 112.160156 C 71.953125 112.035156 72.023438 111.925781 72.121094 111.832031 C 72.214844 111.738281 72.324219 111.664062 72.445312 111.613281 C 72.570312 111.5625 72.699219 111.539062 72.832031 111.539062 C 72.964844 111.539062 73.09375 111.5625 73.21875 111.613281 C 73.339844 111.664062 73.449219 111.738281 73.542969 111.832031 C 73.640625 111.925781 73.710938 112.035156 73.761719 112.160156 C 73.8125 112.28125 73.839844 112.410156 73.839844 112.546875 Z M 73.839844 112.546875 " fill-opacity="1" fill-rule="nonzero"/><g clip-path="url(#bb9e3e4048)"><g clip-path="url(#4afed47971)"><path fill="#fabec0" d="M 61.386719 100.425781 L 66.441406 100.425781 L 66.441406 105.480469 L 61.386719 105.480469 Z M 61.386719 100.425781 " fill-opacity="1" fill-rule="nonzero"/></g></g><g fill="#ffffff" fill-opacity="1"><g transform="translate(108.548708, 114.148894)"><g><path d="M 1 -37.59375 C 1 -38.59375 1.332031 -39.257812 2 -39.59375 C 2.664062 -39.925781 3.597656 -40.257812 4.796875 -40.59375 C 5.992188 -40.925781 7.394531 -41.59375 9 -42.59375 C 11.132812 -43.925781 12.664062 -45.207031 13.59375 -46.4375 C 14.53125 -47.675781 15.265625 -48.675781 15.796875 -49.4375 C 16.328125 -50.207031 17.03125 -50.59375 17.90625 -50.59375 C 19.101562 -50.59375 19.816406 -49.992188 20.046875 -48.796875 C 20.285156 -47.597656 20.40625 -46.265625 20.40625 -44.796875 L 20.40625 -41.09375 C 20.40625 -40.363281 20.769531 -40 21.5 -40 L 23.09375 -40 C 24.757812 -40 25.59375 -39.164062 25.59375 -37.5 C 25.59375 -35.769531 24.757812 -34.90625 23.09375 -34.90625 L 21.5 -34.90625 C 20.769531 -34.90625 20.40625 -34.535156 20.40625 -33.796875 L 20.40625 -22.09375 C 20.40625 -17.832031 20.453125 -14.734375 20.546875 -12.796875 C 20.648438 -10.867188 21.164062 -9.4375 22.09375 -8.5 C 22.695312 -7.96875 23.195312 -7.632812 23.59375 -7.5 C 24 -7.363281 24.300781 -7.195312 24.5 -7 C 24.695312 -6.800781 24.796875 -6.332031 24.796875 -5.59375 C 24.796875 -4.332031 24.078125 -2.984375 22.640625 -1.546875 C 21.210938 -0.117188 18.695312 0.59375 15.09375 0.59375 C 10.894531 0.59375 8.046875 -0.921875 6.546875 -3.953125 C 5.046875 -6.984375 4.296875 -10.929688 4.296875 -15.796875 L 4.40625 -30.296875 C 4.40625 -32.097656 4.117188 -33.347656 3.546875 -34.046875 C 2.984375 -34.742188 2.414062 -35.289062 1.84375 -35.6875 C 1.28125 -36.09375 1 -36.726562 1 -37.59375 Z M 1 -37.59375 "/></g></g></g><g fill="#ffffff" fill-opacity="1"><g transform="translate(134.247702, 114.148894)"><g><path d="M 12.40625 0 C 11.40625 0 10.21875 0.0976562 8.84375 0.296875 C 7.476562 0.492188 6.195312 0.59375 5 0.59375 C 3.863281 0.59375 2.910156 0.425781 2.140625 0.09375 C 1.378906 -0.238281 1 -0.90625 1 -1.90625 C 1 -2.632812 1.164062 -3.179688 1.5 -3.546875 C 1.832031 -3.910156 2.234375 -4.375 2.703125 -4.9375 C 3.171875 -5.507812 3.570312 -6.394531 3.90625 -7.59375 C 4.238281 -8.800781 4.40625 -10.570312 4.40625 -12.90625 C 4.40625 -14.769531 4.40625 -16.953125 4.40625 -19.453125 C 4.40625 -21.953125 4.421875 -24.5 4.453125 -27.09375 C 4.484375 -29.695312 4.5 -32.097656 4.5 -34.296875 C 4.5 -36.492188 4.5 -38.273438 4.5 -39.640625 C 4.5 -41.015625 4.5 -41.703125 4.5 -41.703125 C 4.5 -43.503906 4.234375 -44.738281 3.703125 -45.40625 C 3.171875 -46.070312 2.632812 -46.601562 2.09375 -47 C 1.5625 -47.394531 1.296875 -48.03125 1.296875 -48.90625 C 1.296875 -49.90625 1.628906 -50.585938 2.296875 -50.953125 C 2.960938 -51.316406 3.910156 -51.628906 5.140625 -51.890625 C 6.378906 -52.160156 7.863281 -52.597656 9.59375 -53.203125 C 11.726562 -54.003906 13.195312 -54.71875 14 -55.34375 C 14.800781 -55.976562 15.398438 -56.492188 15.796875 -56.890625 C 16.203125 -57.296875 16.835938 -57.5 17.703125 -57.5 C 18.835938 -57.5 19.617188 -56.960938 20.046875 -55.890625 C 20.484375 -54.828125 20.703125 -53.5625 20.703125 -52.09375 L 20.703125 -33.203125 C 20.898438 -32.734375 21.332031 -32.847656 22 -33.546875 C 22.664062 -34.242188 23.597656 -35.144531 24.796875 -36.25 C 25.992188 -37.351562 27.457031 -38.351562 29.1875 -39.25 C 30.925781 -40.144531 32.929688 -40.59375 35.203125 -40.59375 C 38.335938 -40.59375 40.703125 -39.925781 42.296875 -38.59375 C 43.898438 -37.257812 44.984375 -35.59375 45.546875 -33.59375 C 46.117188 -31.59375 46.40625 -29.5625 46.40625 -27.5 L 46.40625 -12.90625 C 46.40625 -10.570312 46.570312 -8.800781 46.90625 -7.59375 C 47.238281 -6.394531 47.632812 -5.507812 48.09375 -4.9375 C 48.5625 -4.375 48.960938 -3.910156 49.296875 -3.546875 C 49.628906 -3.179688 49.796875 -2.632812 49.796875 -1.90625 C 49.796875 -0.90625 49.507812 -0.238281 48.9375 0.09375 C 48.375 0.425781 47.628906 0.59375 46.703125 0.59375 C 45.765625 0.59375 44.675781 0.492188 43.4375 0.296875 C 42.207031 0.0976562 41.03125 0 39.90625 0 C 38.832031 0 37.910156 0.046875 37.140625 0.140625 C 36.378906 0.242188 35.566406 0.363281 34.703125 0.5 C 33.367188 0.632812 32.285156 0.335938 31.453125 -0.390625 C 30.617188 -1.128906 30.203125 -2.164062 30.203125 -3.5 L 30.203125 -19.90625 C 30.203125 -23.101562 29.867188 -25.535156 29.203125 -27.203125 C 28.535156 -28.867188 27.332031 -29.703125 25.59375 -29.703125 C 24.332031 -29.703125 23.21875 -29.179688 22.25 -28.140625 C 21.28125 -27.109375 20.765625 -25.03125 20.703125 -21.90625 L 20.5 -12.90625 C 20.4375 -10.5 20.570312 -8.675781 20.90625 -7.4375 C 21.238281 -6.207031 21.632812 -5.34375 22.09375 -4.84375 C 22.5625 -4.34375 22.976562 -3.910156 23.34375 -3.546875 C 23.71875 -3.179688 23.90625 -2.632812 23.90625 -1.90625 C 23.90625 -0.90625 23.519531 -0.238281 22.75 0.09375 C 21.976562 0.425781 21.03125 0.59375 19.90625 0.59375 C 18.632812 0.59375 17.316406 0.492188 15.953125 0.296875 C 14.585938 0.0976562 13.40625 0 12.40625 0 Z M 12.40625 0 "/></g></g></g><g fill="#ffffff" fill-opacity="1"><g transform="translate(184.645745, 114.148894)"><g><path d="M 24.09375 0.59375 C 20.5625 0.59375 17.09375 -0.101562 13.6875 -1.5 C 10.289062 -2.894531 7.492188 -5.09375 5.296875 -8.09375 C 3.097656 -11.09375 2 -15.03125 2 -19.90625 C 2 -24.03125 2.898438 -27.644531 4.703125 -30.75 C 6.503906 -33.851562 9.003906 -36.269531 12.203125 -38 C 15.398438 -39.726562 19.097656 -40.59375 23.296875 -40.59375 C 27.429688 -40.59375 30.796875 -40.09375 33.390625 -39.09375 C 35.992188 -38.09375 38.007812 -36.8125 39.4375 -35.25 C 40.875 -33.6875 41.859375 -32.085938 42.390625 -30.453125 C 42.929688 -28.816406 43.203125 -27.398438 43.203125 -26.203125 C 43.203125 -22.867188 42.164062 -20.148438 40.09375 -18.046875 C 38.03125 -15.953125 35.398438 -14.421875 32.203125 -13.453125 C 29.003906 -12.484375 25.738281 -12 22.40625 -12 C 21.46875 -12 20.78125 -11.664062 20.34375 -11 C 19.914062 -10.332031 19.785156 -9.566406 19.953125 -8.703125 C 20.117188 -7.835938 20.648438 -7.070312 21.546875 -6.40625 C 22.453125 -5.738281 23.738281 -5.40625 25.40625 -5.40625 C 27.800781 -5.40625 29.695312 -5.835938 31.09375 -6.703125 C 32.5 -7.566406 33.617188 -8.566406 34.453125 -9.703125 C 35.285156 -10.835938 36.082031 -11.835938 36.84375 -12.703125 C 37.613281 -13.566406 38.632812 -14 39.90625 -14 C 41.03125 -14 41.875 -13.648438 42.4375 -12.953125 C 43.007812 -12.253906 43.296875 -11.46875 43.296875 -10.59375 C 43.296875 -8.332031 42.410156 -6.367188 40.640625 -4.703125 C 38.878906 -3.035156 36.53125 -1.734375 33.59375 -0.796875 C 30.664062 0.128906 27.5 0.59375 24.09375 0.59375 Z M 23.296875 -35.5 C 21.898438 -35.5 20.785156 -34.664062 19.953125 -33 C 19.117188 -31.332031 18.703125 -29.097656 18.703125 -26.296875 C 18.703125 -23.492188 19.117188 -21.257812 19.953125 -19.59375 C 20.785156 -17.925781 21.898438 -17.09375 23.296875 -17.09375 C 24.703125 -17.09375 25.820312 -17.925781 26.65625 -19.59375 C 27.488281 -21.257812 27.90625 -23.492188 27.90625 -26.296875 C 27.90625 -29.097656 27.488281 -31.332031 26.65625 -33 C 25.820312 -34.664062 24.703125 -35.5 23.296875 -35.5 Z M 23.296875 -35.5 "/></g></g></g><g clip-path="url(#45900052de)"><g clip-path="url(#d52a144ddf)"><path fill="#fabec0" d="M 71.5 96.402344 L 79.546875 96.402344 L 79.546875 104.449219 L 71.5 104.449219 Z M 71.5 96.402344 " fill-opacity="1" fill-rule="nonzero"/></g></g><g clip-path="url(#45844de009)"><g clip-path="url(#04ae5b31e2)"><path fill="#fabec0" d="M 80.984375 102.039062 L 84.871094 102.039062 L 84.871094 105.925781 L 80.984375 105.925781 Z M 80.984375 102.039062 " fill-opacity="1" fill-rule="nonzero"/></g></g><g clip-path="url(#11b2b7f5be)"><g clip-path="url(#210257b313)"><path fill="#fabec0" d="M 72.835938 37.246094 L 80.882812 37.246094 L 80.882812 45.292969 L 72.835938 45.292969 Z M 72.835938 37.246094 " fill-opacity="1" fill-rule="nonzero"/></g></g><g clip-path="url(#368cfa615b)"><g clip-path="url(#86a51dc21a)"><path fill="#fabec0" d="M 68.601562 30.5 L 71.5 30.5 L 71.5 33.398438 L 68.601562 33.398438 Z M 68.601562 30.5 " fill-opacity="1" fill-rule="nonzero"/></g></g><g clip-path="url(#69fa4f6450)"><g clip-path="url(#8c407fd5e3)"><path fill="#fabec0" d="M 66.441406 47.605469 L 71.410156 47.605469 L 71.410156 52.574219 L 66.441406 52.574219 Z M 66.441406 47.605469 " fill-opacity="1" fill-rule="nonzero"/></g></g></svg>