<svg xmlns="http://www.w3.org/2000/svg" xmlns:xlink="http://www.w3.org/1999/xlink" width="800" zoomAndPan="magnify" viewBox="0 0 600 149.999998" height="200" preserveAspectRatio="xMidYMid meet" version="1.0"><defs><g/><clipPath id="02a411d244"><path d="M 1 57.105469 L 54.75 57.105469 L 54.75 117.855469 L 1 117.855469 Z M 1 57.105469 " clip-rule="nonzero"/></clipPath><clipPath id="cee1aa45cd"><path d="M 16.386719 100.425781 L 21.441406 100.425781 L 21.441406 105.480469 L 16.386719 105.480469 Z M 16.386719 100.425781 " clip-rule="nonzero"/></clipPath><clipPath id="62072d05ee"><path d="M 18.914062 100.425781 C 17.515625 100.425781 16.386719 101.558594 16.386719 102.953125 C 16.386719 104.351562 17.515625 105.480469 18.914062 105.480469 C 20.308594 105.480469 21.441406 104.351562 21.441406 102.953125 C 21.441406 101.558594 20.308594 100.425781 18.914062 100.425781 Z M 18.914062 100.425781 " clip-rule="nonzero"/></clipPath><clipPath id="028124ff60"><path d="M 26.5 96.402344 L 34.546875 96.402344 L 34.546875 104.449219 L 26.5 104.449219 Z M 26.5 96.402344 " clip-rule="nonzero"/></clipPath><clipPath id="883e791aba"><path d="M 30.523438 96.402344 C 28.300781 96.402344 26.5 98.203125 26.5 100.425781 C 26.5 102.648438 28.300781 104.449219 30.523438 104.449219 C 32.746094 104.449219 34.546875 102.648438 34.546875 100.425781 C 34.546875 98.203125 32.746094 96.402344 30.523438 96.402344 Z M 30.523438 96.402344 " clip-rule="nonzero"/></clipPath><clipPath id="42cc872134"><path d="M 35.984375 102.039062 L 39.871094 102.039062 L 39.871094 105.925781 L 35.984375 105.925781 Z M 35.984375 102.039062 " clip-rule="nonzero"/></clipPath><clipPath id="39f117db07"><path d="M 37.925781 102.039062 C 36.851562 102.039062 35.984375 102.90625 35.984375 103.980469 C 35.984375 105.054688 36.851562 105.925781 37.925781 105.925781 C 39 105.925781 39.871094 105.054688 39.871094 103.980469 C 39.871094 102.90625 39 102.039062 37.925781 102.039062 Z M 37.925781 102.039062 " clip-rule="nonzero"/></clipPath><clipPath id="00dee7a243"><path d="M 27.835938 37.246094 L 35.882812 37.246094 L 35.882812 45.292969 L 27.835938 45.292969 Z M 27.835938 37.246094 " clip-rule="nonzero"/></clipPath><clipPath id="5df4be170e"><path d="M 31.859375 37.246094 C 29.636719 37.246094 27.835938 39.046875 27.835938 41.269531 C 27.835938 43.492188 29.636719 45.292969 31.859375 45.292969 C 34.082031 45.292969 35.882812 43.492188 35.882812 41.269531 C 35.882812 39.046875 34.082031 37.246094 31.859375 37.246094 Z M 31.859375 37.246094 " clip-rule="nonzero"/></clipPath><clipPath id="02089d8fcf"><path d="M 23.601562 30.5 L 26.5 30.5 L 26.5 33.398438 L 23.601562 33.398438 Z M 23.601562 30.5 " clip-rule="nonzero"/></clipPath><clipPath id="792c8bfed7"><path d="M 25.050781 30.5 C 24.25 30.5 23.601562 31.148438 23.601562 31.949219 C 23.601562 32.75 24.25 33.398438 25.050781 33.398438 C 25.851562 33.398438 26.5 32.75 26.5 31.949219 C 26.5 31.148438 25.851562 30.5 25.050781 30.5 Z M 25.050781 30.5 " clip-rule="nonzero"/></clipPath><clipPath id="ee7337a42f"><path d="M 21.441406 47.605469 L 26.410156 47.605469 L 26.410156 52.574219 L 21.441406 52.574219 Z M 21.441406 47.605469 " clip-rule="nonzero"/></clipPath><clipPath id="359315fdc8"><path d="M 23.925781 47.605469 C 22.554688 47.605469 21.441406 48.714844 21.441406 50.089844 C 21.441406 51.460938 22.554688 52.574219 23.925781 52.574219 C 25.296875 52.574219 26.410156 51.460938 26.410156 50.089844 C 26.410156 48.714844 25.296875 47.605469 23.925781 47.605469 Z M 23.925781 47.605469 " clip-rule="nonzero"/></clipPath></defs><g fill="#ffffff" fill-opacity="1"><g transform="translate(390.856828, 113.449457)"><g><path d="M 12.40625 0 C 11.40625 0 10.21875 0.0976562 8.84375 0.296875 C 7.476562 0.492188 6.195312 0.59375 5 0.59375 C 3.863281 0.59375 2.910156 0.425781 2.140625 0.09375 C 1.378906 -0.238281 1 -0.90625 1 -1.90625 C 1 -2.632812 1.164062 -3.179688 1.5 -3.546875 C 1.832031 -3.910156 2.234375 -4.375 2.703125 -4.9375 C 3.171875 -5.507812 3.570312 -6.394531 3.90625 -7.59375 C 4.238281 -8.800781 4.40625 -10.570312 4.40625 -12.90625 C 4.40625 -15.164062 4.40625 -17.796875 4.40625 -20.796875 C 4.40625 -23.796875 4.421875 -26.78125 4.453125 -29.75 C 4.484375 -32.71875 4.5 -35.285156 4.5 -37.453125 C 4.5 -39.617188 4.5 -41 4.5 -41.59375 C 4.5 -43.394531 4.210938 -44.644531 3.640625 -45.34375 C 3.078125 -46.050781 2.507812 -46.601562 1.9375 -47 C 1.375 -47.394531 1.09375 -48.03125 1.09375 -48.90625 C 1.09375 -49.90625 1.425781 -50.585938 2.09375 -50.953125 C 2.757812 -51.316406 3.707031 -51.628906 4.9375 -51.890625 C 6.175781 -52.160156 7.664062 -52.597656 9.40625 -53.203125 C 11.53125 -54.003906 12.992188 -54.71875 13.796875 -55.34375 C 14.597656 -55.976562 15.195312 -56.492188 15.59375 -56.890625 C 16 -57.296875 16.632812 -57.5 17.5 -57.5 C 18.695312 -57.5 19.492188 -56.960938 19.890625 -55.890625 C 20.296875 -54.828125 20.5 -53.5625 20.5 -52.09375 L 20.5 -12.90625 C 20.5 -10.570312 20.664062 -8.800781 21 -7.59375 C 21.332031 -6.394531 21.734375 -5.507812 22.203125 -4.9375 C 22.671875 -4.375 23.070312 -3.910156 23.40625 -3.546875 C 23.738281 -3.179688 23.90625 -2.632812 23.90625 -1.90625 C 23.90625 -0.90625 23.519531 -0.238281 22.75 0.09375 C 21.976562 0.425781 21.03125 0.59375 19.90625 0.59375 C 18.632812 0.59375 17.316406 0.492188 15.953125 0.296875 C 14.585938 0.0976562 13.40625 0 12.40625 0 Z M 12.40625 0 "/></g></g></g><g fill="#ffffff" fill-opacity="1"><g transform="translate(415.355863, 113.449457)"><g><path d="M 13 0.59375 C 9.269531 0.59375 6.503906 -0.503906 4.703125 -2.703125 C 2.898438 -4.898438 2 -7.53125 2 -10.59375 C 2 -15.0625 3.664062 -18.578125 7 -21.140625 C 10.332031 -23.710938 14.664062 -25.566406 20 -26.703125 C 25.0625 -27.765625 27.59375 -29.429688 27.59375 -31.703125 C 27.59375 -32.566406 27.226562 -33.414062 26.5 -34.25 C 25.769531 -35.082031 24.503906 -35.5 22.703125 -35.5 C 20.898438 -35.5 19.429688 -35.015625 18.296875 -34.046875 C 17.160156 -33.078125 16.160156 -31.976562 15.296875 -30.75 C 14.429688 -29.519531 13.484375 -28.421875 12.453125 -27.453125 C 11.421875 -26.484375 10.035156 -26 8.296875 -26 C 7.160156 -26 6.175781 -26.398438 5.34375 -27.203125 C 4.507812 -28.003906 4.09375 -28.96875 4.09375 -30.09375 C 4.09375 -32.363281 4.992188 -34.28125 6.796875 -35.84375 C 8.597656 -37.414062 10.945312 -38.597656 13.84375 -39.390625 C 16.75 -40.191406 19.898438 -40.59375 23.296875 -40.59375 C 26.960938 -40.59375 30.296875 -40.007812 33.296875 -38.84375 C 36.296875 -37.675781 38.695312 -35.726562 40.5 -33 C 42.300781 -30.269531 43.203125 -26.535156 43.203125 -21.796875 L 43.203125 -12.90625 C 43.203125 -10.570312 43.367188 -8.800781 43.703125 -7.59375 C 44.035156 -6.394531 44.429688 -5.507812 44.890625 -4.9375 C 45.359375 -4.375 45.757812 -3.910156 46.09375 -3.546875 C 46.425781 -3.179688 46.59375 -2.632812 46.59375 -1.90625 C 46.59375 -0.90625 46.289062 -0.238281 45.6875 0.09375 C 45.09375 0.425781 44.332031 0.59375 43.40625 0.59375 C 42.40625 0.59375 41.300781 0.492188 40.09375 0.296875 C 38.894531 0.0976562 37.796875 0 36.796875 0 C 35.734375 0 34.800781 0.046875 34 0.140625 C 33.195312 0.242188 32.363281 0.363281 31.5 0.5 C 30.4375 0.632812 29.488281 0.5 28.65625 0.09375 C 27.820312 -0.300781 27.335938 -1.03125 27.203125 -2.09375 C 27.128906 -3.164062 26.957031 -3.882812 26.6875 -4.25 C 26.425781 -4.613281 26.097656 -4.796875 25.703125 -4.796875 C 24.960938 -4.796875 24.007812 -4.34375 22.84375 -3.4375 C 21.675781 -2.539062 20.273438 -1.644531 18.640625 -0.75 C 17.015625 0.144531 15.132812 0.59375 13 0.59375 Z M 17.5 -14.703125 C 17.5 -12.765625 17.984375 -11.378906 18.953125 -10.546875 C 19.921875 -9.710938 21.070312 -9.296875 22.40625 -9.296875 C 24.070312 -9.296875 25.335938 -10.007812 26.203125 -11.4375 C 27.066406 -12.875 27.5 -14.5625 27.5 -16.5 L 27.5 -21.296875 C 27.5 -23.097656 26.664062 -23.566406 25 -22.703125 C 23.9375 -22.171875 22.820312 -21.585938 21.65625 -20.953125 C 20.488281 -20.316406 19.503906 -19.53125 18.703125 -18.59375 C 17.898438 -17.664062 17.5 -16.367188 17.5 -14.703125 Z M 17.5 -14.703125 "/></g></g></g><g fill="#ffffff" fill-opacity="1"><g transform="translate(462.554024, 113.449457)"><g><path d="M 12.40625 0 C 11.40625 0 10.21875 0.0976562 8.84375 0.296875 C 7.476562 0.492188 6.195312 0.59375 5 0.59375 C 3.863281 0.59375 2.910156 0.425781 2.140625 0.09375 C 1.378906 -0.238281 1 -0.90625 1 -1.90625 C 1 -2.632812 1.164062 -3.179688 1.5 -3.546875 C 1.832031 -3.910156 2.234375 -4.375 2.703125 -4.9375 C 3.171875 -5.507812 3.570312 -6.394531 3.90625 -7.59375 C 4.238281 -8.800781 4.40625 -10.570312 4.40625 -12.90625 C 4.40625 -15.164062 4.40625 -17.796875 4.40625 -20.796875 C 4.40625 -23.796875 4.421875 -26.78125 4.453125 -29.75 C 4.484375 -32.71875 4.5 -35.285156 4.5 -37.453125 C 4.5 -39.617188 4.5 -41 4.5 -41.59375 C 4.5 -43.394531 4.210938 -44.613281 3.640625 -45.25 C 3.078125 -45.882812 2.507812 -46.398438 1.9375 -46.796875 C 1.375 -47.203125 1.09375 -47.90625 1.09375 -48.90625 C 1.09375 -49.90625 1.425781 -50.585938 2.09375 -50.953125 C 2.757812 -51.316406 3.707031 -51.628906 4.9375 -51.890625 C 6.175781 -52.160156 7.664062 -52.597656 9.40625 -53.203125 C 11.53125 -54.003906 12.992188 -54.71875 13.796875 -55.34375 C 14.597656 -55.976562 15.195312 -56.492188 15.59375 -56.890625 C 16 -57.296875 16.632812 -57.5 17.5 -57.5 C 18.695312 -57.5 19.492188 -56.960938 19.890625 -55.890625 C 20.296875 -54.828125 20.5 -53.5625 20.5 -52.09375 L 20.5 -35.09375 C 20.5 -34.03125 20.582031 -33.515625 20.75 -33.546875 C 20.914062 -33.578125 21.25 -33.941406 21.75 -34.640625 C 22.25 -35.347656 22.914062 -36.164062 23.75 -37.09375 C 24.582031 -38.03125 25.664062 -38.847656 27 -39.546875 C 28.332031 -40.242188 29.96875 -40.59375 31.90625 -40.59375 C 35.300781 -40.59375 38.128906 -39.59375 40.390625 -37.59375 C 42.660156 -35.59375 44.363281 -33.039062 45.5 -29.9375 C 46.632812 -26.84375 47.179688 -23.53125 47.140625 -20 C 47.109375 -16.46875 46.492188 -13.148438 45.296875 -10.046875 C 44.097656 -6.953125 42.265625 -4.40625 39.796875 -2.40625 C 37.328125 -0.40625 34.257812 0.59375 30.59375 0.59375 C 27.664062 0.59375 25.414062 0.5625 23.84375 0.5 C 22.28125 0.4375 21.03125 0.367188 20.09375 0.296875 C 19.164062 0.234375 18.148438 0.164062 17.046875 0.09375 C 15.953125 0.03125 14.40625 0 12.40625 0 Z M 25.40625 -29.296875 C 23.53125 -29.296875 22.160156 -28.160156 21.296875 -25.890625 C 20.429688 -23.628906 20 -21 20 -18 C 20 -15 20.445312 -12.429688 21.34375 -10.296875 C 22.25 -8.160156 23.601562 -7.09375 25.40625 -7.09375 C 27.195312 -7.09375 28.539062 -8.175781 29.4375 -10.34375 C 30.34375 -12.507812 30.796875 -15.09375 30.796875 -18.09375 C 30.796875 -21.09375 30.34375 -23.707031 29.4375 -25.9375 C 28.539062 -28.175781 27.195312 -29.296875 25.40625 -29.296875 Z M 25.40625 -29.296875 "/></g></g></g><g fill="#fabec0" fill-opacity="1"><g transform="translate(197.862328, 114.608078)"><g><path d="M 2 -19.90625 C 2 -26.101562 3.960938 -31.097656 7.890625 -34.890625 C 11.828125 -38.691406 17.332031 -40.59375 24.40625 -40.59375 C 30.53125 -40.59375 35.175781 -39.226562 38.34375 -36.5 C 41.507812 -33.769531 43.09375 -30.335938 43.09375 -26.203125 C 43.09375 -23.929688 42.289062 -21.894531 40.6875 -20.09375 C 39.09375 -18.300781 36.894531 -17.40625 34.09375 -17.40625 C 31.832031 -17.40625 29.96875 -18.1875 28.5 -19.75 C 27.03125 -21.3125 26.296875 -23.03125 26.296875 -24.90625 C 26.296875 -27.101562 26.445312 -28.984375 26.75 -30.546875 C 27.050781 -32.117188 27.164062 -33.335938 27.09375 -34.203125 C 27.03125 -35.066406 26.46875 -35.5 25.40625 -35.5 C 23.738281 -35.5 22.320312 -34.113281 21.15625 -31.34375 C 19.988281 -28.582031 19.4375 -24.832031 19.5 -20.09375 C 19.5625 -15.632812 20.34375 -12.050781 21.84375 -9.34375 C 23.34375 -6.644531 25.5625 -5.332031 28.5 -5.40625 C 30.5 -5.40625 32 -5.835938 33 -6.703125 C 34 -7.566406 34.78125 -8.566406 35.34375 -9.703125 C 35.914062 -10.835938 36.5 -11.835938 37.09375 -12.703125 C 37.695312 -13.566406 38.632812 -14 39.90625 -14 C 41.03125 -14 41.875 -13.648438 42.4375 -12.953125 C 43.007812 -12.253906 43.296875 -11.46875 43.296875 -10.59375 C 43.296875 -8.332031 42.410156 -6.367188 40.640625 -4.703125 C 38.878906 -3.035156 36.53125 -1.734375 33.59375 -0.796875 C 30.664062 0.128906 27.5 0.59375 24.09375 0.59375 C 20.5625 0.59375 17.09375 -0.0859375 13.6875 -1.453125 C 10.289062 -2.816406 7.492188 -5.015625 5.296875 -8.046875 C 3.097656 -11.078125 2 -15.03125 2 -19.90625 Z M 2 -19.90625 "/></g></g></g><g fill="#fabec0" fill-opacity="1"><g transform="translate(239.060593, 114.608078)"><g><path d="M 1 -32 C 1 -33 1.332031 -33.679688 2 -34.046875 C 2.664062 -34.410156 3.613281 -34.726562 4.84375 -35 C 6.082031 -35.269531 7.566406 -35.703125 9.296875 -36.296875 C 11.429688 -37.097656 12.898438 -37.816406 13.703125 -38.453125 C 14.503906 -39.085938 15.101562 -39.601562 15.5 -40 C 15.894531 -40.394531 16.53125 -40.59375 17.40625 -40.59375 C 18.601562 -40.59375 19.398438 -40.0625 19.796875 -39 C 20.203125 -37.9375 20.40625 -36.671875 20.40625 -35.203125 C 20.46875 -33.128906 20.515625 -31.441406 20.546875 -30.140625 C 20.578125 -28.847656 20.59375 -27.164062 20.59375 -25.09375 L 20.59375 -20.203125 C 20.59375 -16.003906 20.957031 -13.15625 21.6875 -11.65625 C 22.425781 -10.15625 23.5625 -9.40625 25.09375 -9.40625 C 26.632812 -9.40625 27.738281 -10.15625 28.40625 -11.65625 C 29.070312 -13.15625 29.40625 -16.035156 29.40625 -20.296875 L 29.40625 -25.09375 C 29.40625 -26.757812 29.117188 -27.925781 28.546875 -28.59375 C 27.984375 -29.257812 27.414062 -29.789062 26.84375 -30.1875 C 26.28125 -30.59375 26 -31.195312 26 -32 C 26 -33 26.332031 -33.679688 27 -34.046875 C 27.664062 -34.410156 28.613281 -34.726562 29.84375 -35 C 31.082031 -35.269531 32.566406 -35.703125 34.296875 -36.296875 C 36.429688 -37.097656 37.898438 -37.816406 38.703125 -38.453125 C 39.503906 -39.085938 40.101562 -39.601562 40.5 -40 C 40.894531 -40.394531 41.53125 -40.59375 42.40625 -40.59375 C 43.601562 -40.59375 44.398438 -40.0625 44.796875 -39 C 45.203125 -37.9375 45.40625 -36.671875 45.40625 -35.203125 L 45.5 -27.09375 C 45.5 -24.09375 45.515625 -21.691406 45.546875 -19.890625 C 45.578125 -18.097656 45.59375 -16.664062 45.59375 -15.59375 C 45.59375 -14.53125 45.59375 -13.597656 45.59375 -12.796875 C 45.59375 -10.460938 45.757812 -8.695312 46.09375 -7.5 C 46.425781 -6.300781 46.828125 -5.414062 47.296875 -4.84375 C 47.765625 -4.28125 48.164062 -3.816406 48.5 -3.453125 C 48.832031 -3.085938 49 -2.535156 49 -1.796875 C 49 -0.796875 48.710938 -0.128906 48.140625 0.203125 C 47.578125 0.535156 46.832031 0.703125 45.90625 0.703125 C 44.96875 0.703125 43.878906 0.597656 42.640625 0.390625 C 41.410156 0.191406 40.226562 0.09375 39.09375 0.09375 C 38.03125 0.09375 37.113281 0.144531 36.34375 0.25 C 35.582031 0.351562 34.769531 0.46875 33.90625 0.59375 C 32.632812 0.726562 31.597656 0.5 30.796875 -0.09375 C 29.992188 -0.695312 29.53125 -1.566406 29.40625 -2.703125 C 29.132812 -4.703125 28.832031 -5.703125 28.5 -5.703125 C 28.164062 -5.703125 27.332031 -5 26 -3.59375 C 24.9375 -2.46875 23.382812 -1.488281 21.34375 -0.65625 C 19.3125 0.175781 17.394531 0.59375 15.59375 0.59375 C 12.53125 0.59375 10.179688 -0.0703125 8.546875 -1.40625 C 6.910156 -2.738281 5.8125 -4.40625 5.25 -6.40625 C 4.6875 -8.40625 4.40625 -10.4375 4.40625 -12.5 L 4.40625 -24.703125 C 4.40625 -26.503906 4.117188 -27.753906 3.546875 -28.453125 C 2.984375 -29.148438 2.414062 -29.695312 1.84375 -30.09375 C 1.28125 -30.5 1 -31.132812 1 -32 Z M 1 -32 "/></g></g></g><g fill="#fabec0" fill-opacity="1"><g transform="translate(286.15614, 116.868048)"><g><path d="M 11.5 0.484375 C 9.050781 0.484375 7.328125 -0.800781 6.328125 -3.375 C 5.328125 -5.957031 4.828125 -10.082031 4.828125 -15.75 C 4.828125 -24.125 6.019531 -32.082031 8.40625 -39.625 C 8.988281 -41.488281 9.9375 -42.851562 11.25 -43.71875 C 12.570312 -44.59375 14.425781 -45.03125 16.8125 -45.03125 C 18.101562 -45.03125 19.003906 -44.867188 19.515625 -44.546875 C 20.035156 -44.222656 20.296875 -43.613281 20.296875 -42.71875 C 20.296875 -41.6875 19.8125 -39.363281 18.84375 -35.75 C 18.195312 -33.175781 17.679688 -30.921875 17.296875 -28.984375 C 16.910156 -27.054688 16.585938 -24.675781 16.328125 -21.84375 C 18.453125 -27.382812 20.835938 -31.894531 23.484375 -35.375 C 26.128906 -38.851562 28.722656 -41.332031 31.265625 -42.8125 C 33.804688 -44.289062 36.140625 -45.03125 38.265625 -45.03125 C 42.453125 -45.03125 44.546875 -42.9375 44.546875 -38.75 C 44.546875 -37.914062 44.257812 -35.890625 43.6875 -32.671875 C 43.164062 -30.085938 42.90625 -28.472656 42.90625 -27.828125 C 42.90625 -25.578125 43.710938 -24.453125 45.328125 -24.453125 C 47.128906 -24.453125 49.445312 -25.867188 52.28125 -28.703125 C 53.113281 -29.535156 53.984375 -29.953125 54.890625 -29.953125 C 55.722656 -29.953125 56.378906 -29.582031 56.859375 -28.84375 C 57.347656 -28.101562 57.59375 -27.125 57.59375 -25.90625 C 57.59375 -23.519531 56.953125 -21.648438 55.671875 -20.296875 C 53.859375 -18.421875 51.742188 -16.820312 49.328125 -15.5 C 46.921875 -14.1875 44.363281 -13.53125 41.65625 -13.53125 C 38.238281 -13.53125 35.644531 -14.398438 33.875 -16.140625 C 32.101562 -17.878906 31.21875 -20.226562 31.21875 -23.1875 C 31.21875 -24.15625 31.3125 -25.125 31.5 -26.09375 C 31.632812 -27.382812 31.703125 -28.253906 31.703125 -28.703125 C 31.703125 -29.734375 31.347656 -30.25 30.640625 -30.25 C 29.671875 -30.25 28.394531 -29.171875 26.8125 -27.015625 C 25.238281 -24.859375 23.675781 -22.003906 22.125 -18.453125 C 20.582031 -14.910156 19.328125 -11.175781 18.359375 -7.25 C 17.648438 -4.21875 16.828125 -2.171875 15.890625 -1.109375 C 14.960938 -0.046875 13.5 0.484375 11.5 0.484375 Z M 11.5 0.484375 "/></g></g></g><g fill="#fabec0" fill-opacity="1"><g transform="translate(330.900793, 116.868048)"><g><path d="M 41.265625 -21.546875 C 42.097656 -21.546875 42.753906 -21.160156 43.234375 -20.390625 C 43.722656 -19.617188 43.96875 -18.554688 43.96875 -17.203125 C 43.96875 -14.628906 43.359375 -12.628906 42.140625 -11.203125 C 39.367188 -7.796875 36.351562 -4.992188 33.09375 -2.796875 C 29.84375 -0.609375 26.15625 0.484375 22.03125 0.484375 C 16.363281 0.484375 12.160156 -2.09375 9.421875 -7.25 C 6.679688 -12.40625 5.3125 -19.070312 5.3125 -27.25 C 5.3125 -35.113281 6.328125 -44.066406 8.359375 -54.109375 C 10.390625 -64.160156 13.382812 -72.796875 17.34375 -80.015625 C 21.3125 -87.234375 26.03125 -90.84375 31.5 -90.84375 C 34.59375 -90.84375 37.023438 -89.40625 38.796875 -86.53125 C 40.566406 -83.664062 41.453125 -79.5625 41.453125 -74.21875 C 41.453125 -66.550781 39.328125 -57.660156 35.078125 -47.546875 C 30.828125 -37.429688 25.0625 -27.410156 17.78125 -17.484375 C 18.226562 -14.847656 18.96875 -12.960938 20 -11.828125 C 21.03125 -10.703125 22.382812 -10.140625 24.0625 -10.140625 C 26.707031 -10.140625 29.023438 -10.894531 31.015625 -12.40625 C 33.015625 -13.925781 35.5625 -16.523438 38.65625 -20.203125 C 39.425781 -21.097656 40.296875 -21.546875 41.265625 -21.546875 Z M 29.375 -81.28125 C 27.894531 -81.28125 26.21875 -78.601562 24.34375 -73.25 C 22.476562 -67.90625 20.835938 -61.269531 19.421875 -53.34375 C 18.003906 -45.414062 17.234375 -37.8125 17.109375 -30.53125 C 21.679688 -38.070312 25.316406 -45.628906 28.015625 -53.203125 C 30.722656 -60.773438 32.078125 -67.6875 32.078125 -73.9375 C 32.078125 -78.832031 31.175781 -81.28125 29.375 -81.28125 Z M 29.375 -81.28125 "/></g></g></g><path fill="#ffffff" d="M 9.199219 113.550781 L 23.804688 113.550781 C 23.9375 113.550781 24.066406 113.527344 24.1875 113.476562 C 24.3125 113.425781 24.421875 113.351562 24.515625 113.257812 C 24.609375 113.164062 24.683594 113.054688 24.734375 112.929688 C 24.785156 112.808594 24.808594 112.679688 24.808594 112.546875 C 24.808594 112.410156 24.785156 112.28125 24.734375 112.160156 C 24.683594 112.035156 24.609375 111.925781 24.515625 111.832031 C 24.421875 111.738281 24.3125 111.664062 24.1875 111.613281 C 24.066406 111.5625 23.9375 111.539062 23.804688 111.539062 L 9.199219 111.539062 C 9.023438 111.539062 8.847656 111.515625 8.675781 111.46875 C 8.507812 111.421875 8.34375 111.355469 8.191406 111.265625 C 8.039062 111.179688 7.898438 111.070312 7.777344 110.945312 C 7.652344 110.820312 7.542969 110.683594 7.457031 110.527344 C 7.367188 110.375 7.300781 110.214844 7.253906 110.042969 C 7.210938 109.871094 7.1875 109.699219 7.1875 109.523438 C 7.1875 109.347656 7.210938 109.171875 7.253906 109 C 7.300781 108.832031 7.367188 108.667969 7.457031 108.515625 L 15.703125 95.132812 C 21.703125 97.398438 24.917969 94.660156 27.773438 92.234375 C 30.34375 90.046875 32.574219 88.152344 36.75 89.105469 L 48.195312 108.496094 C 48.378906 108.804688 48.472656 109.140625 48.476562 109.503906 C 48.480469 109.867188 48.394531 110.203125 48.214844 110.519531 C 48.035156 110.832031 47.789062 111.082031 47.476562 111.261719 C 47.164062 111.445312 46.828125 111.539062 46.464844 111.539062 L 31.59375 111.539062 C 31.460938 111.539062 31.332031 111.5625 31.210938 111.613281 C 31.085938 111.664062 30.976562 111.738281 30.882812 111.832031 C 30.789062 111.925781 30.714844 112.035156 30.664062 112.160156 C 30.613281 112.28125 30.589844 112.410156 30.589844 112.546875 C 30.589844 112.679688 30.613281 112.808594 30.664062 112.929688 C 30.714844 113.054688 30.789062 113.164062 30.882812 113.257812 C 30.976562 113.351562 31.085938 113.425781 31.210938 113.476562 C 31.332031 113.527344 31.460938 113.550781 31.59375 113.550781 L 46.464844 113.550781 C 47.1875 113.550781 47.863281 113.371094 48.488281 113.007812 C 49.113281 112.644531 49.605469 112.148438 49.964844 111.519531 C 50.324219 110.890625 50.5 110.214844 50.492188 109.492188 C 50.488281 108.765625 50.300781 108.09375 49.933594 107.472656 L 38.269531 87.703125 C 38.128906 87.46875 37.925781 87.3125 37.65625 87.242188 C 32.207031 85.804688 29.160156 88.402344 26.46875 90.6875 C 23.570312 93.15625 21.066406 95.28125 15.695312 92.941406 C 15.464844 92.84375 15.230469 92.832031 14.992188 92.90625 C 14.75 92.980469 14.566406 93.125 14.433594 93.339844 L 5.730469 107.476562 C 5.363281 108.097656 5.175781 108.769531 5.171875 109.492188 C 5.164062 110.21875 5.339844 110.890625 5.699219 111.519531 C 6.058594 112.148438 6.550781 112.644531 7.175781 113.007812 C 7.800781 113.371094 8.476562 113.550781 9.199219 113.550781 Z M 9.199219 113.550781 " fill-opacity="1" fill-rule="nonzero"/><g clip-path="url(#02a411d244)"><path fill="#ffffff" d="M 2.242188 113.503906 C 3.691406 116.039062 6.257812 117.582031 8.957031 117.582031 C 9.035156 117.582031 9.117188 117.582031 9.199219 117.582031 L 46.433594 117.582031 C 49.253906 117.671875 51.929688 116.117188 53.421875 113.503906 C 54.914062 110.886719 54.902344 107.78125 53.390625 105.410156 L 35.890625 77.007812 L 35.890625 66.210938 L 37.402344 66.210938 C 37.699219 66.210938 37.992188 66.183594 38.285156 66.125 C 38.578125 66.066406 38.859375 65.980469 39.136719 65.867188 C 39.410156 65.753906 39.671875 65.613281 39.917969 65.449219 C 40.167969 65.28125 40.394531 65.09375 40.605469 64.882812 C 40.816406 64.675781 41.003906 64.445312 41.167969 64.199219 C 41.335938 63.949219 41.472656 63.6875 41.589844 63.414062 C 41.703125 63.140625 41.789062 62.855469 41.847656 62.5625 C 41.902344 62.273438 41.933594 61.976562 41.933594 61.679688 C 41.933594 61.382812 41.902344 61.085938 41.847656 60.796875 C 41.789062 60.503906 41.703125 60.21875 41.589844 59.945312 C 41.472656 59.671875 41.335938 59.410156 41.167969 59.160156 C 41.003906 58.914062 40.816406 58.683594 40.605469 58.476562 C 40.394531 58.265625 40.167969 58.078125 39.917969 57.910156 C 39.671875 57.746094 39.410156 57.605469 39.136719 57.492188 C 38.859375 57.378906 38.578125 57.292969 38.285156 57.234375 C 37.992188 57.175781 37.699219 57.148438 37.402344 57.148438 L 18.261719 57.148438 C 17.964844 57.148438 17.671875 57.175781 17.378906 57.234375 C 17.085938 57.292969 16.804688 57.378906 16.527344 57.492188 C 16.253906 57.605469 15.992188 57.746094 15.746094 57.910156 C 15.496094 58.078125 15.269531 58.265625 15.058594 58.476562 C 14.847656 58.683594 14.660156 58.914062 14.496094 59.160156 C 14.328125 59.410156 14.191406 59.671875 14.074219 59.945312 C 13.960938 60.21875 13.875 60.503906 13.816406 60.796875 C 13.761719 61.085938 13.730469 61.382812 13.730469 61.679688 C 13.730469 61.976562 13.761719 62.273438 13.816406 62.5625 C 13.875 62.855469 13.960938 63.140625 14.074219 63.414062 C 14.191406 63.6875 14.328125 63.949219 14.496094 64.199219 C 14.660156 64.445312 14.847656 64.675781 15.058594 64.882812 C 15.269531 65.09375 15.496094 65.28125 15.746094 65.449219 C 15.992188 65.613281 16.253906 65.753906 16.527344 65.867188 C 16.804688 65.980469 17.085938 66.066406 17.378906 66.125 C 17.671875 66.183594 17.964844 66.210938 18.261719 66.210938 L 19.773438 66.210938 L 19.773438 77.007812 L 2.285156 105.398438 C 0.761719 107.78125 0.75 110.886719 2.242188 113.503906 Z M 15.746094 61.679688 C 15.746094 61.347656 15.808594 61.023438 15.9375 60.714844 C 16.066406 60.40625 16.246094 60.136719 16.484375 59.898438 C 16.71875 59.664062 16.992188 59.480469 17.300781 59.351562 C 17.609375 59.226562 17.929688 59.160156 18.261719 59.160156 L 37.402344 59.160156 C 37.734375 59.160156 38.054688 59.226562 38.363281 59.351562 C 38.671875 59.480469 38.945312 59.664062 39.179688 59.898438 C 39.417969 60.136719 39.597656 60.40625 39.726562 60.714844 C 39.855469 61.023438 39.917969 61.347656 39.917969 61.679688 C 39.917969 62.011719 39.855469 62.335938 39.726562 62.644531 C 39.597656 62.953125 39.417969 63.222656 39.179688 63.460938 C 38.945312 63.695312 38.671875 63.878906 38.363281 64.007812 C 38.054688 64.132812 37.734375 64.199219 37.402344 64.199219 L 18.261719 64.199219 C 17.929688 64.199219 17.609375 64.132812 17.300781 64.007812 C 16.992188 63.878906 16.71875 63.695312 16.484375 63.460938 C 16.246094 63.222656 16.066406 62.953125 15.9375 62.644531 C 15.808594 62.335938 15.746094 62.011719 15.746094 61.679688 Z M 3.992188 106.46875 L 21.34375 78.300781 L 25.816406 78.300781 C 25.949219 78.300781 26.078125 78.273438 26.203125 78.222656 C 26.328125 78.171875 26.433594 78.097656 26.53125 78.003906 C 26.625 77.910156 26.695312 77.800781 26.75 77.675781 C 26.800781 77.554688 26.824219 77.425781 26.824219 77.292969 C 26.824219 77.160156 26.800781 77.03125 26.75 76.90625 C 26.695312 76.78125 26.625 76.675781 26.53125 76.578125 C 26.433594 76.484375 26.328125 76.414062 26.203125 76.359375 C 26.078125 76.308594 25.949219 76.285156 25.816406 76.285156 L 21.789062 76.285156 L 21.789062 74.269531 L 23.804688 74.269531 C 23.9375 74.269531 24.066406 74.246094 24.1875 74.195312 C 24.3125 74.140625 24.421875 74.070312 24.515625 73.976562 C 24.609375 73.878906 24.683594 73.773438 24.734375 73.648438 C 24.785156 73.523438 24.808594 73.398438 24.808594 73.261719 C 24.808594 73.128906 24.785156 73 24.734375 72.878906 C 24.683594 72.753906 24.609375 72.644531 24.515625 72.550781 C 24.421875 72.457031 24.3125 72.382812 24.1875 72.332031 C 24.066406 72.28125 23.9375 72.253906 23.804688 72.253906 L 21.789062 72.253906 L 21.789062 70.242188 L 25.816406 70.242188 C 25.949219 70.242188 26.078125 70.214844 26.203125 70.164062 C 26.328125 70.113281 26.433594 70.039062 26.53125 69.945312 C 26.625 69.851562 26.695312 69.742188 26.75 69.621094 C 26.800781 69.496094 26.824219 69.367188 26.824219 69.234375 C 26.824219 69.101562 26.800781 68.972656 26.75 68.847656 C 26.695312 68.726562 26.625 68.617188 26.53125 68.523438 C 26.433594 68.425781 26.328125 68.355469 26.203125 68.304688 C 26.078125 68.253906 25.949219 68.226562 25.816406 68.226562 L 21.789062 68.226562 L 21.789062 66.210938 L 33.875 66.210938 L 33.875 77.292969 C 33.875 77.480469 33.925781 77.660156 34.023438 77.820312 L 51.683594 106.480469 C 52.796875 108.230469 52.792969 110.539062 51.671875 112.503906 C 50.554688 114.464844 48.585938 115.640625 46.464844 115.566406 L 9.164062 115.566406 C 7.074219 115.636719 5.113281 114.460938 3.992188 112.5 C 2.871094 110.539062 2.867188 108.230469 3.992188 106.46875 Z M 3.992188 106.46875 " fill-opacity="1" fill-rule="nonzero"/></g><path fill="#ffffff" d="M 28.839844 112.546875 C 28.839844 112.679688 28.8125 112.808594 28.761719 112.929688 C 28.710938 113.054688 28.640625 113.164062 28.542969 113.257812 C 28.449219 113.351562 28.339844 113.425781 28.21875 113.476562 C 28.09375 113.527344 27.964844 113.550781 27.832031 113.550781 C 27.699219 113.550781 27.570312 113.527344 27.445312 113.476562 C 27.324219 113.425781 27.214844 113.351562 27.121094 113.257812 C 27.023438 113.164062 26.953125 113.054688 26.902344 112.929688 C 26.851562 112.808594 26.824219 112.679688 26.824219 112.546875 C 26.824219 112.410156 26.851562 112.28125 26.902344 112.160156 C 26.953125 112.035156 27.023438 111.925781 27.121094 111.832031 C 27.214844 111.738281 27.324219 111.664062 27.445312 111.613281 C 27.570312 111.5625 27.699219 111.539062 27.832031 111.539062 C 27.964844 111.539062 28.09375 111.5625 28.21875 111.613281 C 28.339844 111.664062 28.449219 111.738281 28.542969 111.832031 C 28.640625 111.925781 28.710938 112.035156 28.761719 112.160156 C 28.8125 112.28125 28.839844 112.410156 28.839844 112.546875 Z M 28.839844 112.546875 " fill-opacity="1" fill-rule="nonzero"/><g clip-path="url(#cee1aa45cd)"><g clip-path="url(#62072d05ee)"><path fill="#fabec0" d="M 16.386719 100.425781 L 21.441406 100.425781 L 21.441406 105.480469 L 16.386719 105.480469 Z M 16.386719 100.425781 " fill-opacity="1" fill-rule="nonzero"/></g></g><g fill="#ffffff" fill-opacity="1"><g transform="translate(63.548701, 114.148894)"><g><path d="M 1 -37.59375 C 1 -38.59375 1.332031 -39.257812 2 -39.59375 C 2.664062 -39.925781 3.597656 -40.257812 4.796875 -40.59375 C 5.992188 -40.925781 7.394531 -41.59375 9 -42.59375 C 11.132812 -43.925781 12.664062 -45.207031 13.59375 -46.4375 C 14.53125 -47.675781 15.265625 -48.675781 15.796875 -49.4375 C 16.328125 -50.207031 17.03125 -50.59375 17.90625 -50.59375 C 19.101562 -50.59375 19.816406 -49.992188 20.046875 -48.796875 C 20.285156 -47.597656 20.40625 -46.265625 20.40625 -44.796875 L 20.40625 -41.09375 C 20.40625 -40.363281 20.769531 -40 21.5 -40 L 23.09375 -40 C 24.757812 -40 25.59375 -39.164062 25.59375 -37.5 C 25.59375 -35.769531 24.757812 -34.90625 23.09375 -34.90625 L 21.5 -34.90625 C 20.769531 -34.90625 20.40625 -34.535156 20.40625 -33.796875 L 20.40625 -22.09375 C 20.40625 -17.832031 20.453125 -14.734375 20.546875 -12.796875 C 20.648438 -10.867188 21.164062 -9.4375 22.09375 -8.5 C 22.695312 -7.96875 23.195312 -7.632812 23.59375 -7.5 C 24 -7.363281 24.300781 -7.195312 24.5 -7 C 24.695312 -6.800781 24.796875 -6.332031 24.796875 -5.59375 C 24.796875 -4.332031 24.078125 -2.984375 22.640625 -1.546875 C 21.210938 -0.117188 18.695312 0.59375 15.09375 0.59375 C 10.894531 0.59375 8.046875 -0.921875 6.546875 -3.953125 C 5.046875 -6.984375 4.296875 -10.929688 4.296875 -15.796875 L 4.40625 -30.296875 C 4.40625 -32.097656 4.117188 -33.347656 3.546875 -34.046875 C 2.984375 -34.742188 2.414062 -35.289062 1.84375 -35.6875 C 1.28125 -36.09375 1 -36.726562 1 -37.59375 Z M 1 -37.59375 "/></g></g></g><g fill="#ffffff" fill-opacity="1"><g transform="translate(89.247695, 114.148894)"><g><path d="M 12.40625 0 C 11.40625 0 10.21875 0.0976562 8.84375 0.296875 C 7.476562 0.492188 6.195312 0.59375 5 0.59375 C 3.863281 0.59375 2.910156 0.425781 2.140625 0.09375 C 1.378906 -0.238281 1 -0.90625 1 -1.90625 C 1 -2.632812 1.164062 -3.179688 1.5 -3.546875 C 1.832031 -3.910156 2.234375 -4.375 2.703125 -4.9375 C 3.171875 -5.507812 3.570312 -6.394531 3.90625 -7.59375 C 4.238281 -8.800781 4.40625 -10.570312 4.40625 -12.90625 C 4.40625 -14.769531 4.40625 -16.953125 4.40625 -19.453125 C 4.40625 -21.953125 4.421875 -24.5 4.453125 -27.09375 C 4.484375 -29.695312 4.5 -32.097656 4.5 -34.296875 C 4.5 -36.492188 4.5 -38.273438 4.5 -39.640625 C 4.5 -41.015625 4.5 -41.703125 4.5 -41.703125 C 4.5 -43.503906 4.234375 -44.738281 3.703125 -45.40625 C 3.171875 -46.070312 2.632812 -46.601562 2.09375 -47 C 1.5625 -47.394531 1.296875 -48.03125 1.296875 -48.90625 C 1.296875 -49.90625 1.628906 -50.585938 2.296875 -50.953125 C 2.960938 -51.316406 3.910156 -51.628906 5.140625 -51.890625 C 6.378906 -52.160156 7.863281 -52.597656 9.59375 -53.203125 C 11.726562 -54.003906 13.195312 -54.71875 14 -55.34375 C 14.800781 -55.976562 15.398438 -56.492188 15.796875 -56.890625 C 16.203125 -57.296875 16.835938 -57.5 17.703125 -57.5 C 18.835938 -57.5 19.617188 -56.960938 20.046875 -55.890625 C 20.484375 -54.828125 20.703125 -53.5625 20.703125 -52.09375 L 20.703125 -33.203125 C 20.898438 -32.734375 21.332031 -32.847656 22 -33.546875 C 22.664062 -34.242188 23.597656 -35.144531 24.796875 -36.25 C 25.992188 -37.351562 27.457031 -38.351562 29.1875 -39.25 C 30.925781 -40.144531 32.929688 -40.59375 35.203125 -40.59375 C 38.335938 -40.59375 40.703125 -39.925781 42.296875 -38.59375 C 43.898438 -37.257812 44.984375 -35.59375 45.546875 -33.59375 C 46.117188 -31.59375 46.40625 -29.5625 46.40625 -27.5 L 46.40625 -12.90625 C 46.40625 -10.570312 46.570312 -8.800781 46.90625 -7.59375 C 47.238281 -6.394531 47.632812 -5.507812 48.09375 -4.9375 C 48.5625 -4.375 48.960938 -3.910156 49.296875 -3.546875 C 49.628906 -3.179688 49.796875 -2.632812 49.796875 -1.90625 C 49.796875 -0.90625 49.507812 -0.238281 48.9375 0.09375 C 48.375 0.425781 47.628906 0.59375 46.703125 0.59375 C 45.765625 0.59375 44.675781 0.492188 43.4375 0.296875 C 42.207031 0.0976562 41.03125 0 39.90625 0 C 38.832031 0 37.910156 0.046875 37.140625 0.140625 C 36.378906 0.242188 35.566406 0.363281 34.703125 0.5 C 33.367188 0.632812 32.285156 0.335938 31.453125 -0.390625 C 30.617188 -1.128906 30.203125 -2.164062 30.203125 -3.5 L 30.203125 -19.90625 C 30.203125 -23.101562 29.867188 -25.535156 29.203125 -27.203125 C 28.535156 -28.867188 27.332031 -29.703125 25.59375 -29.703125 C 24.332031 -29.703125 23.21875 -29.179688 22.25 -28.140625 C 21.28125 -27.109375 20.765625 -25.03125 20.703125 -21.90625 L 20.5 -12.90625 C 20.4375 -10.5 20.570312 -8.675781 20.90625 -7.4375 C 21.238281 -6.207031 21.632812 -5.34375 22.09375 -4.84375 C 22.5625 -4.34375 22.976562 -3.910156 23.34375 -3.546875 C 23.71875 -3.179688 23.90625 -2.632812 23.90625 -1.90625 C 23.90625 -0.90625 23.519531 -0.238281 22.75 0.09375 C 21.976562 0.425781 21.03125 0.59375 19.90625 0.59375 C 18.632812 0.59375 17.316406 0.492188 15.953125 0.296875 C 14.585938 0.0976562 13.40625 0 12.40625 0 Z M 12.40625 0 "/></g></g></g><g fill="#ffffff" fill-opacity="1"><g transform="translate(139.645738, 114.148894)"><g><path d="M 24.09375 0.59375 C 20.5625 0.59375 17.09375 -0.101562 13.6875 -1.5 C 10.289062 -2.894531 7.492188 -5.09375 5.296875 -8.09375 C 3.097656 -11.09375 2 -15.03125 2 -19.90625 C 2 -24.03125 2.898438 -27.644531 4.703125 -30.75 C 6.503906 -33.851562 9.003906 -36.269531 12.203125 -38 C 15.398438 -39.726562 19.097656 -40.59375 23.296875 -40.59375 C 27.429688 -40.59375 30.796875 -40.09375 33.390625 -39.09375 C 35.992188 -38.09375 38.007812 -36.8125 39.4375 -35.25 C 40.875 -33.6875 41.859375 -32.085938 42.390625 -30.453125 C 42.929688 -28.816406 43.203125 -27.398438 43.203125 -26.203125 C 43.203125 -22.867188 42.164062 -20.148438 40.09375 -18.046875 C 38.03125 -15.953125 35.398438 -14.421875 32.203125 -13.453125 C 29.003906 -12.484375 25.738281 -12 22.40625 -12 C 21.46875 -12 20.78125 -11.664062 20.34375 -11 C 19.914062 -10.332031 19.785156 -9.566406 19.953125 -8.703125 C 20.117188 -7.835938 20.648438 -7.070312 21.546875 -6.40625 C 22.453125 -5.738281 23.738281 -5.40625 25.40625 -5.40625 C 27.800781 -5.40625 29.695312 -5.835938 31.09375 -6.703125 C 32.5 -7.566406 33.617188 -8.566406 34.453125 -9.703125 C 35.285156 -10.835938 36.082031 -11.835938 36.84375 -12.703125 C 37.613281 -13.566406 38.632812 -14 39.90625 -14 C 41.03125 -14 41.875 -13.648438 42.4375 -12.953125 C 43.007812 -12.253906 43.296875 -11.46875 43.296875 -10.59375 C 43.296875 -8.332031 42.410156 -6.367188 40.640625 -4.703125 C 38.878906 -3.035156 36.53125 -1.734375 33.59375 -0.796875 C 30.664062 0.128906 27.5 0.59375 24.09375 0.59375 Z M 23.296875 -35.5 C 21.898438 -35.5 20.785156 -34.664062 19.953125 -33 C 19.117188 -31.332031 18.703125 -29.097656 18.703125 -26.296875 C 18.703125 -23.492188 19.117188 -21.257812 19.953125 -19.59375 C 20.785156 -17.925781 21.898438 -17.09375 23.296875 -17.09375 C 24.703125 -17.09375 25.820312 -17.925781 26.65625 -19.59375 C 27.488281 -21.257812 27.90625 -23.492188 27.90625 -26.296875 C 27.90625 -29.097656 27.488281 -31.332031 26.65625 -33 C 25.820312 -34.664062 24.703125 -35.5 23.296875 -35.5 Z M 23.296875 -35.5 "/></g></g></g><g clip-path="url(#028124ff60)"><g clip-path="url(#883e791aba)"><path fill="#fabec0" d="M 26.5 96.402344 L 34.546875 96.402344 L 34.546875 104.449219 L 26.5 104.449219 Z M 26.5 96.402344 " fill-opacity="1" fill-rule="nonzero"/></g></g><g clip-path="url(#42cc872134)"><g clip-path="url(#39f117db07)"><path fill="#fabec0" d="M 35.984375 102.039062 L 39.871094 102.039062 L 39.871094 105.925781 L 35.984375 105.925781 Z M 35.984375 102.039062 " fill-opacity="1" fill-rule="nonzero"/></g></g><g clip-path="url(#00dee7a243)"><g clip-path="url(#5df4be170e)"><path fill="#fabec0" d="M 27.835938 37.246094 L 35.882812 37.246094 L 35.882812 45.292969 L 27.835938 45.292969 Z M 27.835938 37.246094 " fill-opacity="1" fill-rule="nonzero"/></g></g><g clip-path="url(#02089d8fcf)"><g clip-path="url(#792c8bfed7)"><path fill="#fabec0" d="M 23.601562 30.5 L 26.5 30.5 L 26.5 33.398438 L 23.601562 33.398438 Z M 23.601562 30.5 " fill-opacity="1" fill-rule="nonzero"/></g></g><g clip-path="url(#ee7337a42f)"><g clip-path="url(#359315fdc8)"><path fill="#fabec0" d="M 21.441406 47.605469 L 26.410156 47.605469 L 26.410156 52.574219 L 21.441406 52.574219 Z M 21.441406 47.605469 " fill-opacity="1" fill-rule="nonzero"/></g></g></svg>