<svg xmlns="http://www.w3.org/2000/svg" xmlns:xlink="http://www.w3.org/1999/xlink" width="1366" zoomAndPan="magnify" viewBox="0 0 1024.5 576" height="768" preserveAspectRatio="xMidYMid meet" version="1.0"><defs><filter x="0%" y="0%" width="100%" height="100%" id="5dcb95c380"><feColorMatrix values="0 0 0 0 1 0 0 0 0 1 0 0 0 0 1 0 0 0 1 0" color-interpolation-filters="sRGB"/></filter><clipPath id="1bf0feabe4"><path d="M 0 0.140625 L 1024 0.140625 L 1024 575.859375 L 0 575.859375 Z M 0 0.140625 " clip-rule="nonzero"/></clipPath><clipPath id="271c52c5f0"><path d="M 773 0.140625 L 1024 0.140625 L 1024 194 L 773 194 Z M 773 0.140625 " clip-rule="nonzero"/></clipPath><mask id="2a0230c299"><g filter="url(#5dcb95c380)"><rect x="-102.45" width="1229.4" fill="#000000" y="-57.6" height="691.2" fill-opacity="0.3"/></g></mask><clipPath id="01ccb537c0"><path d="M 0.144531 0.140625 L 53 0.140625 L 53 20 L 0.144531 20 Z M 0.144531 0.140625 " clip-rule="nonzero"/></clipPath><clipPath id="b6ecbb56eb"><path d="M 135 0.140625 L 180 0.140625 L 180 39 L 135 39 Z M 135 0.140625 " clip-rule="nonzero"/></clipPath><clipPath id="59fb53d683"><path d="M 206 1 L 250.820312 1 L 250.820312 46 L 206 46 Z M 206 1 " clip-rule="nonzero"/></clipPath><clipPath id="9957d77e2c"><path d="M 208 0.140625 L 234 0.140625 L 234 12 L 208 12 Z M 208 0.140625 " clip-rule="nonzero"/></clipPath><clipPath id="313d15b1e9"><rect x="0" width="251" y="0" height="194"/></clipPath><mask id="9098833dd3"><g filter="url(#5dcb95c380)"><rect x="-102.45" width="1229.4" fill="#000000" y="-57.6" height="691.2" fill-opacity="0.3"/></g></mask><clipPath id="03a20c5ba8"><path d="M 0.707031 5 L 14 5 L 14 19 L 0.707031 19 Z M 0.707031 5 " clip-rule="nonzero"/></clipPath><clipPath id="ee58ea3fff"><path d="M 53 14 L 64.832031 14 L 64.832031 26 L 53 26 Z M 53 14 " clip-rule="nonzero"/></clipPath><clipPath id="e0e17d566b"><path d="M 49 0.875 L 59 0.875 L 59 10 L 49 10 Z M 49 0.875 " clip-rule="nonzero"/></clipPath><clipPath id="8b185f8321"><rect x="0" width="65" y="0" height="64"/></clipPath><mask id="106deb8c60"><g filter="url(#5dcb95c380)"><rect x="-102.45" width="1229.4" fill="#000000" y="-57.6" height="691.2" fill-opacity="0.3"/></g></mask><clipPath id="113fd34b2d"><path d="M 0.351562 12 L 32 12 L 32 44 L 0.351562 44 Z M 0.351562 12 " clip-rule="nonzero"/></clipPath><clipPath id="84fe71e73d"><path d="M 125 32 L 152.527344 32 L 152.527344 60 L 125 60 Z M 125 32 " clip-rule="nonzero"/></clipPath><clipPath id="cb91d2131f"><path d="M 116 1.445312 L 139 1.445312 L 139 23 L 116 23 Z M 116 1.445312 " clip-rule="nonzero"/></clipPath><clipPath id="ca22be4bfa"><rect x="0" width="153" y="0" height="150"/></clipPath><mask id="5824cafa34"><g filter="url(#5dcb95c380)"><rect x="-102.45" width="1229.4" fill="#000000" y="-57.6" height="691.2" fill-opacity="0.3"/></g></mask><clipPath id="05b7fe2e63"><path d="M 18 99 L 46 99 L 46 126.539062 L 18 126.539062 Z M 18 99 " clip-rule="nonzero"/></clipPath><clipPath id="84a96710b7"><path d="M 0.660156 10 L 28 10 L 28 38 L 0.660156 38 Z M 0.660156 10 " clip-rule="nonzero"/></clipPath><clipPath id="7d1471cb9e"><path d="M 99 1.347656 L 118 1.347656 L 118 20 L 99 20 Z M 99 1.347656 " clip-rule="nonzero"/></clipPath><clipPath id="6272cb3444"><rect x="0" width="131" y="0" height="127"/></clipPath><mask id="fbc32c20b7"><g filter="url(#5dcb95c380)"><rect x="-102.45" width="1229.4" fill="#000000" y="-57.6" height="691.2" fill-opacity="0.3"/></g></mask><clipPath id="1b5da79d6d"><path d="M 25 140 L 65 140 L 65 179.285156 L 25 179.285156 Z M 25 140 " clip-rule="nonzero"/></clipPath><clipPath id="859c6d4c87"><path d="M 0.570312 14 L 39 14 L 39 53 L 0.570312 53 Z M 0.570312 14 " clip-rule="nonzero"/></clipPath><clipPath id="2a7517b52e"><path d="M 152 38 L 184.800781 38 L 184.800781 72 L 152 72 Z M 152 38 " clip-rule="nonzero"/></clipPath><clipPath id="a48b9b78eb"><path d="M 141 0.875 L 168 0.875 L 168 27 L 141 27 Z M 141 0.875 " clip-rule="nonzero"/></clipPath><clipPath id="f2c97c04cd"><rect x="0" width="185" y="0" height="181"/></clipPath><mask id="fb297b7a33"><g filter="url(#5dcb95c380)"><rect x="-102.45" width="1229.4" fill="#000000" y="-57.6" height="691.2" fill-opacity="0.3"/></g></mask><clipPath id="180a8f596a"><path d="M 12 68 L 32 68 L 32 86.96875 L 12 86.96875 Z M 12 68 " clip-rule="nonzero"/></clipPath><clipPath id="3d2da48256"><path d="M 0.332031 7 L 19 7 L 19 26 L 0.332031 26 Z M 0.332031 7 " clip-rule="nonzero"/></clipPath><clipPath id="cceffcc5a7"><path d="M 73 19 L 89.535156 19 L 89.535156 35 L 73 35 Z M 73 19 " clip-rule="nonzero"/></clipPath><clipPath id="2cb8904873"><path d="M 68 0.761719 L 82 0.761719 L 82 14 L 68 14 Z M 68 0.761719 " clip-rule="nonzero"/></clipPath><clipPath id="5ed5376341"><rect x="0" width="90" y="0" height="88"/></clipPath><mask id="78f34d49af"><g filter="url(#5dcb95c380)"><rect x="-102.45" width="1229.4" fill="#000000" y="-57.6" height="691.2" fill-opacity="0.3"/></g></mask><clipPath id="858be36b6d"><path d="M 12 68 L 32 68 L 32 87.625 L 12 87.625 Z M 12 68 " clip-rule="nonzero"/></clipPath><clipPath id="957505e5a7"><path d="M 0.175781 7 L 19 7 L 19 27 L 0.175781 27 Z M 0.175781 7 " clip-rule="nonzero"/></clipPath><clipPath id="033d797166"><path d="M 73 19 L 89.382812 19 L 89.382812 36 L 73 36 Z M 73 19 " clip-rule="nonzero"/></clipPath><clipPath id="04c55d4ef7"><path d="M 68 1.417969 L 81 1.417969 L 81 15 L 68 15 Z M 68 1.417969 " clip-rule="nonzero"/></clipPath><clipPath id="d422cc436c"><rect x="0" width="90" y="0" height="89"/></clipPath><mask id="aa773113c6"><g filter="url(#5dcb95c380)"><rect x="-102.45" width="1229.4" fill="#000000" y="-57.6" height="691.2" fill-opacity="0.3"/></g></mask><clipPath id="7bb2279991"><path d="M 12 68 L 31 68 L 31 86.921875 L 12 86.921875 Z M 12 68 " clip-rule="nonzero"/></clipPath><clipPath id="1a807d2f8a"><path d="M 0.101562 7 L 19 7 L 19 26 L 0.101562 26 Z M 0.101562 7 " clip-rule="nonzero"/></clipPath><clipPath id="a58294723e"><path d="M 73 19 L 89.285156 19 L 89.285156 35 L 73 35 Z M 73 19 " clip-rule="nonzero"/></clipPath><clipPath id="7d2f9c90e9"><path d="M 68 0.710938 L 81 0.710938 L 81 14 L 68 14 Z M 68 0.710938 " clip-rule="nonzero"/></clipPath><clipPath id="fce8eff5ce"><rect x="0" width="90" y="0" height="88"/></clipPath></defs><g clip-path="url(#1bf0feabe4)"><path fill="#ffffff" d="M 0 0.140625 L 1024 0.140625 L 1024 575.859375 L 0 575.859375 Z M 0 0.140625 " fill-opacity="1" fill-rule="nonzero"/><path fill="#493979" d="M 0 0.140625 L 1024 0.140625 L 1024 575.859375 L 0 575.859375 Z M 0 0.140625 " fill-opacity="1" fill-rule="nonzero"/></g><g clip-path="url(#271c52c5f0)"><g mask="url(#2a0230c299)"><g transform="matrix(1, 0, 0, 1, 773, -0.000000000000058398)"><g clip-path="url(#313d15b1e9)"><path fill="#fcc0c5" d="M 89.835938 38.550781 C 76.710938 38.550781 66.035156 49.222656 66.035156 62.351562 C 66.035156 75.480469 76.710938 86.15625 89.835938 86.15625 C 102.960938 86.15625 113.640625 75.480469 113.640625 62.351562 C 113.640625 49.222656 102.960938 38.550781 89.835938 38.550781 Z M 89.835938 96.175781 C 71.1875 96.175781 56.015625 81 56.015625 62.351562 C 56.015625 43.703125 71.1875 28.535156 89.835938 28.535156 C 108.484375 28.535156 123.65625 43.703125 123.65625 62.351562 C 123.65625 81 108.484375 96.175781 89.835938 96.175781 " fill-opacity="1" fill-rule="nonzero"/><path fill="#fcc0c5" d="M 168.867188 87.253906 C 162.035156 87.253906 156.476562 92.808594 156.476562 99.636719 C 156.476562 106.464844 162.035156 112.019531 168.867188 112.019531 C 175.699219 112.019531 181.253906 106.464844 181.253906 99.636719 C 181.253906 92.808594 175.699219 87.253906 168.867188 87.253906 Z M 168.867188 122.039062 C 156.511719 122.039062 146.460938 111.984375 146.460938 99.636719 C 146.460938 87.289062 156.511719 77.234375 168.867188 77.234375 C 181.21875 77.234375 191.269531 87.289062 191.269531 99.636719 C 191.269531 111.984375 181.21875 122.039062 168.867188 122.039062 " fill-opacity="1" fill-rule="nonzero"/><path fill="#fcc0c5" d="M 60.460938 149.875 C 51.382812 149.875 43.996094 157.257812 43.996094 166.335938 C 43.996094 175.410156 51.382812 182.800781 60.460938 182.800781 C 69.539062 182.800781 76.921875 175.410156 76.921875 166.335938 C 76.921875 157.257812 69.539062 149.875 60.460938 149.875 Z M 60.460938 192.816406 C 45.859375 192.816406 33.980469 180.933594 33.980469 166.335938 C 33.980469 151.734375 45.859375 139.855469 60.460938 139.855469 C 75.0625 139.855469 86.941406 151.734375 86.941406 166.335938 C 86.941406 180.933594 75.0625 192.816406 60.460938 192.816406 " fill-opacity="1" fill-rule="nonzero"/><g clip-path="url(#01ccb537c0)"><path fill="#fcc0c5" d="M 26.234375 -21.753906 C 17.488281 -21.753906 10.371094 -14.636719 10.371094 -5.886719 C 10.371094 2.867188 17.488281 9.980469 26.234375 9.980469 C 34.980469 9.980469 42.097656 2.867188 42.097656 -5.886719 C 42.097656 -14.636719 34.980469 -21.753906 26.234375 -21.753906 Z M 26.234375 19.996094 C 11.964844 19.996094 0.355469 8.386719 0.355469 -5.886719 C 0.355469 -20.15625 11.964844 -31.769531 26.234375 -31.769531 C 40.503906 -31.769531 52.117188 -20.15625 52.117188 -5.886719 C 52.117188 8.386719 40.503906 19.996094 26.234375 19.996094 " fill-opacity="1" fill-rule="nonzero"/></g><g clip-path="url(#b6ecbb56eb)"><path fill="#fcc0c5" d="M 157.410156 4.917969 C 150.902344 4.917969 145.609375 10.214844 145.609375 16.726562 C 145.609375 23.234375 150.902344 28.535156 157.410156 28.535156 C 163.921875 28.535156 169.21875 23.234375 169.21875 16.726562 C 169.21875 10.214844 163.921875 4.917969 157.410156 4.917969 Z M 157.410156 38.550781 C 145.378906 38.550781 135.589844 28.757812 135.589844 16.726562 C 135.589844 4.691406 145.378906 -5.101562 157.410156 -5.101562 C 169.445312 -5.101562 179.234375 4.691406 179.234375 16.726562 C 179.234375 28.757812 169.445312 38.550781 157.410156 38.550781 " fill-opacity="1" fill-rule="nonzero"/></g><g clip-path="url(#59fb53d683)"><path fill="#fcc0c5" d="M 228.765625 11.953125 C 222.15625 11.953125 216.777344 17.332031 216.777344 23.941406 C 216.777344 30.542969 222.15625 35.925781 228.765625 35.925781 C 235.378906 35.925781 240.753906 30.542969 240.753906 23.941406 C 240.753906 17.332031 235.378906 11.953125 228.765625 11.953125 Z M 228.765625 45.941406 C 216.632812 45.941406 206.761719 36.074219 206.761719 23.941406 C 206.761719 11.800781 216.632812 1.933594 228.765625 1.933594 C 240.898438 1.933594 250.773438 11.800781 250.773438 23.941406 C 250.773438 36.074219 240.898438 45.941406 228.765625 45.941406 " fill-opacity="1" fill-rule="nonzero"/></g><path fill="#fcc0c5" d="M 64.476562 150.257812 C 63.96875 150.257812 63.449219 150.183594 62.933594 150.015625 C 60.300781 149.167969 58.859375 146.347656 59.707031 143.710938 L 77.164062 89.625 C 78.015625 87 80.835938 85.542969 83.472656 86.398438 C 86.105469 87.25 87.546875 90.070312 86.695312 92.707031 L 69.242188 146.789062 C 68.558594 148.90625 66.589844 150.257812 64.476562 150.257812 " fill-opacity="1" fill-rule="nonzero"/><path fill="#fcc0c5" d="M 69.28125 47.179688 C 68 47.179688 66.71875 46.6875 65.738281 45.707031 L 34.8125 14.785156 C 32.855469 12.828125 32.855469 9.660156 34.8125 7.703125 C 36.769531 5.746094 39.9375 5.746094 41.898438 7.703125 L 72.824219 38.628906 C 74.777344 40.585938 74.777344 43.753906 72.824219 45.707031 C 71.84375 46.6875 70.566406 47.179688 69.28125 47.179688 " fill-opacity="1" fill-rule="nonzero"/><path fill="#fcc0c5" d="M 151.464844 104.644531 C 150.730469 104.644531 149.980469 104.484375 149.269531 104.136719 L 110.03125 84.96875 C 107.546875 83.753906 106.515625 80.757812 107.726562 78.273438 C 108.941406 75.789062 111.941406 74.75 114.425781 75.96875 L 153.667969 95.136719 C 156.152344 96.351562 157.1875 99.347656 155.96875 101.832031 C 155.101562 103.613281 153.320312 104.644531 151.464844 104.644531 " fill-opacity="1" fill-rule="nonzero"/><path fill="#fcc0c5" d="M 114.359375 52.285156 C 112.777344 52.285156 111.21875 51.53125 110.246094 50.136719 C 108.664062 47.867188 109.222656 44.746094 111.492188 43.164062 L 141.042969 22.597656 C 143.308594 21.007812 146.433594 21.578125 148.011719 23.847656 C 149.589844 26.117188 149.03125 29.238281 146.761719 30.816406 L 117.21875 51.378906 C 116.34375 51.996094 115.347656 52.285156 114.359375 52.285156 " fill-opacity="1" fill-rule="nonzero"/><path fill="#fcc0c5" d="M 212.019531 31.765625 C 211.597656 31.765625 211.167969 31.710938 210.734375 31.597656 L 172.941406 21.570312 C 170.265625 20.855469 168.675781 18.113281 169.386719 15.4375 C 170.09375 12.769531 172.84375 11.1875 175.507812 11.882812 L 213.304688 21.914062 C 215.980469 22.621094 217.566406 25.367188 216.859375 28.039062 C 216.265625 30.28125 214.234375 31.765625 212.019531 31.765625 " fill-opacity="1" fill-rule="nonzero"/><g clip-path="url(#9957d77e2c)"><path fill="#fcc0c5" d="M 228.769531 11.953125 C 227 11.953125 225.277344 11.007812 224.367188 9.332031 L 209.570312 -17.863281 C 208.246094 -20.289062 209.148438 -23.335938 211.574219 -24.652344 C 214.007812 -25.980469 217.050781 -25.082031 218.371094 -22.644531 L 233.167969 4.550781 C 234.492188 6.976562 233.589844 10.019531 231.160156 11.339844 C 230.402344 11.753906 229.582031 11.953125 228.769531 11.953125 " fill-opacity="1" fill-rule="nonzero"/></g></g></g></g></g><g mask="url(#9098833dd3)"><g transform="matrix(1, 0, 0, 1, 117, 192)"><g clip-path="url(#8b185f8321)"><path fill="#fcc0c5" d="M 23.636719 23.464844 C 20.28125 23.464844 17.550781 26.195312 17.550781 29.550781 C 17.550781 32.90625 20.28125 35.632812 23.636719 35.632812 C 26.988281 35.632812 29.71875 32.90625 29.71875 29.550781 C 29.71875 26.195312 26.988281 23.464844 23.636719 23.464844 Z M 23.636719 38.195312 C 18.867188 38.195312 14.992188 34.316406 14.992188 29.550781 C 14.992188 24.78125 18.867188 20.90625 23.636719 20.90625 C 28.402344 20.90625 32.28125 24.78125 32.28125 29.550781 C 32.28125 34.316406 28.402344 38.195312 23.636719 38.195312 " fill-opacity="1" fill-rule="nonzero"/><path fill="#fcc0c5" d="M 43.835938 35.914062 C 42.089844 35.914062 40.667969 37.332031 40.667969 39.078125 C 40.667969 40.824219 42.089844 42.242188 43.835938 42.242188 C 45.582031 42.242188 47 40.824219 47 39.078125 C 47 37.332031 45.582031 35.914062 43.835938 35.914062 Z M 43.835938 44.804688 C 40.675781 44.804688 38.109375 42.234375 38.109375 39.078125 C 38.109375 35.921875 40.675781 33.355469 43.835938 33.355469 C 46.992188 33.355469 49.558594 35.921875 49.558594 39.078125 C 49.558594 42.234375 46.992188 44.804688 43.835938 44.804688 " fill-opacity="1" fill-rule="nonzero"/><path fill="#fcc0c5" d="M 16.128906 51.917969 C 13.808594 51.917969 11.917969 53.804688 11.917969 56.125 C 11.917969 58.445312 13.808594 60.335938 16.128906 60.335938 C 18.449219 60.335938 20.335938 58.445312 20.335938 56.125 C 20.335938 53.804688 18.449219 51.917969 16.128906 51.917969 Z M 16.128906 62.894531 C 12.394531 62.894531 9.359375 59.855469 9.359375 56.125 C 9.359375 52.394531 12.394531 49.359375 16.128906 49.359375 C 19.859375 49.359375 22.894531 52.394531 22.894531 56.125 C 22.894531 59.855469 19.859375 62.894531 16.128906 62.894531 " fill-opacity="1" fill-rule="nonzero"/><g clip-path="url(#03a20c5ba8)"><path fill="#fcc0c5" d="M 7.378906 8.054688 C 5.144531 8.054688 3.324219 9.871094 3.324219 12.109375 C 3.324219 14.34375 5.144531 16.164062 7.378906 16.164062 C 9.613281 16.164062 11.433594 14.34375 11.433594 12.109375 C 11.433594 9.871094 9.613281 8.054688 7.378906 8.054688 Z M 7.378906 18.722656 C 3.734375 18.722656 0.765625 15.757812 0.765625 12.109375 C 0.765625 8.460938 3.734375 5.492188 7.378906 5.492188 C 11.027344 5.492188 13.996094 8.460938 13.996094 12.109375 C 13.996094 15.757812 11.027344 18.722656 7.378906 18.722656 " fill-opacity="1" fill-rule="nonzero"/></g><path fill="#fcc0c5" d="M 40.90625 14.871094 C 39.242188 14.871094 37.890625 16.222656 37.890625 17.886719 C 37.890625 19.550781 39.242188 20.90625 40.90625 20.90625 C 42.570312 20.90625 43.925781 19.550781 43.925781 17.886719 C 43.925781 16.222656 42.570312 14.871094 40.90625 14.871094 Z M 40.90625 23.464844 C 37.832031 23.464844 35.328125 20.964844 35.328125 17.886719 C 35.328125 14.8125 37.832031 12.308594 40.90625 12.308594 C 43.980469 12.308594 46.484375 14.8125 46.484375 17.886719 C 46.484375 20.964844 43.980469 23.464844 40.90625 23.464844 " fill-opacity="1" fill-rule="nonzero"/><g clip-path="url(#ee58ea3fff)"><path fill="#fcc0c5" d="M 59.144531 16.667969 C 57.453125 16.667969 56.078125 18.042969 56.078125 19.730469 C 56.078125 21.421875 57.453125 22.796875 59.144531 22.796875 C 60.832031 22.796875 62.207031 21.421875 62.207031 19.730469 C 62.207031 18.042969 60.832031 16.667969 59.144531 16.667969 Z M 59.144531 25.355469 C 56.042969 25.355469 53.519531 22.832031 53.519531 19.730469 C 53.519531 16.628906 56.042969 14.109375 59.144531 14.109375 C 62.246094 14.109375 64.769531 16.628906 64.769531 19.730469 C 64.769531 22.832031 62.246094 25.355469 59.144531 25.355469 " fill-opacity="1" fill-rule="nonzero"/></g><g clip-path="url(#e0e17d566b)"><path fill="#fcc0c5" d="M 54.183594 3.421875 C 53.089844 3.421875 52.203125 4.3125 52.203125 5.402344 C 52.203125 6.496094 53.089844 7.382812 54.183594 7.382812 C 55.273438 7.382812 56.164062 6.496094 56.164062 5.402344 C 56.164062 4.3125 55.273438 3.421875 54.183594 3.421875 Z M 54.183594 9.941406 C 51.679688 9.941406 49.640625 7.90625 49.640625 5.402344 C 49.640625 2.898438 51.679688 0.863281 54.183594 0.863281 C 56.6875 0.863281 58.722656 2.898438 58.722656 5.402344 C 58.722656 7.90625 56.6875 9.941406 54.183594 9.941406 " fill-opacity="1" fill-rule="nonzero"/></g><path fill="#fcc0c5" d="M 17.152344 52.015625 C 17.023438 52.015625 16.890625 51.996094 16.757812 51.953125 C 16.085938 51.738281 15.71875 51.015625 15.933594 50.34375 L 20.398438 36.519531 C 20.613281 35.847656 21.335938 35.476562 22.007812 35.695312 C 22.683594 35.914062 23.050781 36.632812 22.832031 37.308594 L 18.371094 51.128906 C 18.195312 51.671875 17.695312 52.015625 17.152344 52.015625 " fill-opacity="1" fill-rule="nonzero"/><path fill="#fcc0c5" d="M 18.382812 25.671875 C 18.054688 25.671875 17.726562 25.546875 17.476562 25.296875 L 9.570312 17.390625 C 9.070312 16.890625 9.070312 16.082031 9.570312 15.582031 C 10.070312 15.082031 10.882812 15.082031 11.382812 15.582031 L 19.285156 23.484375 C 19.785156 23.984375 19.785156 24.796875 19.285156 25.296875 C 19.035156 25.546875 18.710938 25.671875 18.382812 25.671875 " fill-opacity="1" fill-rule="nonzero"/><path fill="#fcc0c5" d="M 39.386719 40.359375 C 39.199219 40.359375 39.007812 40.316406 38.824219 40.230469 L 28.796875 35.328125 C 28.164062 35.019531 27.898438 34.253906 28.207031 33.617188 C 28.519531 32.984375 29.285156 32.71875 29.921875 33.03125 L 39.949219 37.929688 C 40.585938 38.238281 40.847656 39.003906 40.539062 39.640625 C 40.316406 40.09375 39.859375 40.359375 39.386719 40.359375 " fill-opacity="1" fill-rule="nonzero"/><path fill="#fcc0c5" d="M 29.902344 26.976562 C 29.5 26.976562 29.101562 26.785156 28.851562 26.425781 C 28.445312 25.847656 28.589844 25.050781 29.171875 24.644531 L 36.722656 19.390625 C 37.300781 18.984375 38.101562 19.128906 38.503906 19.707031 C 38.90625 20.289062 38.765625 21.085938 38.183594 21.488281 L 30.632812 26.746094 C 30.410156 26.902344 30.15625 26.976562 29.902344 26.976562 " fill-opacity="1" fill-rule="nonzero"/><path fill="#fcc0c5" d="M 54.863281 21.730469 C 54.753906 21.730469 54.644531 21.71875 54.535156 21.6875 L 44.875 19.125 C 44.191406 18.945312 43.785156 18.242188 43.96875 17.558594 C 44.148438 16.875 44.851562 16.472656 45.53125 16.652344 L 55.191406 19.214844 C 55.875 19.394531 56.28125 20.097656 56.101562 20.78125 C 55.949219 21.351562 55.429688 21.730469 54.863281 21.730469 " fill-opacity="1" fill-rule="nonzero"/><path fill="#fcc0c5" d="M 59.144531 16.667969 C 58.691406 16.667969 58.25 16.425781 58.019531 16 L 54.238281 9.046875 C 53.898438 8.425781 54.128906 7.648438 54.75 7.3125 C 55.371094 6.972656 56.148438 7.203125 56.488281 7.824219 L 60.269531 14.777344 C 60.605469 15.398438 60.375 16.171875 59.757812 16.511719 C 59.5625 16.617188 59.351562 16.667969 59.144531 16.667969 " fill-opacity="1" fill-rule="nonzero"/></g></g></g><g mask="url(#106deb8c60)"><g transform="matrix(1, 0, 0, 1, 645, 268)"><g clip-path="url(#ca22be4bfa)"><path fill="#fcc0c5" d="M 54.796875 55.097656 C 46.832031 55.097656 40.347656 61.574219 40.347656 69.542969 C 40.347656 77.511719 46.832031 83.992188 54.796875 83.992188 C 62.765625 83.992188 69.246094 77.511719 69.246094 69.542969 C 69.246094 61.574219 62.765625 55.097656 54.796875 55.097656 Z M 54.796875 90.070312 C 43.476562 90.070312 34.269531 80.863281 34.269531 69.542969 C 34.269531 58.222656 43.476562 49.015625 54.796875 49.015625 C 66.113281 49.015625 75.324219 58.222656 75.324219 69.542969 C 75.324219 80.863281 66.113281 90.070312 54.796875 90.070312 " fill-opacity="1" fill-rule="nonzero"/><path fill="#fcc0c5" d="M 102.765625 84.65625 C 98.617188 84.65625 95.246094 88.027344 95.246094 92.171875 C 95.246094 96.316406 98.617188 99.691406 102.765625 99.691406 C 106.910156 99.691406 110.285156 96.316406 110.285156 92.171875 C 110.285156 88.027344 106.910156 84.65625 102.765625 84.65625 Z M 102.765625 105.769531 C 95.265625 105.769531 89.167969 99.667969 89.167969 92.171875 C 89.167969 84.679688 95.265625 78.578125 102.765625 78.578125 C 110.261719 78.578125 116.363281 84.679688 116.363281 92.171875 C 116.363281 99.667969 110.261719 105.769531 102.765625 105.769531 " fill-opacity="1" fill-rule="nonzero"/><path fill="#fcc0c5" d="M 36.96875 122.664062 C 31.457031 122.664062 26.972656 127.148438 26.972656 132.65625 C 26.972656 138.167969 31.457031 142.652344 36.96875 142.652344 C 42.476562 142.652344 46.957031 138.167969 46.957031 132.65625 C 46.957031 127.148438 42.476562 122.664062 36.96875 122.664062 Z M 36.96875 148.730469 C 28.105469 148.730469 20.894531 141.519531 20.894531 132.65625 C 20.894531 123.796875 28.105469 116.585938 36.96875 116.585938 C 45.832031 116.585938 53.039062 123.796875 53.039062 132.65625 C 53.039062 141.519531 45.832031 148.730469 36.96875 148.730469 " fill-opacity="1" fill-rule="nonzero"/><g clip-path="url(#113fd34b2d)"><path fill="#fcc0c5" d="M 16.191406 18.492188 C 10.882812 18.492188 6.5625 22.8125 6.5625 28.125 C 6.5625 33.4375 10.882812 37.753906 16.191406 37.753906 C 21.5 37.753906 25.820312 33.4375 25.820312 28.125 C 25.820312 22.8125 21.5 18.492188 16.191406 18.492188 Z M 16.191406 43.832031 C 7.53125 43.832031 0.484375 36.789062 0.484375 28.125 C 0.484375 19.460938 7.53125 12.414062 16.191406 12.414062 C 24.851562 12.414062 31.902344 19.460938 31.902344 28.125 C 31.902344 36.789062 24.851562 43.832031 16.191406 43.832031 " fill-opacity="1" fill-rule="nonzero"/></g><path fill="#fcc0c5" d="M 95.8125 34.679688 C 91.863281 34.679688 88.648438 37.898438 88.648438 41.847656 C 88.648438 45.800781 91.863281 49.015625 95.8125 49.015625 C 99.761719 49.015625 102.980469 45.800781 102.980469 41.847656 C 102.980469 37.898438 99.761719 34.679688 95.8125 34.679688 Z M 95.8125 55.097656 C 88.507812 55.097656 82.570312 49.152344 82.570312 41.847656 C 82.570312 34.546875 88.507812 28.601562 95.8125 28.601562 C 103.117188 28.601562 109.058594 34.546875 109.058594 41.847656 C 109.058594 49.152344 103.117188 55.097656 95.8125 55.097656 " fill-opacity="1" fill-rule="nonzero"/><g clip-path="url(#84fe71e73d)"><path fill="#fcc0c5" d="M 139.121094 38.949219 C 135.113281 38.949219 131.847656 42.214844 131.847656 46.226562 C 131.847656 50.238281 135.113281 53.503906 139.121094 53.503906 C 143.136719 53.503906 146.398438 50.238281 146.398438 46.226562 C 146.398438 42.214844 143.136719 38.949219 139.121094 38.949219 Z M 139.121094 59.582031 C 131.757812 59.582031 125.765625 53.59375 125.765625 46.226562 C 125.765625 38.859375 131.757812 32.871094 139.121094 32.871094 C 146.488281 32.871094 152.480469 38.859375 152.480469 46.226562 C 152.480469 53.59375 146.488281 59.582031 139.121094 59.582031 " fill-opacity="1" fill-rule="nonzero"/></g><g clip-path="url(#cb91d2131f)"><path fill="#fcc0c5" d="M 127.339844 7.496094 C 124.746094 7.496094 122.636719 9.609375 122.636719 12.199219 C 122.636719 14.792969 124.746094 16.902344 127.339844 16.902344 C 129.933594 16.902344 132.042969 14.792969 132.042969 12.199219 C 132.042969 9.609375 129.933594 7.496094 127.339844 7.496094 Z M 127.339844 22.980469 C 121.394531 22.980469 116.558594 18.148438 116.558594 12.199219 C 116.558594 6.253906 121.394531 1.417969 127.339844 1.417969 C 133.285156 1.417969 138.125 6.253906 138.125 12.199219 C 138.125 18.148438 133.285156 22.980469 127.339844 22.980469 " fill-opacity="1" fill-rule="nonzero"/></g><path fill="#fcc0c5" d="M 39.402344 122.898438 C 39.09375 122.898438 38.777344 122.851562 38.46875 122.75 C 36.871094 122.238281 35.992188 120.527344 36.507812 118.925781 L 47.105469 86.097656 C 47.621094 84.503906 49.332031 83.617188 50.933594 84.140625 C 52.53125 84.65625 53.40625 86.367188 52.890625 87.96875 L 42.296875 120.792969 C 41.882812 122.078125 40.6875 122.898438 39.402344 122.898438 " fill-opacity="1" fill-rule="nonzero"/><path fill="#fcc0c5" d="M 42.320312 60.332031 C 41.542969 60.332031 40.765625 60.035156 40.171875 59.441406 L 21.398438 40.671875 C 20.210938 39.484375 20.210938 37.558594 21.398438 36.371094 C 22.585938 35.183594 24.511719 35.183594 25.699219 36.371094 L 44.46875 55.144531 C 45.65625 56.332031 45.65625 58.253906 44.46875 59.441406 C 43.875 60.035156 43.097656 60.332031 42.320312 60.332031 " fill-opacity="1" fill-rule="nonzero"/><path fill="#fcc0c5" d="M 92.203125 95.214844 C 91.757812 95.214844 91.300781 95.117188 90.871094 94.90625 L 67.054688 83.269531 C 65.546875 82.535156 64.921875 80.714844 65.65625 79.207031 C 66.394531 77.699219 68.214844 77.070312 69.722656 77.808594 L 93.539062 89.441406 C 95.046875 90.179688 95.675781 91.996094 94.9375 93.503906 C 94.410156 94.585938 93.328125 95.214844 92.203125 95.214844 " fill-opacity="1" fill-rule="nonzero"/><path fill="#fcc0c5" d="M 69.683594 63.433594 C 68.71875 63.433594 67.773438 62.976562 67.183594 62.128906 C 66.222656 60.75 66.5625 58.855469 67.941406 57.894531 L 85.875 45.414062 C 87.25 44.449219 89.148438 44.792969 90.105469 46.171875 C 91.066406 47.546875 90.726562 49.445312 89.347656 50.402344 L 71.414062 62.882812 C 70.886719 63.257812 70.28125 63.433594 69.683594 63.433594 " fill-opacity="1" fill-rule="nonzero"/><path fill="#fcc0c5" d="M 128.957031 50.976562 C 128.703125 50.976562 128.441406 50.945312 128.175781 50.875 L 105.238281 44.789062 C 103.613281 44.355469 102.648438 42.691406 103.082031 41.066406 C 103.511719 39.449219 105.179688 38.488281 106.796875 38.910156 L 129.738281 44.996094 C 131.363281 45.425781 132.324219 47.09375 131.894531 48.71875 C 131.535156 50.078125 130.300781 50.976562 128.957031 50.976562 " fill-opacity="1" fill-rule="nonzero"/><path fill="#fcc0c5" d="M 139.125 38.949219 C 138.050781 38.949219 137.003906 38.378906 136.453125 37.363281 L 127.472656 20.855469 C 126.667969 19.382812 127.214844 17.535156 128.6875 16.734375 C 130.164062 15.929688 132.011719 16.472656 132.8125 17.953125 L 141.792969 34.460938 C 142.597656 35.933594 142.050781 37.777344 140.578125 38.582031 C 140.117188 38.832031 139.617188 38.949219 139.125 38.949219 " fill-opacity="1" fill-rule="nonzero"/></g></g></g><g mask="url(#5824cafa34)"><g transform="matrix(1, 0, 0, 1, 324, 191)"><g clip-path="url(#6272cb3444)"><path fill="#fcc0c5" d="M 46.910156 46.917969 C 40.144531 46.917969 34.636719 52.421875 34.636719 59.1875 C 34.636719 65.957031 40.144531 71.460938 46.910156 71.460938 C 53.679688 71.460938 59.183594 65.957031 59.183594 59.1875 C 59.183594 52.421875 53.679688 46.917969 46.910156 46.917969 Z M 46.910156 76.625 C 37.296875 76.625 29.472656 68.804688 29.472656 59.1875 C 29.472656 49.574219 37.296875 41.753906 46.910156 41.753906 C 56.523438 41.753906 64.347656 49.574219 64.347656 59.1875 C 64.347656 68.804688 56.523438 76.625 46.910156 76.625 " fill-opacity="1" fill-rule="nonzero"/><path fill="#fcc0c5" d="M 87.65625 72.027344 C 84.132812 72.027344 81.269531 74.890625 81.269531 78.414062 C 81.269531 81.933594 84.132812 84.796875 87.65625 84.796875 C 91.175781 84.796875 94.042969 81.933594 94.042969 78.414062 C 94.042969 74.890625 91.175781 72.027344 87.65625 72.027344 Z M 87.65625 89.960938 C 81.285156 89.960938 76.105469 84.777344 76.105469 78.414062 C 76.105469 72.046875 81.285156 66.863281 87.65625 66.863281 C 94.023438 66.863281 99.207031 72.046875 99.207031 78.414062 C 99.207031 84.777344 94.023438 89.960938 87.65625 89.960938 " fill-opacity="1" fill-rule="nonzero"/><g clip-path="url(#05b7fe2e63)"><path fill="#fcc0c5" d="M 31.765625 104.3125 C 27.085938 104.3125 23.277344 108.117188 23.277344 112.800781 C 23.277344 117.480469 27.085938 121.289062 31.765625 121.289062 C 36.445312 121.289062 40.253906 117.480469 40.253906 112.800781 C 40.253906 108.117188 36.445312 104.3125 31.765625 104.3125 Z M 31.765625 126.453125 C 24.238281 126.453125 18.113281 120.324219 18.113281 112.800781 C 18.113281 105.273438 24.238281 99.148438 31.765625 99.148438 C 39.292969 99.148438 45.417969 105.273438 45.417969 112.800781 C 45.417969 120.324219 39.292969 126.453125 31.765625 126.453125 " fill-opacity="1" fill-rule="nonzero"/></g><g clip-path="url(#84a96710b7)"><path fill="#fcc0c5" d="M 14.117188 15.828125 C 9.609375 15.828125 5.941406 19.496094 5.941406 24.007812 C 5.941406 28.519531 9.609375 32.1875 14.117188 32.1875 C 18.628906 32.1875 22.296875 28.519531 22.296875 24.007812 C 22.296875 19.496094 18.628906 15.828125 14.117188 15.828125 Z M 14.117188 37.351562 C 6.761719 37.351562 0.777344 31.367188 0.777344 24.007812 C 0.777344 16.652344 6.761719 10.664062 14.117188 10.664062 C 21.476562 10.664062 27.464844 16.652344 27.464844 24.007812 C 27.464844 31.367188 21.476562 37.351562 14.117188 37.351562 " fill-opacity="1" fill-rule="nonzero"/></g><path fill="#fcc0c5" d="M 81.75 29.578125 C 78.394531 29.578125 75.664062 32.308594 75.664062 35.664062 C 75.664062 39.023438 78.394531 41.753906 81.75 41.753906 C 85.105469 41.753906 87.835938 39.023438 87.835938 35.664062 C 87.835938 32.308594 85.105469 29.578125 81.75 29.578125 Z M 81.75 46.917969 C 75.546875 46.917969 70.5 41.867188 70.5 35.664062 C 70.5 29.460938 75.546875 24.414062 81.75 24.414062 C 87.953125 24.414062 93 29.460938 93 35.664062 C 93 41.867188 87.953125 46.917969 81.75 46.917969 " fill-opacity="1" fill-rule="nonzero"/><path fill="#fcc0c5" d="M 118.539062 33.203125 C 115.128906 33.203125 112.355469 35.976562 112.355469 39.386719 C 112.355469 42.789062 115.128906 45.566406 118.539062 45.566406 C 121.945312 45.566406 124.71875 42.789062 124.71875 39.386719 C 124.71875 35.976562 121.945312 33.203125 118.539062 33.203125 Z M 118.539062 50.730469 C 112.28125 50.730469 107.191406 45.640625 107.191406 39.386719 C 107.191406 33.128906 112.28125 28.039062 118.539062 28.039062 C 124.792969 28.039062 129.882812 33.128906 129.882812 39.386719 C 129.882812 45.640625 124.792969 50.730469 118.539062 50.730469 " fill-opacity="1" fill-rule="nonzero"/><g clip-path="url(#7d1471cb9e)"><path fill="#fcc0c5" d="M 108.53125 6.488281 C 106.328125 6.488281 104.535156 8.28125 104.535156 10.480469 C 104.535156 12.683594 106.328125 14.476562 108.53125 14.476562 C 110.734375 14.476562 112.523438 12.683594 112.523438 10.480469 C 112.523438 8.28125 110.734375 6.488281 108.53125 6.488281 Z M 108.53125 19.640625 C 103.480469 19.640625 99.371094 15.53125 99.371094 10.480469 C 99.371094 5.433594 103.480469 1.324219 108.53125 1.324219 C 113.578125 1.324219 117.6875 5.433594 117.6875 10.480469 C 117.6875 15.53125 113.578125 19.640625 108.53125 19.640625 " fill-opacity="1" fill-rule="nonzero"/></g><path fill="#fcc0c5" d="M 33.835938 104.511719 C 33.574219 104.511719 33.304688 104.472656 33.039062 104.386719 C 31.683594 103.949219 30.9375 102.496094 31.375 101.136719 L 40.378906 73.25 C 40.816406 71.894531 42.269531 71.144531 43.628906 71.585938 C 44.988281 72.023438 45.730469 73.480469 45.292969 74.839844 L 36.292969 102.722656 C 35.941406 103.8125 34.925781 104.511719 33.835938 104.511719 " fill-opacity="1" fill-rule="nonzero"/><path fill="#fcc0c5" d="M 36.3125 51.367188 C 35.652344 51.367188 34.992188 51.113281 34.488281 50.609375 L 18.542969 34.664062 C 17.535156 33.65625 17.535156 32.023438 18.542969 31.015625 C 19.550781 30.003906 21.183594 30.003906 22.195312 31.015625 L 38.136719 46.957031 C 39.148438 47.96875 39.148438 49.601562 38.136719 50.609375 C 37.632812 51.113281 36.972656 51.367188 36.3125 51.367188 " fill-opacity="1" fill-rule="nonzero"/><path fill="#fcc0c5" d="M 78.683594 80.996094 C 78.304688 80.996094 77.917969 80.910156 77.550781 80.730469 L 57.324219 70.847656 C 56.042969 70.222656 55.507812 68.679688 56.136719 67.398438 C 56.761719 66.117188 58.308594 65.582031 59.589844 66.210938 L 79.820312 76.09375 C 81.101562 76.71875 81.632812 78.261719 81.007812 79.542969 C 80.558594 80.460938 79.640625 80.996094 78.683594 80.996094 " fill-opacity="1" fill-rule="nonzero"/><path fill="#fcc0c5" d="M 59.554688 54 C 58.738281 54 57.933594 53.613281 57.433594 52.890625 C 56.617188 51.722656 56.90625 50.113281 58.074219 49.296875 L 73.308594 38.695312 C 74.476562 37.875 76.089844 38.167969 76.902344 39.335938 C 77.71875 40.507812 77.429688 42.117188 76.257812 42.929688 L 61.027344 53.53125 C 60.578125 53.847656 60.0625 54 59.554688 54 " fill-opacity="1" fill-rule="nonzero"/><path fill="#fcc0c5" d="M 109.902344 43.421875 C 109.6875 43.421875 109.464844 43.390625 109.238281 43.332031 L 89.757812 38.164062 C 88.378906 37.796875 87.554688 36.382812 87.921875 35.003906 C 88.289062 33.625 89.707031 32.8125 91.082031 33.171875 L 110.566406 38.339844 C 111.945312 38.707031 112.765625 40.121094 112.398438 41.5 C 112.09375 42.65625 111.046875 43.421875 109.902344 43.421875 " fill-opacity="1" fill-rule="nonzero"/><path fill="#fcc0c5" d="M 118.539062 33.203125 C 117.625 33.203125 116.738281 32.71875 116.269531 31.855469 L 108.640625 17.832031 C 107.960938 16.582031 108.421875 15.011719 109.671875 14.332031 C 110.929688 13.648438 112.496094 14.109375 113.179688 15.367188 L 120.808594 29.390625 C 121.488281 30.640625 121.023438 32.207031 119.773438 32.890625 C 119.382812 33.105469 118.957031 33.203125 118.539062 33.203125 " fill-opacity="1" fill-rule="nonzero"/></g></g></g><g mask="url(#fbc32c20b7)"><g transform="matrix(1, 0, 0, 1, 57, 367)"><g clip-path="url(#f2c97c04cd)"><path fill="#fcc0c5" d="M 66.503906 65.84375 C 56.855469 65.84375 49.007812 73.691406 49.007812 83.339844 C 49.007812 92.988281 56.855469 100.835938 66.503906 100.835938 C 76.152344 100.835938 84 92.988281 84 83.339844 C 84 73.691406 76.152344 65.84375 66.503906 65.84375 Z M 66.503906 108.199219 C 52.796875 108.199219 41.644531 97.046875 41.644531 83.339844 C 41.644531 69.632812 52.796875 58.480469 66.503906 58.480469 C 80.210938 58.480469 91.363281 69.632812 91.363281 83.339844 C 91.363281 97.046875 80.210938 108.199219 66.503906 108.199219 " fill-opacity="1" fill-rule="nonzero"/><path fill="#fcc0c5" d="M 124.59375 101.644531 C 119.574219 101.644531 115.488281 105.726562 115.488281 110.746094 C 115.488281 115.765625 119.574219 119.847656 124.59375 119.847656 C 129.617188 119.847656 133.699219 115.765625 133.699219 110.746094 C 133.699219 105.726562 129.617188 101.644531 124.59375 101.644531 Z M 124.59375 127.210938 C 115.515625 127.210938 108.125 119.824219 108.125 110.746094 C 108.125 101.667969 115.515625 94.28125 124.59375 94.28125 C 133.675781 94.28125 141.0625 101.667969 141.0625 110.746094 C 141.0625 119.824219 133.675781 127.210938 124.59375 127.210938 " fill-opacity="1" fill-rule="nonzero"/><g clip-path="url(#1b5da79d6d)"><path fill="#fcc0c5" d="M 44.914062 147.671875 C 38.238281 147.671875 32.808594 153.097656 32.808594 159.773438 C 32.808594 166.445312 38.238281 171.875 44.914062 171.875 C 51.585938 171.875 57.011719 166.445312 57.011719 159.773438 C 57.011719 153.097656 51.585938 147.671875 44.914062 147.671875 Z M 44.914062 179.238281 C 34.179688 179.238281 25.445312 170.503906 25.445312 159.773438 C 25.445312 149.042969 34.179688 140.308594 44.914062 140.308594 C 55.644531 140.308594 64.375 149.042969 64.375 159.773438 C 64.375 170.503906 55.644531 179.238281 44.914062 179.238281 " fill-opacity="1" fill-rule="nonzero"/></g><g clip-path="url(#859c6d4c87)"><path fill="#fcc0c5" d="M 19.753906 21.519531 C 13.324219 21.519531 8.09375 26.75 8.09375 33.179688 C 8.09375 39.613281 13.324219 44.84375 19.753906 44.84375 C 26.183594 44.84375 31.414062 39.613281 31.414062 33.179688 C 31.414062 26.75 26.183594 21.519531 19.753906 21.519531 Z M 19.753906 52.207031 C 9.265625 52.207031 0.730469 43.671875 0.730469 33.179688 C 0.730469 22.691406 9.265625 14.15625 19.753906 14.15625 C 30.242188 14.15625 38.777344 22.691406 38.777344 33.179688 C 38.777344 43.671875 30.242188 52.207031 19.753906 52.207031 " fill-opacity="1" fill-rule="nonzero"/></g><path fill="#fcc0c5" d="M 116.171875 41.121094 C 111.390625 41.121094 107.5 45.015625 107.5 49.800781 C 107.5 54.585938 111.390625 58.480469 116.171875 58.480469 C 120.960938 58.480469 124.855469 54.585938 124.855469 49.800781 C 124.855469 45.015625 120.960938 41.121094 116.171875 41.121094 Z M 116.171875 65.84375 C 107.328125 65.84375 100.136719 58.644531 100.136719 49.800781 C 100.136719 40.957031 107.328125 33.757812 116.171875 33.757812 C 125.019531 33.757812 132.214844 40.957031 132.214844 49.800781 C 132.214844 58.644531 125.019531 65.84375 116.171875 65.84375 " fill-opacity="1" fill-rule="nonzero"/><g clip-path="url(#2a7517b52e)"><path fill="#fcc0c5" d="M 168.625 46.292969 C 163.765625 46.292969 159.8125 50.246094 159.8125 55.105469 C 159.8125 59.960938 163.765625 63.914062 168.625 63.914062 C 173.484375 63.914062 177.4375 59.960938 177.4375 55.105469 C 177.4375 50.246094 173.484375 46.292969 168.625 46.292969 Z M 168.625 71.277344 C 159.707031 71.277344 152.449219 64.023438 152.449219 55.105469 C 152.449219 46.183594 159.707031 38.929688 168.625 38.929688 C 177.542969 38.929688 184.800781 46.183594 184.800781 55.105469 C 184.800781 64.023438 177.542969 71.277344 168.625 71.277344 " fill-opacity="1" fill-rule="nonzero"/></g><g clip-path="url(#a48b9b78eb)"><path fill="#fcc0c5" d="M 154.355469 8.203125 C 151.214844 8.203125 148.664062 10.757812 148.664062 13.894531 C 148.664062 17.035156 151.214844 19.589844 154.355469 19.589844 C 157.496094 19.589844 160.050781 17.035156 160.050781 13.894531 C 160.050781 10.757812 157.496094 8.203125 154.355469 8.203125 Z M 154.355469 26.953125 C 147.15625 26.953125 141.300781 21.097656 141.300781 13.894531 C 141.300781 6.695312 147.15625 0.839844 154.355469 0.839844 C 161.554688 0.839844 167.414062 6.695312 167.414062 13.894531 C 167.414062 21.097656 161.554688 26.953125 154.355469 26.953125 " fill-opacity="1" fill-rule="nonzero"/></g><path fill="#fcc0c5" d="M 47.863281 147.953125 C 47.488281 147.953125 47.105469 147.898438 46.730469 147.777344 C 44.792969 147.15625 43.734375 145.082031 44.359375 143.140625 L 57.191406 103.386719 C 57.816406 101.457031 59.886719 100.386719 61.828125 101.015625 C 63.761719 101.640625 64.820312 103.714844 64.195312 105.652344 L 51.367188 145.40625 C 50.863281 146.960938 49.417969 147.953125 47.863281 147.953125 " fill-opacity="1" fill-rule="nonzero"/><path fill="#fcc0c5" d="M 51.394531 72.1875 C 50.453125 72.1875 49.511719 71.828125 48.792969 71.105469 L 26.058594 48.375 C 24.621094 46.9375 24.621094 44.605469 26.058594 43.167969 C 27.496094 41.730469 29.828125 41.730469 31.269531 43.167969 L 54 65.902344 C 55.4375 67.339844 55.4375 69.667969 54 71.105469 C 53.277344 71.828125 52.339844 72.1875 51.394531 72.1875 " fill-opacity="1" fill-rule="nonzero"/><path fill="#fcc0c5" d="M 111.804688 114.425781 C 111.265625 114.425781 110.710938 114.308594 110.191406 114.054688 L 81.351562 99.964844 C 79.523438 99.070312 78.765625 96.867188 79.65625 95.042969 C 80.546875 93.214844 82.753906 92.453125 84.578125 93.347656 L 113.425781 107.4375 C 115.25 108.328125 116.011719 110.53125 115.117188 112.359375 C 114.476562 113.667969 113.167969 114.425781 111.804688 114.425781 " fill-opacity="1" fill-rule="nonzero"/><path fill="#fcc0c5" d="M 84.53125 75.9375 C 83.367188 75.9375 82.222656 75.386719 81.503906 74.359375 C 80.34375 72.691406 80.753906 70.398438 82.421875 69.234375 L 104.144531 54.117188 C 105.808594 52.949219 108.105469 53.367188 109.265625 55.035156 C 110.425781 56.703125 110.015625 59 108.347656 60.15625 L 86.628906 75.273438 C 85.988281 75.726562 85.253906 75.9375 84.53125 75.9375 " fill-opacity="1" fill-rule="nonzero"/><path fill="#fcc0c5" d="M 156.316406 60.855469 C 156.003906 60.855469 155.6875 60.816406 155.371094 60.734375 L 127.59375 53.363281 C 125.625 52.839844 124.453125 50.820312 124.976562 48.855469 C 125.5 46.894531 127.519531 45.730469 129.480469 46.242188 L 157.257812 53.613281 C 159.226562 54.136719 160.394531 56.15625 159.875 58.117188 C 159.4375 59.765625 157.945312 60.855469 156.316406 60.855469 " fill-opacity="1" fill-rule="nonzero"/><path fill="#fcc0c5" d="M 168.628906 46.292969 C 167.324219 46.292969 166.058594 45.597656 165.390625 44.367188 L 154.515625 24.375 C 153.542969 22.59375 154.203125 20.355469 155.988281 19.386719 C 157.777344 18.410156 160.015625 19.070312 160.984375 20.863281 L 171.859375 40.855469 C 172.832031 42.636719 172.171875 44.871094 170.386719 45.84375 C 169.828125 46.148438 169.222656 46.292969 168.628906 46.292969 " fill-opacity="1" fill-rule="nonzero"/></g></g></g><g mask="url(#fb297b7a33)"><g transform="matrix(1, 0, 0, 1, 389, 416)"><g clip-path="url(#5ed5376341)"><path fill="#fcc0c5" d="M 32.238281 32.207031 C 27.570312 32.207031 23.773438 36.003906 23.773438 40.675781 C 23.773438 45.347656 27.570312 49.144531 32.238281 49.144531 C 36.910156 49.144531 40.710938 45.347656 40.710938 40.675781 C 40.710938 36.003906 36.910156 32.207031 32.238281 32.207031 Z M 32.238281 52.710938 C 25.605469 52.710938 20.207031 47.3125 20.207031 40.675781 C 20.207031 34.042969 25.605469 28.644531 32.238281 28.644531 C 38.875 28.644531 44.273438 34.042969 44.273438 40.675781 C 44.273438 47.3125 38.875 52.710938 32.238281 52.710938 " fill-opacity="1" fill-rule="nonzero"/><path fill="#fcc0c5" d="M 60.355469 49.535156 C 57.925781 49.535156 55.949219 51.511719 55.949219 53.941406 C 55.949219 56.371094 57.925781 58.347656 60.355469 58.347656 C 62.789062 58.347656 64.765625 56.371094 64.765625 53.941406 C 64.765625 51.511719 62.789062 49.535156 60.355469 49.535156 Z M 60.355469 61.910156 C 55.960938 61.910156 52.386719 58.335938 52.386719 53.941406 C 52.386719 49.546875 55.960938 45.972656 60.355469 45.972656 C 64.75 45.972656 68.328125 49.546875 68.328125 53.941406 C 68.328125 58.335938 64.75 61.910156 60.355469 61.910156 " fill-opacity="1" fill-rule="nonzero"/><g clip-path="url(#180a8f596a)"><path fill="#fcc0c5" d="M 21.789062 71.8125 C 18.558594 71.8125 15.933594 74.441406 15.933594 77.671875 C 15.933594 80.898438 18.558594 83.527344 21.789062 83.527344 C 25.019531 83.527344 27.644531 80.898438 27.644531 77.671875 C 27.644531 74.441406 25.019531 71.8125 21.789062 71.8125 Z M 21.789062 87.09375 C 16.59375 87.09375 12.367188 82.863281 12.367188 77.671875 C 12.367188 72.476562 16.59375 68.25 21.789062 68.25 C 26.984375 68.25 31.210938 72.476562 31.210938 77.671875 C 31.210938 82.863281 26.984375 87.09375 21.789062 87.09375 " fill-opacity="1" fill-rule="nonzero"/></g><g clip-path="url(#3d2da48256)"><path fill="#fcc0c5" d="M 9.613281 10.753906 C 6.5 10.753906 3.96875 13.285156 3.96875 16.398438 C 3.96875 19.511719 6.5 22.042969 9.613281 22.042969 C 12.726562 22.042969 15.257812 19.511719 15.257812 16.398438 C 15.257812 13.285156 12.726562 10.753906 9.613281 10.753906 Z M 9.613281 25.605469 C 4.535156 25.605469 0.40625 21.476562 0.40625 16.398438 C 0.40625 11.320312 4.535156 7.191406 9.613281 7.191406 C 14.6875 7.191406 18.820312 11.320312 18.820312 16.398438 C 18.820312 21.476562 14.6875 25.605469 9.613281 25.605469 " fill-opacity="1" fill-rule="nonzero"/></g><path fill="#fcc0c5" d="M 56.28125 20.242188 C 53.964844 20.242188 52.082031 22.125 52.082031 24.441406 C 52.082031 26.757812 53.964844 28.644531 56.28125 28.644531 C 58.597656 28.644531 60.484375 26.757812 60.484375 24.441406 C 60.484375 22.125 58.597656 20.242188 56.28125 20.242188 Z M 56.28125 32.207031 C 52 32.207031 48.519531 28.722656 48.519531 24.441406 C 48.519531 20.164062 52 16.679688 56.28125 16.679688 C 60.5625 16.679688 64.046875 20.164062 64.046875 24.441406 C 64.046875 28.722656 60.5625 32.207031 56.28125 32.207031 " fill-opacity="1" fill-rule="nonzero"/><g clip-path="url(#cceffcc5a7)"><path fill="#fcc0c5" d="M 81.667969 22.746094 C 79.316406 22.746094 77.402344 24.660156 77.402344 27.011719 C 77.402344 29.359375 79.316406 31.273438 81.667969 31.273438 C 84.019531 31.273438 85.933594 29.359375 85.933594 27.011719 C 85.933594 24.660156 84.019531 22.746094 81.667969 22.746094 Z M 81.667969 34.835938 C 77.351562 34.835938 73.839844 31.328125 73.839844 27.011719 C 73.839844 22.691406 77.351562 19.179688 81.667969 19.179688 C 85.984375 19.179688 89.496094 22.691406 89.496094 27.011719 C 89.496094 31.328125 85.984375 34.835938 81.667969 34.835938 " fill-opacity="1" fill-rule="nonzero"/></g><g clip-path="url(#2cb8904873)"><path fill="#fcc0c5" d="M 74.761719 4.308594 C 73.242188 4.308594 72.007812 5.546875 72.007812 7.066406 C 72.007812 8.585938 73.242188 9.820312 74.761719 9.820312 C 76.28125 9.820312 77.519531 8.585938 77.519531 7.066406 C 77.519531 5.546875 76.28125 4.308594 74.761719 4.308594 Z M 74.761719 13.382812 C 71.277344 13.382812 68.441406 10.550781 68.441406 7.066406 C 68.441406 3.582031 71.277344 0.746094 74.761719 0.746094 C 78.246094 0.746094 81.082031 3.582031 81.082031 7.066406 C 81.082031 10.550781 78.246094 13.382812 74.761719 13.382812 " fill-opacity="1" fill-rule="nonzero"/></g><path fill="#fcc0c5" d="M 23.21875 71.949219 C 23.039062 71.949219 22.851562 71.925781 22.667969 71.863281 C 21.734375 71.5625 21.21875 70.558594 21.519531 69.621094 L 27.734375 50.378906 C 28.035156 49.445312 29.039062 48.925781 29.976562 49.230469 C 30.914062 49.535156 31.425781 50.539062 31.125 51.476562 L 24.914062 70.71875 C 24.671875 71.46875 23.96875 71.949219 23.21875 71.949219 " fill-opacity="1" fill-rule="nonzero"/><path fill="#fcc0c5" d="M 24.925781 35.277344 C 24.472656 35.277344 24.015625 35.105469 23.667969 34.753906 L 12.664062 23.753906 C 11.96875 23.058594 11.96875 21.929688 12.664062 21.234375 C 13.359375 20.539062 14.488281 20.539062 15.1875 21.234375 L 26.1875 32.234375 C 26.882812 32.933594 26.882812 34.058594 26.1875 34.753906 C 25.839844 35.105469 25.382812 35.277344 24.925781 35.277344 " fill-opacity="1" fill-rule="nonzero"/><path fill="#fcc0c5" d="M 54.167969 55.722656 C 53.90625 55.722656 53.636719 55.667969 53.386719 55.542969 L 39.425781 48.722656 C 38.542969 48.289062 38.175781 47.222656 38.605469 46.339844 C 39.039062 45.457031 40.105469 45.085938 40.988281 45.519531 L 54.949219 52.339844 C 55.835938 52.773438 56.203125 53.839844 55.769531 54.722656 C 55.460938 55.355469 54.828125 55.722656 54.167969 55.722656 " fill-opacity="1" fill-rule="nonzero"/><path fill="#fcc0c5" d="M 40.964844 37.09375 C 40.402344 37.09375 39.847656 36.828125 39.5 36.332031 C 38.9375 35.523438 39.136719 34.410156 39.945312 33.847656 L 50.457031 26.53125 C 51.265625 25.96875 52.375 26.167969 52.9375 26.976562 C 53.5 27.785156 53.300781 28.894531 52.492188 29.457031 L 41.980469 36.773438 C 41.671875 36.992188 41.316406 37.09375 40.964844 37.09375 " fill-opacity="1" fill-rule="nonzero"/><path fill="#fcc0c5" d="M 75.710938 29.792969 C 75.558594 29.792969 75.40625 29.773438 75.253906 29.734375 L 61.808594 26.167969 C 60.855469 25.914062 60.289062 24.9375 60.542969 23.984375 C 60.792969 23.035156 61.773438 22.472656 62.722656 22.722656 L 76.167969 26.289062 C 77.117188 26.542969 77.683594 27.519531 77.433594 28.46875 C 77.222656 29.265625 76.5 29.792969 75.710938 29.792969 " fill-opacity="1" fill-rule="nonzero"/><path fill="#fcc0c5" d="M 81.667969 22.746094 C 81.039062 22.746094 80.425781 22.410156 80.105469 21.8125 L 74.839844 12.136719 C 74.367188 11.273438 74.6875 10.191406 75.550781 9.722656 C 76.417969 9.25 77.5 9.570312 77.96875 10.4375 L 83.234375 20.113281 C 83.703125 20.976562 83.386719 22.058594 82.519531 22.527344 C 82.25 22.675781 81.957031 22.746094 81.667969 22.746094 " fill-opacity="1" fill-rule="nonzero"/></g></g></g><g mask="url(#78f34d49af)"><g transform="matrix(1, 0, 0, 1, 877, 443)"><g clip-path="url(#d422cc436c)"><path fill="#fcc0c5" d="M 32.085938 32.863281 C 27.417969 32.863281 23.617188 36.660156 23.617188 41.332031 C 23.617188 46 27.417969 49.800781 32.085938 49.800781 C 36.753906 49.800781 40.554688 46 40.554688 41.332031 C 40.554688 36.660156 36.753906 32.863281 32.085938 32.863281 Z M 32.085938 53.363281 C 25.449219 53.363281 20.054688 47.964844 20.054688 41.332031 C 20.054688 34.695312 25.449219 29.300781 32.085938 29.300781 C 38.71875 29.300781 44.117188 34.695312 44.117188 41.332031 C 44.117188 47.964844 38.71875 53.363281 32.085938 53.363281 " fill-opacity="1" fill-rule="nonzero"/><path fill="#fcc0c5" d="M 60.203125 50.191406 C 57.773438 50.191406 55.796875 52.167969 55.796875 54.597656 C 55.796875 57.027344 57.773438 59.003906 60.203125 59.003906 C 62.632812 59.003906 64.609375 57.027344 64.609375 54.597656 C 64.609375 52.167969 62.632812 50.191406 60.203125 50.191406 Z M 60.203125 62.566406 C 55.808594 62.566406 52.230469 58.988281 52.230469 54.597656 C 52.230469 50.203125 55.808594 46.625 60.203125 46.625 C 64.597656 46.625 68.171875 50.203125 68.171875 54.597656 C 68.171875 58.988281 64.597656 62.566406 60.203125 62.566406 " fill-opacity="1" fill-rule="nonzero"/><g clip-path="url(#858be36b6d)"><path fill="#fcc0c5" d="M 21.636719 72.46875 C 18.40625 72.46875 15.777344 75.097656 15.777344 78.324219 C 15.777344 81.554688 18.40625 84.183594 21.636719 84.183594 C 24.863281 84.183594 27.492188 81.554688 27.492188 78.324219 C 27.492188 75.097656 24.863281 72.46875 21.636719 72.46875 Z M 21.636719 87.746094 C 16.441406 87.746094 12.214844 83.519531 12.214844 78.324219 C 12.214844 73.132812 16.441406 68.90625 21.636719 68.90625 C 26.832031 68.90625 31.054688 73.132812 31.054688 78.324219 C 31.054688 83.519531 26.832031 87.746094 21.636719 87.746094 " fill-opacity="1" fill-rule="nonzero"/></g><g clip-path="url(#957505e5a7)"><path fill="#fcc0c5" d="M 9.457031 11.410156 C 6.347656 11.410156 3.8125 13.941406 3.8125 17.054688 C 3.8125 20.167969 6.347656 22.699219 9.457031 22.699219 C 12.570312 22.699219 15.101562 20.167969 15.101562 17.054688 C 15.101562 13.941406 12.570312 11.410156 9.457031 11.410156 Z M 9.457031 26.261719 C 4.382812 26.261719 0.25 22.132812 0.25 17.054688 C 0.25 11.976562 4.382812 7.84375 9.457031 7.84375 C 14.535156 7.84375 18.664062 11.976562 18.664062 17.054688 C 18.664062 22.132812 14.535156 26.261719 9.457031 26.261719 " fill-opacity="1" fill-rule="nonzero"/></g><path fill="#fcc0c5" d="M 56.125 20.898438 C 53.8125 20.898438 51.929688 22.78125 51.929688 25.097656 C 51.929688 27.414062 53.8125 29.300781 56.125 29.300781 C 58.441406 29.300781 60.328125 27.414062 60.328125 25.097656 C 60.328125 22.78125 58.441406 20.898438 56.125 20.898438 Z M 56.125 32.863281 C 51.84375 32.863281 48.363281 29.378906 48.363281 25.097656 C 48.363281 20.816406 51.84375 17.332031 56.125 17.332031 C 60.410156 17.332031 63.890625 20.816406 63.890625 25.097656 C 63.890625 29.378906 60.410156 32.863281 56.125 32.863281 " fill-opacity="1" fill-rule="nonzero"/><g clip-path="url(#033d797166)"><path fill="#fcc0c5" d="M 81.511719 23.398438 C 79.164062 23.398438 77.25 25.3125 77.25 27.664062 C 77.25 30.015625 79.164062 31.929688 81.511719 31.929688 C 83.867188 31.929688 85.777344 30.015625 85.777344 27.664062 C 85.777344 25.3125 83.867188 23.398438 81.511719 23.398438 Z M 81.511719 35.492188 C 77.195312 35.492188 73.683594 31.980469 73.683594 27.664062 C 73.683594 23.347656 77.195312 19.835938 81.511719 19.835938 C 85.832031 19.835938 89.34375 23.347656 89.34375 27.664062 C 89.34375 31.980469 85.832031 35.492188 81.511719 35.492188 " fill-opacity="1" fill-rule="nonzero"/></g><g clip-path="url(#04c55d4ef7)"><path fill="#fcc0c5" d="M 74.605469 4.964844 C 73.085938 4.964844 71.851562 6.199219 71.851562 7.71875 C 71.851562 9.238281 73.085938 10.476562 74.605469 10.476562 C 76.128906 10.476562 77.363281 9.238281 77.363281 7.71875 C 77.363281 6.199219 76.128906 4.964844 74.605469 4.964844 Z M 74.605469 14.039062 C 71.125 14.039062 68.289062 11.207031 68.289062 7.71875 C 68.289062 4.234375 71.125 1.398438 74.605469 1.398438 C 78.089844 1.398438 80.925781 4.234375 80.925781 7.71875 C 80.925781 11.207031 78.089844 14.039062 74.605469 14.039062 " fill-opacity="1" fill-rule="nonzero"/></g><path fill="#fcc0c5" d="M 23.0625 72.605469 C 22.882812 72.605469 22.695312 72.578125 22.515625 72.519531 C 21.578125 72.21875 21.0625 71.214844 21.367188 70.277344 L 27.578125 51.035156 C 27.878906 50.101562 28.882812 49.582031 29.820312 49.886719 C 30.757812 50.1875 31.269531 51.191406 30.96875 52.132812 L 24.757812 71.371094 C 24.515625 72.125 23.816406 72.605469 23.0625 72.605469 " fill-opacity="1" fill-rule="nonzero"/><path fill="#fcc0c5" d="M 24.773438 35.933594 C 24.316406 35.933594 23.859375 35.757812 23.511719 35.410156 L 12.511719 24.40625 C 11.8125 23.710938 11.8125 22.585938 12.511719 21.886719 C 13.207031 21.191406 14.332031 21.191406 15.03125 21.886719 L 26.03125 32.890625 C 26.730469 33.585938 26.730469 34.714844 26.03125 35.410156 C 25.683594 35.757812 25.230469 35.933594 24.773438 35.933594 " fill-opacity="1" fill-rule="nonzero"/><path fill="#fcc0c5" d="M 54.011719 56.378906 C 53.75 56.378906 53.484375 56.320312 53.230469 56.199219 L 39.269531 49.378906 C 38.386719 48.945312 38.019531 47.878906 38.449219 46.996094 C 38.882812 46.113281 39.949219 45.742188 40.835938 46.175781 L 54.796875 52.996094 C 55.679688 53.425781 56.046875 54.492188 55.613281 55.378906 C 55.304688 56.011719 54.671875 56.378906 54.011719 56.378906 " fill-opacity="1" fill-rule="nonzero"/><path fill="#fcc0c5" d="M 40.8125 37.75 C 40.246094 37.75 39.691406 37.480469 39.347656 36.984375 C 38.785156 36.179688 38.984375 35.066406 39.789062 34.503906 L 50.304688 27.1875 C 51.109375 26.621094 52.222656 26.824219 52.78125 27.632812 C 53.34375 28.441406 53.144531 29.550781 52.339844 30.113281 L 41.828125 37.429688 C 41.515625 37.648438 41.160156 37.75 40.8125 37.75 " fill-opacity="1" fill-rule="nonzero"/><path fill="#fcc0c5" d="M 75.554688 30.449219 C 75.40625 30.449219 75.25 30.429688 75.097656 30.390625 L 61.652344 26.820312 C 60.699219 26.570312 60.132812 25.59375 60.386719 24.640625 C 60.640625 23.691406 61.617188 23.128906 62.566406 23.375 L 76.011719 26.945312 C 76.964844 27.195312 77.53125 28.171875 77.277344 29.125 C 77.066406 29.921875 76.34375 30.449219 75.554688 30.449219 " fill-opacity="1" fill-rule="nonzero"/><path fill="#fcc0c5" d="M 81.515625 23.398438 C 80.882812 23.398438 80.273438 23.066406 79.949219 22.46875 L 74.683594 12.792969 C 74.214844 11.929688 74.535156 10.847656 75.398438 10.378906 C 76.261719 9.90625 77.34375 10.222656 77.816406 11.089844 L 83.078125 20.769531 C 83.550781 21.632812 83.230469 22.710938 82.367188 23.183594 C 82.09375 23.332031 81.804688 23.398438 81.515625 23.398438 " fill-opacity="1" fill-rule="nonzero"/></g></g></g><g mask="url(#aa773113c6)"><g transform="matrix(1, 0, 0, 1, 556, 57)"><g clip-path="url(#fce8eff5ce)"><path fill="#fcc0c5" d="M 32.007812 32.160156 C 27.339844 32.160156 23.542969 35.957031 23.542969 40.625 C 23.542969 45.296875 27.339844 49.097656 32.007812 49.097656 C 36.679688 49.097656 40.480469 45.296875 40.480469 40.625 C 40.480469 35.957031 36.679688 32.160156 32.007812 32.160156 Z M 32.007812 52.660156 C 25.375 52.660156 19.976562 47.261719 19.976562 40.625 C 19.976562 33.992188 25.375 28.59375 32.007812 28.59375 C 38.644531 28.59375 44.042969 33.992188 44.042969 40.625 C 44.042969 47.261719 38.644531 52.660156 32.007812 52.660156 " fill-opacity="1" fill-rule="nonzero"/><path fill="#fcc0c5" d="M 60.125 49.484375 C 57.695312 49.484375 55.71875 51.460938 55.71875 53.890625 C 55.71875 56.320312 57.695312 58.296875 60.125 58.296875 C 62.558594 58.296875 64.535156 56.320312 64.535156 53.890625 C 64.535156 51.460938 62.558594 49.484375 60.125 49.484375 Z M 60.125 61.863281 C 55.730469 61.863281 52.15625 58.285156 52.15625 53.890625 C 52.15625 49.5 55.730469 45.921875 60.125 45.921875 C 64.519531 45.921875 68.097656 49.5 68.097656 53.890625 C 68.097656 58.285156 64.519531 61.863281 60.125 61.863281 " fill-opacity="1" fill-rule="nonzero"/><g clip-path="url(#7bb2279991)"><path fill="#fcc0c5" d="M 21.558594 71.765625 C 18.328125 71.765625 15.703125 74.390625 15.703125 77.621094 C 15.703125 80.851562 18.328125 83.480469 21.558594 83.480469 C 24.789062 83.480469 27.414062 80.851562 27.414062 77.621094 C 27.414062 74.390625 24.789062 71.765625 21.558594 71.765625 Z M 21.558594 87.042969 C 16.363281 87.042969 12.136719 82.816406 12.136719 77.621094 C 12.136719 72.425781 16.363281 68.199219 21.558594 68.199219 C 26.753906 68.199219 30.980469 72.425781 30.980469 77.621094 C 30.980469 82.816406 26.753906 87.042969 21.558594 87.042969 " fill-opacity="1" fill-rule="nonzero"/></g><g clip-path="url(#1a807d2f8a)"><path fill="#fcc0c5" d="M 9.382812 10.703125 C 6.269531 10.703125 3.738281 13.234375 3.738281 16.347656 C 3.738281 19.464844 6.269531 21.992188 9.382812 21.992188 C 12.496094 21.992188 15.027344 19.464844 15.027344 16.347656 C 15.027344 13.234375 12.496094 10.703125 9.382812 10.703125 Z M 9.382812 25.558594 C 4.304688 25.558594 0.175781 21.425781 0.175781 16.347656 C 0.175781 11.273438 4.304688 7.140625 9.382812 7.140625 C 14.457031 7.140625 18.589844 11.273438 18.589844 16.347656 C 18.589844 21.425781 14.457031 25.558594 9.382812 25.558594 " fill-opacity="1" fill-rule="nonzero"/></g><path fill="#fcc0c5" d="M 56.050781 20.191406 C 53.734375 20.191406 51.851562 22.078125 51.851562 24.394531 C 51.851562 26.710938 53.734375 28.59375 56.050781 28.59375 C 58.367188 28.59375 60.25 26.710938 60.25 24.394531 C 60.25 22.078125 58.367188 20.191406 56.050781 20.191406 Z M 56.050781 32.160156 C 51.769531 32.160156 48.289062 28.675781 48.289062 24.394531 C 48.289062 20.113281 51.769531 16.628906 56.050781 16.628906 C 60.332031 16.628906 63.816406 20.113281 63.816406 24.394531 C 63.816406 28.675781 60.332031 32.160156 56.050781 32.160156 " fill-opacity="1" fill-rule="nonzero"/><g clip-path="url(#a58294723e)"><path fill="#fcc0c5" d="M 81.4375 22.695312 C 79.085938 22.695312 77.171875 24.609375 77.171875 26.960938 C 77.171875 29.3125 79.085938 31.226562 81.4375 31.226562 C 83.789062 31.226562 85.703125 29.3125 85.703125 26.960938 C 85.703125 24.609375 83.789062 22.695312 81.4375 22.695312 Z M 81.4375 34.789062 C 77.121094 34.789062 73.609375 31.277344 73.609375 26.960938 C 73.609375 22.640625 77.121094 19.132812 81.4375 19.132812 C 85.753906 19.132812 89.265625 22.640625 89.265625 26.960938 C 89.265625 31.277344 85.753906 34.789062 81.4375 34.789062 " fill-opacity="1" fill-rule="nonzero"/></g><g clip-path="url(#7d2f9c90e9)"><path fill="#fcc0c5" d="M 74.53125 4.257812 C 73.011719 4.257812 71.777344 5.496094 71.777344 7.015625 C 71.777344 8.535156 73.011719 9.769531 74.53125 9.769531 C 76.050781 9.769531 77.289062 8.535156 77.289062 7.015625 C 77.289062 5.496094 76.050781 4.257812 74.53125 4.257812 Z M 74.53125 13.335938 C 71.046875 13.335938 68.210938 10.5 68.210938 7.015625 C 68.210938 3.53125 71.046875 0.695312 74.53125 0.695312 C 78.015625 0.695312 80.851562 3.53125 80.851562 7.015625 C 80.851562 10.5 78.015625 13.335938 74.53125 13.335938 " fill-opacity="1" fill-rule="nonzero"/></g><path fill="#fcc0c5" d="M 22.988281 71.902344 C 22.804688 71.902344 22.621094 71.875 22.4375 71.816406 C 21.503906 71.515625 20.988281 70.511719 21.289062 69.570312 L 27.503906 50.328125 C 27.804688 49.394531 28.808594 48.878906 29.746094 49.183594 C 30.683594 49.484375 31.195312 50.488281 30.894531 51.425781 L 24.683594 70.667969 C 24.441406 71.421875 23.738281 71.902344 22.988281 71.902344 " fill-opacity="1" fill-rule="nonzero"/><path fill="#fcc0c5" d="M 24.695312 35.226562 C 24.242188 35.226562 23.785156 35.054688 23.4375 34.703125 L 12.433594 23.703125 C 11.738281 23.007812 11.738281 21.878906 12.433594 21.183594 C 13.128906 20.488281 14.257812 20.488281 14.957031 21.183594 L 25.957031 32.1875 C 26.652344 32.882812 26.652344 34.011719 25.957031 34.703125 C 25.609375 35.054688 25.152344 35.226562 24.695312 35.226562 " fill-opacity="1" fill-rule="nonzero"/><path fill="#fcc0c5" d="M 53.9375 55.671875 C 53.675781 55.671875 53.40625 55.617188 53.15625 55.492188 L 39.195312 48.671875 C 38.3125 48.242188 37.945312 47.175781 38.375 46.292969 C 38.808594 45.40625 39.875 45.039062 40.757812 45.472656 L 54.71875 52.289062 C 55.605469 52.722656 55.972656 53.789062 55.539062 54.671875 C 55.230469 55.304688 54.597656 55.671875 53.9375 55.671875 " fill-opacity="1" fill-rule="nonzero"/><path fill="#fcc0c5" d="M 40.734375 37.042969 C 40.171875 37.042969 39.617188 36.777344 39.269531 36.28125 C 38.707031 35.472656 38.90625 34.363281 39.714844 33.800781 L 50.226562 26.484375 C 51.035156 25.917969 52.144531 26.121094 52.707031 26.925781 C 53.269531 27.734375 53.070312 28.84375 52.261719 29.40625 L 41.75 36.722656 C 41.441406 36.941406 41.085938 37.042969 40.734375 37.042969 " fill-opacity="1" fill-rule="nonzero"/><path fill="#fcc0c5" d="M 75.480469 29.746094 C 75.328125 29.746094 75.175781 29.726562 75.023438 29.683594 L 61.578125 26.117188 C 60.625 25.863281 60.058594 24.886719 60.3125 23.9375 C 60.5625 22.988281 61.542969 22.425781 62.492188 22.671875 L 75.9375 26.238281 C 76.886719 26.492188 77.453125 27.46875 77.203125 28.417969 C 76.988281 29.21875 76.269531 29.746094 75.480469 29.746094 " fill-opacity="1" fill-rule="nonzero"/><path fill="#fcc0c5" d="M 81.4375 22.695312 C 80.808594 22.695312 80.195312 22.359375 79.875 21.765625 L 74.609375 12.085938 C 74.136719 11.226562 74.457031 10.140625 75.320312 9.671875 C 76.1875 9.199219 77.269531 9.519531 77.738281 10.386719 L 83.003906 20.0625 C 83.472656 20.925781 83.152344 22.007812 82.289062 22.476562 C 82.019531 22.625 81.726562 22.695312 81.4375 22.695312 " fill-opacity="1" fill-rule="nonzero"/></g></g></g></svg>