<svg xmlns="http://www.w3.org/2000/svg" xmlns:xlink="http://www.w3.org/1999/xlink" width="800" zoomAndPan="magnify" viewBox="0 0 600 149.999998" height="200" preserveAspectRatio="xMidYMid meet" version="1.0"><defs><g/><clipPath id="9eb479d937"><path d="M 29.144531 57.105469 L 83 57.105469 L 83 117.855469 L 29.144531 117.855469 Z M 29.144531 57.105469 " clip-rule="nonzero"/></clipPath><clipPath id="4ee9e58fb9"><path d="M 44.777344 100.425781 L 49.835938 100.425781 L 49.835938 105.480469 L 44.777344 105.480469 Z M 44.777344 100.425781 " clip-rule="nonzero"/></clipPath><clipPath id="f8845e8f0d"><path d="M 47.308594 100.425781 C 45.910156 100.425781 44.777344 101.558594 44.777344 102.953125 C 44.777344 104.351562 45.910156 105.480469 47.308594 105.480469 C 48.703125 105.480469 49.835938 104.351562 49.835938 102.953125 C 49.835938 101.558594 48.703125 100.425781 47.308594 100.425781 Z M 47.308594 100.425781 " clip-rule="nonzero"/></clipPath><clipPath id="fa726aaa22"><path d="M 54.890625 96.402344 L 62.9375 96.402344 L 62.9375 104.449219 L 54.890625 104.449219 Z M 54.890625 96.402344 " clip-rule="nonzero"/></clipPath><clipPath id="7154fa7e7b"><path d="M 58.914062 96.402344 C 56.691406 96.402344 54.890625 98.203125 54.890625 100.425781 C 54.890625 102.648438 56.691406 104.449219 58.914062 104.449219 C 61.136719 104.449219 62.9375 102.648438 62.9375 100.425781 C 62.9375 98.203125 61.136719 96.402344 58.914062 96.402344 Z M 58.914062 96.402344 " clip-rule="nonzero"/></clipPath><clipPath id="e828ebf54d"><path d="M 64.375 102.039062 L 68.261719 102.039062 L 68.261719 105.925781 L 64.375 105.925781 Z M 64.375 102.039062 " clip-rule="nonzero"/></clipPath><clipPath id="1061c375b5"><path d="M 66.320312 102.039062 C 65.246094 102.039062 64.375 102.90625 64.375 103.980469 C 64.375 105.054688 65.246094 105.925781 66.320312 105.925781 C 67.394531 105.925781 68.261719 105.054688 68.261719 103.980469 C 68.261719 102.90625 67.394531 102.039062 66.320312 102.039062 Z M 66.320312 102.039062 " clip-rule="nonzero"/></clipPath><clipPath id="51075fbd31"><path d="M 56.230469 37.246094 L 64.277344 37.246094 L 64.277344 45.292969 L 56.230469 45.292969 Z M 56.230469 37.246094 " clip-rule="nonzero"/></clipPath><clipPath id="a5a1155b06"><path d="M 60.253906 37.246094 C 58.03125 37.246094 56.230469 39.046875 56.230469 41.269531 C 56.230469 43.492188 58.03125 45.292969 60.253906 45.292969 C 62.476562 45.292969 64.277344 43.492188 64.277344 41.269531 C 64.277344 39.046875 62.476562 37.246094 60.253906 37.246094 Z M 60.253906 37.246094 " clip-rule="nonzero"/></clipPath><clipPath id="becafc8a3c"><path d="M 51.992188 30.5 L 54.890625 30.5 L 54.890625 33.398438 L 51.992188 33.398438 Z M 51.992188 30.5 " clip-rule="nonzero"/></clipPath><clipPath id="ed7310805e"><path d="M 53.441406 30.5 C 52.640625 30.5 51.992188 31.148438 51.992188 31.949219 C 51.992188 32.75 52.640625 33.398438 53.441406 33.398438 C 54.242188 33.398438 54.890625 32.75 54.890625 31.949219 C 54.890625 31.148438 54.242188 30.5 53.441406 30.5 Z M 53.441406 30.5 " clip-rule="nonzero"/></clipPath><clipPath id="2567453782"><path d="M 49.835938 47.605469 L 54.804688 47.605469 L 54.804688 52.574219 L 49.835938 52.574219 Z M 49.835938 47.605469 " clip-rule="nonzero"/></clipPath><clipPath id="4e65704b82"><path d="M 52.320312 47.605469 C 50.949219 47.605469 49.835938 48.714844 49.835938 50.089844 C 49.835938 51.460938 50.949219 52.574219 52.320312 52.574219 C 53.691406 52.574219 54.804688 51.460938 54.804688 50.089844 C 54.804688 48.714844 53.691406 47.605469 52.320312 47.605469 Z M 52.320312 47.605469 " clip-rule="nonzero"/></clipPath></defs><g fill="#ffffff" fill-opacity="1"><g transform="translate(419.250069, 113.449457)"><g><path d="M 12.40625 0 C 11.40625 0 10.21875 0.0976562 8.84375 0.296875 C 7.476562 0.492188 6.195312 0.59375 5 0.59375 C 3.863281 0.59375 2.910156 0.425781 2.140625 0.09375 C 1.378906 -0.238281 1 -0.90625 1 -1.90625 C 1 -2.632812 1.164062 -3.179688 1.5 -3.546875 C 1.832031 -3.910156 2.234375 -4.375 2.703125 -4.9375 C 3.171875 -5.507812 3.570312 -6.394531 3.90625 -7.59375 C 4.238281 -8.800781 4.40625 -10.570312 4.40625 -12.90625 C 4.40625 -15.164062 4.40625 -17.796875 4.40625 -20.796875 C 4.40625 -23.796875 4.421875 -26.78125 4.453125 -29.75 C 4.484375 -32.71875 4.5 -35.285156 4.5 -37.453125 C 4.5 -39.617188 4.5 -41 4.5 -41.59375 C 4.5 -43.394531 4.210938 -44.644531 3.640625 -45.34375 C 3.078125 -46.050781 2.507812 -46.601562 1.9375 -47 C 1.375 -47.394531 1.09375 -48.03125 1.09375 -48.90625 C 1.09375 -49.90625 1.425781 -50.585938 2.09375 -50.953125 C 2.757812 -51.316406 3.707031 -51.628906 4.9375 -51.890625 C 6.175781 -52.160156 7.664062 -52.597656 9.40625 -53.203125 C 11.53125 -54.003906 12.992188 -54.71875 13.796875 -55.34375 C 14.597656 -55.976562 15.195312 -56.492188 15.59375 -56.890625 C 16 -57.296875 16.632812 -57.5 17.5 -57.5 C 18.695312 -57.5 19.492188 -56.960938 19.890625 -55.890625 C 20.296875 -54.828125 20.5 -53.5625 20.5 -52.09375 L 20.5 -12.90625 C 20.5 -10.570312 20.664062 -8.800781 21 -7.59375 C 21.332031 -6.394531 21.734375 -5.507812 22.203125 -4.9375 C 22.671875 -4.375 23.070312 -3.910156 23.40625 -3.546875 C 23.738281 -3.179688 23.90625 -2.632812 23.90625 -1.90625 C 23.90625 -0.90625 23.519531 -0.238281 22.75 0.09375 C 21.976562 0.425781 21.03125 0.59375 19.90625 0.59375 C 18.632812 0.59375 17.316406 0.492188 15.953125 0.296875 C 14.585938 0.0976562 13.40625 0 12.40625 0 Z M 12.40625 0 "/></g></g></g><g fill="#ffffff" fill-opacity="1"><g transform="translate(443.749104, 113.449457)"><g><path d="M 13 0.59375 C 9.269531 0.59375 6.503906 -0.503906 4.703125 -2.703125 C 2.898438 -4.898438 2 -7.53125 2 -10.59375 C 2 -15.0625 3.664062 -18.578125 7 -21.140625 C 10.332031 -23.710938 14.664062 -25.566406 20 -26.703125 C 25.0625 -27.765625 27.59375 -29.429688 27.59375 -31.703125 C 27.59375 -32.566406 27.226562 -33.414062 26.5 -34.25 C 25.769531 -35.082031 24.503906 -35.5 22.703125 -35.5 C 20.898438 -35.5 19.429688 -35.015625 18.296875 -34.046875 C 17.160156 -33.078125 16.160156 -31.976562 15.296875 -30.75 C 14.429688 -29.519531 13.484375 -28.421875 12.453125 -27.453125 C 11.421875 -26.484375 10.035156 -26 8.296875 -26 C 7.160156 -26 6.175781 -26.398438 5.34375 -27.203125 C 4.507812 -28.003906 4.09375 -28.96875 4.09375 -30.09375 C 4.09375 -32.363281 4.992188 -34.28125 6.796875 -35.84375 C 8.597656 -37.414062 10.945312 -38.597656 13.84375 -39.390625 C 16.75 -40.191406 19.898438 -40.59375 23.296875 -40.59375 C 26.960938 -40.59375 30.296875 -40.007812 33.296875 -38.84375 C 36.296875 -37.675781 38.695312 -35.726562 40.5 -33 C 42.300781 -30.269531 43.203125 -26.535156 43.203125 -21.796875 L 43.203125 -12.90625 C 43.203125 -10.570312 43.367188 -8.800781 43.703125 -7.59375 C 44.035156 -6.394531 44.429688 -5.507812 44.890625 -4.9375 C 45.359375 -4.375 45.757812 -3.910156 46.09375 -3.546875 C 46.425781 -3.179688 46.59375 -2.632812 46.59375 -1.90625 C 46.59375 -0.90625 46.289062 -0.238281 45.6875 0.09375 C 45.09375 0.425781 44.332031 0.59375 43.40625 0.59375 C 42.40625 0.59375 41.300781 0.492188 40.09375 0.296875 C 38.894531 0.0976562 37.796875 0 36.796875 0 C 35.734375 0 34.800781 0.046875 34 0.140625 C 33.195312 0.242188 32.363281 0.363281 31.5 0.5 C 30.4375 0.632812 29.488281 0.5 28.65625 0.09375 C 27.820312 -0.300781 27.335938 -1.03125 27.203125 -2.09375 C 27.128906 -3.164062 26.957031 -3.882812 26.6875 -4.25 C 26.425781 -4.613281 26.097656 -4.796875 25.703125 -4.796875 C 24.960938 -4.796875 24.007812 -4.34375 22.84375 -3.4375 C 21.675781 -2.539062 20.273438 -1.644531 18.640625 -0.75 C 17.015625 0.144531 15.132812 0.59375 13 0.59375 Z M 17.5 -14.703125 C 17.5 -12.765625 17.984375 -11.378906 18.953125 -10.546875 C 19.921875 -9.710938 21.070312 -9.296875 22.40625 -9.296875 C 24.070312 -9.296875 25.335938 -10.007812 26.203125 -11.4375 C 27.066406 -12.875 27.5 -14.5625 27.5 -16.5 L 27.5 -21.296875 C 27.5 -23.097656 26.664062 -23.566406 25 -22.703125 C 23.9375 -22.171875 22.820312 -21.585938 21.65625 -20.953125 C 20.488281 -20.316406 19.503906 -19.53125 18.703125 -18.59375 C 17.898438 -17.664062 17.5 -16.367188 17.5 -14.703125 Z M 17.5 -14.703125 "/></g></g></g><g fill="#ffffff" fill-opacity="1"><g transform="translate(490.947265, 113.449457)"><g><path d="M 12.40625 0 C 11.40625 0 10.21875 0.0976562 8.84375 0.296875 C 7.476562 0.492188 6.195312 0.59375 5 0.59375 C 3.863281 0.59375 2.910156 0.425781 2.140625 0.09375 C 1.378906 -0.238281 1 -0.90625 1 -1.90625 C 1 -2.632812 1.164062 -3.179688 1.5 -3.546875 C 1.832031 -3.910156 2.234375 -4.375 2.703125 -4.9375 C 3.171875 -5.507812 3.570312 -6.394531 3.90625 -7.59375 C 4.238281 -8.800781 4.40625 -10.570312 4.40625 -12.90625 C 4.40625 -15.164062 4.40625 -17.796875 4.40625 -20.796875 C 4.40625 -23.796875 4.421875 -26.78125 4.453125 -29.75 C 4.484375 -32.71875 4.5 -35.285156 4.5 -37.453125 C 4.5 -39.617188 4.5 -41 4.5 -41.59375 C 4.5 -43.394531 4.210938 -44.613281 3.640625 -45.25 C 3.078125 -45.882812 2.507812 -46.398438 1.9375 -46.796875 C 1.375 -47.203125 1.09375 -47.90625 1.09375 -48.90625 C 1.09375 -49.90625 1.425781 -50.585938 2.09375 -50.953125 C 2.757812 -51.316406 3.707031 -51.628906 4.9375 -51.890625 C 6.175781 -52.160156 7.664062 -52.597656 9.40625 -53.203125 C 11.53125 -54.003906 12.992188 -54.71875 13.796875 -55.34375 C 14.597656 -55.976562 15.195312 -56.492188 15.59375 -56.890625 C 16 -57.296875 16.632812 -57.5 17.5 -57.5 C 18.695312 -57.5 19.492188 -56.960938 19.890625 -55.890625 C 20.296875 -54.828125 20.5 -53.5625 20.5 -52.09375 L 20.5 -35.09375 C 20.5 -34.03125 20.582031 -33.515625 20.75 -33.546875 C 20.914062 -33.578125 21.25 -33.941406 21.75 -34.640625 C 22.25 -35.347656 22.914062 -36.164062 23.75 -37.09375 C 24.582031 -38.03125 25.664062 -38.847656 27 -39.546875 C 28.332031 -40.242188 29.96875 -40.59375 31.90625 -40.59375 C 35.300781 -40.59375 38.128906 -39.59375 40.390625 -37.59375 C 42.660156 -35.59375 44.363281 -33.039062 45.5 -29.9375 C 46.632812 -26.84375 47.179688 -23.53125 47.140625 -20 C 47.109375 -16.46875 46.492188 -13.148438 45.296875 -10.046875 C 44.097656 -6.953125 42.265625 -4.40625 39.796875 -2.40625 C 37.328125 -0.40625 34.257812 0.59375 30.59375 0.59375 C 27.664062 0.59375 25.414062 0.5625 23.84375 0.5 C 22.28125 0.4375 21.03125 0.367188 20.09375 0.296875 C 19.164062 0.234375 18.148438 0.164062 17.046875 0.09375 C 15.953125 0.03125 14.40625 0 12.40625 0 Z M 25.40625 -29.296875 C 23.53125 -29.296875 22.160156 -28.160156 21.296875 -25.890625 C 20.429688 -23.628906 20 -21 20 -18 C 20 -15 20.445312 -12.429688 21.34375 -10.296875 C 22.25 -8.160156 23.601562 -7.09375 25.40625 -7.09375 C 27.195312 -7.09375 28.539062 -8.175781 29.4375 -10.34375 C 30.34375 -12.507812 30.796875 -15.09375 30.796875 -18.09375 C 30.796875 -21.09375 30.34375 -23.707031 29.4375 -25.9375 C 28.539062 -28.175781 27.195312 -29.296875 25.40625 -29.296875 Z M 25.40625 -29.296875 "/></g></g></g><g fill="#fabec0" fill-opacity="1"><g transform="translate(226.255539, 114.608078)"><g><path d="M 2 -19.90625 C 2 -26.101562 3.960938 -31.097656 7.890625 -34.890625 C 11.828125 -38.691406 17.332031 -40.59375 24.40625 -40.59375 C 30.53125 -40.59375 35.175781 -39.226562 38.34375 -36.5 C 41.507812 -33.769531 43.09375 -30.335938 43.09375 -26.203125 C 43.09375 -23.929688 42.289062 -21.894531 40.6875 -20.09375 C 39.09375 -18.300781 36.894531 -17.40625 34.09375 -17.40625 C 31.832031 -17.40625 29.96875 -18.1875 28.5 -19.75 C 27.03125 -21.3125 26.296875 -23.03125 26.296875 -24.90625 C 26.296875 -27.101562 26.445312 -28.984375 26.75 -30.546875 C 27.050781 -32.117188 27.164062 -33.335938 27.09375 -34.203125 C 27.03125 -35.066406 26.46875 -35.5 25.40625 -35.5 C 23.738281 -35.5 22.320312 -34.113281 21.15625 -31.34375 C 19.988281 -28.582031 19.4375 -24.832031 19.5 -20.09375 C 19.5625 -15.632812 20.34375 -12.050781 21.84375 -9.34375 C 23.34375 -6.644531 25.5625 -5.332031 28.5 -5.40625 C 30.5 -5.40625 32 -5.835938 33 -6.703125 C 34 -7.566406 34.78125 -8.566406 35.34375 -9.703125 C 35.914062 -10.835938 36.5 -11.835938 37.09375 -12.703125 C 37.695312 -13.566406 38.632812 -14 39.90625 -14 C 41.03125 -14 41.875 -13.648438 42.4375 -12.953125 C 43.007812 -12.253906 43.296875 -11.46875 43.296875 -10.59375 C 43.296875 -8.332031 42.410156 -6.367188 40.640625 -4.703125 C 38.878906 -3.035156 36.53125 -1.734375 33.59375 -0.796875 C 30.664062 0.128906 27.5 0.59375 24.09375 0.59375 C 20.5625 0.59375 17.09375 -0.0859375 13.6875 -1.453125 C 10.289062 -2.816406 7.492188 -5.015625 5.296875 -8.046875 C 3.097656 -11.078125 2 -15.03125 2 -19.90625 Z M 2 -19.90625 "/></g></g></g><g fill="#fabec0" fill-opacity="1"><g transform="translate(267.453804, 114.608078)"><g><path d="M 1 -32 C 1 -33 1.332031 -33.679688 2 -34.046875 C 2.664062 -34.410156 3.613281 -34.726562 4.84375 -35 C 6.082031 -35.269531 7.566406 -35.703125 9.296875 -36.296875 C 11.429688 -37.097656 12.898438 -37.816406 13.703125 -38.453125 C 14.503906 -39.085938 15.101562 -39.601562 15.5 -40 C 15.894531 -40.394531 16.53125 -40.59375 17.40625 -40.59375 C 18.601562 -40.59375 19.398438 -40.0625 19.796875 -39 C 20.203125 -37.9375 20.40625 -36.671875 20.40625 -35.203125 C 20.46875 -33.128906 20.515625 -31.441406 20.546875 -30.140625 C 20.578125 -28.847656 20.59375 -27.164062 20.59375 -25.09375 L 20.59375 -20.203125 C 20.59375 -16.003906 20.957031 -13.15625 21.6875 -11.65625 C 22.425781 -10.15625 23.5625 -9.40625 25.09375 -9.40625 C 26.632812 -9.40625 27.738281 -10.15625 28.40625 -11.65625 C 29.070312 -13.15625 29.40625 -16.035156 29.40625 -20.296875 L 29.40625 -25.09375 C 29.40625 -26.757812 29.117188 -27.925781 28.546875 -28.59375 C 27.984375 -29.257812 27.414062 -29.789062 26.84375 -30.1875 C 26.28125 -30.59375 26 -31.195312 26 -32 C 26 -33 26.332031 -33.679688 27 -34.046875 C 27.664062 -34.410156 28.613281 -34.726562 29.84375 -35 C 31.082031 -35.269531 32.566406 -35.703125 34.296875 -36.296875 C 36.429688 -37.097656 37.898438 -37.816406 38.703125 -38.453125 C 39.503906 -39.085938 40.101562 -39.601562 40.5 -40 C 40.894531 -40.394531 41.53125 -40.59375 42.40625 -40.59375 C 43.601562 -40.59375 44.398438 -40.0625 44.796875 -39 C 45.203125 -37.9375 45.40625 -36.671875 45.40625 -35.203125 L 45.5 -27.09375 C 45.5 -24.09375 45.515625 -21.691406 45.546875 -19.890625 C 45.578125 -18.097656 45.59375 -16.664062 45.59375 -15.59375 C 45.59375 -14.53125 45.59375 -13.597656 45.59375 -12.796875 C 45.59375 -10.460938 45.757812 -8.695312 46.09375 -7.5 C 46.425781 -6.300781 46.828125 -5.414062 47.296875 -4.84375 C 47.765625 -4.28125 48.164062 -3.816406 48.5 -3.453125 C 48.832031 -3.085938 49 -2.535156 49 -1.796875 C 49 -0.796875 48.710938 -0.128906 48.140625 0.203125 C 47.578125 0.535156 46.832031 0.703125 45.90625 0.703125 C 44.96875 0.703125 43.878906 0.597656 42.640625 0.390625 C 41.410156 0.191406 40.226562 0.09375 39.09375 0.09375 C 38.03125 0.09375 37.113281 0.144531 36.34375 0.25 C 35.582031 0.351562 34.769531 0.46875 33.90625 0.59375 C 32.632812 0.726562 31.597656 0.5 30.796875 -0.09375 C 29.992188 -0.695312 29.53125 -1.566406 29.40625 -2.703125 C 29.132812 -4.703125 28.832031 -5.703125 28.5 -5.703125 C 28.164062 -5.703125 27.332031 -5 26 -3.59375 C 24.9375 -2.46875 23.382812 -1.488281 21.34375 -0.65625 C 19.3125 0.175781 17.394531 0.59375 15.59375 0.59375 C 12.53125 0.59375 10.179688 -0.0703125 8.546875 -1.40625 C 6.910156 -2.738281 5.8125 -4.40625 5.25 -6.40625 C 4.6875 -8.40625 4.40625 -10.4375 4.40625 -12.5 L 4.40625 -24.703125 C 4.40625 -26.503906 4.117188 -27.753906 3.546875 -28.453125 C 2.984375 -29.148438 2.414062 -29.695312 1.84375 -30.09375 C 1.28125 -30.5 1 -31.132812 1 -32 Z M 1 -32 "/></g></g></g><g fill="#fabec0" fill-opacity="1"><g transform="translate(314.549379, 116.868048)"><g><path d="M 11.5 0.484375 C 9.050781 0.484375 7.328125 -0.800781 6.328125 -3.375 C 5.328125 -5.957031 4.828125 -10.082031 4.828125 -15.75 C 4.828125 -24.125 6.019531 -32.082031 8.40625 -39.625 C 8.988281 -41.488281 9.9375 -42.851562 11.25 -43.71875 C 12.570312 -44.59375 14.425781 -45.03125 16.8125 -45.03125 C 18.101562 -45.03125 19.003906 -44.867188 19.515625 -44.546875 C 20.035156 -44.222656 20.296875 -43.613281 20.296875 -42.71875 C 20.296875 -41.6875 19.8125 -39.363281 18.84375 -35.75 C 18.195312 -33.175781 17.679688 -30.921875 17.296875 -28.984375 C 16.910156 -27.054688 16.585938 -24.675781 16.328125 -21.84375 C 18.453125 -27.382812 20.835938 -31.894531 23.484375 -35.375 C 26.128906 -38.851562 28.722656 -41.332031 31.265625 -42.8125 C 33.804688 -44.289062 36.140625 -45.03125 38.265625 -45.03125 C 42.453125 -45.03125 44.546875 -42.9375 44.546875 -38.75 C 44.546875 -37.914062 44.257812 -35.890625 43.6875 -32.671875 C 43.164062 -30.085938 42.90625 -28.472656 42.90625 -27.828125 C 42.90625 -25.578125 43.710938 -24.453125 45.328125 -24.453125 C 47.128906 -24.453125 49.445312 -25.867188 52.28125 -28.703125 C 53.113281 -29.535156 53.984375 -29.953125 54.890625 -29.953125 C 55.722656 -29.953125 56.378906 -29.582031 56.859375 -28.84375 C 57.347656 -28.101562 57.59375 -27.125 57.59375 -25.90625 C 57.59375 -23.519531 56.953125 -21.648438 55.671875 -20.296875 C 53.859375 -18.421875 51.742188 -16.820312 49.328125 -15.5 C 46.921875 -14.1875 44.363281 -13.53125 41.65625 -13.53125 C 38.238281 -13.53125 35.644531 -14.398438 33.875 -16.140625 C 32.101562 -17.878906 31.21875 -20.226562 31.21875 -23.1875 C 31.21875 -24.15625 31.3125 -25.125 31.5 -26.09375 C 31.632812 -27.382812 31.703125 -28.253906 31.703125 -28.703125 C 31.703125 -29.734375 31.347656 -30.25 30.640625 -30.25 C 29.671875 -30.25 28.394531 -29.171875 26.8125 -27.015625 C 25.238281 -24.859375 23.675781 -22.003906 22.125 -18.453125 C 20.582031 -14.910156 19.328125 -11.175781 18.359375 -7.25 C 17.648438 -4.21875 16.828125 -2.171875 15.890625 -1.109375 C 14.960938 -0.046875 13.5 0.484375 11.5 0.484375 Z M 11.5 0.484375 "/></g></g></g><g fill="#fabec0" fill-opacity="1"><g transform="translate(359.294032, 116.868048)"><g><path d="M 41.265625 -21.546875 C 42.097656 -21.546875 42.753906 -21.160156 43.234375 -20.390625 C 43.722656 -19.617188 43.96875 -18.554688 43.96875 -17.203125 C 43.96875 -14.628906 43.359375 -12.628906 42.140625 -11.203125 C 39.367188 -7.796875 36.351562 -4.992188 33.09375 -2.796875 C 29.84375 -0.609375 26.15625 0.484375 22.03125 0.484375 C 16.363281 0.484375 12.160156 -2.09375 9.421875 -7.25 C 6.679688 -12.40625 5.3125 -19.070312 5.3125 -27.25 C 5.3125 -35.113281 6.328125 -44.066406 8.359375 -54.109375 C 10.390625 -64.160156 13.382812 -72.796875 17.34375 -80.015625 C 21.3125 -87.234375 26.03125 -90.84375 31.5 -90.84375 C 34.59375 -90.84375 37.023438 -89.40625 38.796875 -86.53125 C 40.566406 -83.664062 41.453125 -79.5625 41.453125 -74.21875 C 41.453125 -66.550781 39.328125 -57.660156 35.078125 -47.546875 C 30.828125 -37.429688 25.0625 -27.410156 17.78125 -17.484375 C 18.226562 -14.847656 18.96875 -12.960938 20 -11.828125 C 21.03125 -10.703125 22.382812 -10.140625 24.0625 -10.140625 C 26.707031 -10.140625 29.023438 -10.894531 31.015625 -12.40625 C 33.015625 -13.925781 35.5625 -16.523438 38.65625 -20.203125 C 39.425781 -21.097656 40.296875 -21.546875 41.265625 -21.546875 Z M 29.375 -81.28125 C 27.894531 -81.28125 26.21875 -78.601562 24.34375 -73.25 C 22.476562 -67.90625 20.835938 -61.269531 19.421875 -53.34375 C 18.003906 -45.414062 17.234375 -37.8125 17.109375 -30.53125 C 21.679688 -38.070312 25.316406 -45.628906 28.015625 -53.203125 C 30.722656 -60.773438 32.078125 -67.6875 32.078125 -73.9375 C 32.078125 -78.832031 31.175781 -81.28125 29.375 -81.28125 Z M 29.375 -81.28125 "/></g></g></g><path fill="#ffffff" d="M 37.589844 113.550781 L 52.195312 113.550781 C 52.328125 113.550781 52.457031 113.527344 52.582031 113.476562 C 52.707031 113.425781 52.8125 113.351562 52.910156 113.257812 C 53.003906 113.164062 53.074219 113.054688 53.125 112.929688 C 53.179688 112.808594 53.203125 112.679688 53.203125 112.546875 C 53.203125 112.410156 53.179688 112.28125 53.125 112.160156 C 53.074219 112.035156 53.003906 111.925781 52.910156 111.832031 C 52.8125 111.738281 52.707031 111.664062 52.582031 111.613281 C 52.457031 111.5625 52.328125 111.539062 52.195312 111.539062 L 37.589844 111.539062 C 37.414062 111.539062 37.242188 111.515625 37.070312 111.46875 C 36.898438 111.421875 36.738281 111.355469 36.585938 111.265625 C 36.433594 111.179688 36.292969 111.070312 36.167969 110.945312 C 36.042969 110.820312 35.9375 110.683594 35.847656 110.527344 C 35.761719 110.375 35.695312 110.214844 35.648438 110.042969 C 35.601562 109.871094 35.582031 109.699219 35.582031 109.523438 C 35.582031 109.347656 35.601562 109.171875 35.648438 109 C 35.695312 108.832031 35.761719 108.667969 35.851562 108.515625 L 44.09375 95.132812 C 50.097656 97.398438 53.3125 94.660156 56.167969 92.234375 C 58.738281 90.046875 60.96875 88.152344 65.140625 89.105469 L 76.585938 108.496094 C 76.773438 108.804688 76.867188 109.140625 76.871094 109.503906 C 76.875 109.867188 76.785156 110.203125 76.605469 110.519531 C 76.429688 110.832031 76.183594 111.082031 75.871094 111.261719 C 75.558594 111.445312 75.222656 111.539062 74.859375 111.539062 L 59.988281 111.539062 C 59.855469 111.539062 59.726562 111.5625 59.601562 111.613281 C 59.480469 111.664062 59.371094 111.738281 59.277344 111.832031 C 59.183594 111.925781 59.109375 112.035156 59.058594 112.160156 C 59.007812 112.28125 58.980469 112.410156 58.980469 112.546875 C 58.980469 112.679688 59.007812 112.808594 59.058594 112.929688 C 59.109375 113.054688 59.183594 113.164062 59.277344 113.257812 C 59.371094 113.351562 59.480469 113.425781 59.601562 113.476562 C 59.726562 113.527344 59.855469 113.550781 59.988281 113.550781 L 74.859375 113.550781 C 75.582031 113.550781 76.257812 113.371094 76.882812 113.007812 C 77.507812 112.644531 78 112.148438 78.359375 111.519531 C 78.714844 110.890625 78.894531 110.214844 78.886719 109.492188 C 78.882812 108.765625 78.695312 108.09375 78.324219 107.472656 L 66.660156 87.703125 C 66.519531 87.46875 66.316406 87.3125 66.050781 87.242188 C 60.601562 85.804688 57.550781 88.402344 54.859375 90.6875 C 51.964844 93.15625 49.460938 95.28125 44.085938 92.941406 C 43.855469 92.84375 43.621094 92.832031 43.382812 92.90625 C 43.144531 92.980469 42.960938 93.125 42.828125 93.339844 L 34.121094 107.476562 C 33.753906 108.097656 33.570312 108.769531 33.5625 109.492188 C 33.558594 110.21875 33.734375 110.890625 34.09375 111.519531 C 34.453125 112.148438 34.941406 112.644531 35.570312 113.007812 C 36.195312 113.371094 36.867188 113.550781 37.589844 113.550781 Z M 37.589844 113.550781 " fill-opacity="1" fill-rule="nonzero"/><g clip-path="url(#9eb479d937)"><path fill="#ffffff" d="M 30.636719 113.503906 C 32.082031 116.039062 34.648438 117.582031 37.347656 117.582031 C 37.429688 117.582031 37.511719 117.582031 37.589844 117.582031 L 74.824219 117.582031 C 77.648438 117.671875 80.324219 116.117188 81.816406 113.503906 C 83.304688 110.886719 83.292969 107.78125 81.785156 105.410156 L 64.28125 77.007812 L 64.28125 66.210938 L 65.792969 66.210938 C 66.089844 66.210938 66.386719 66.183594 66.679688 66.125 C 66.96875 66.066406 67.253906 65.980469 67.527344 65.867188 C 67.804688 65.753906 68.066406 65.613281 68.3125 65.449219 C 68.558594 65.28125 68.789062 65.09375 69 64.882812 C 69.210938 64.675781 69.398438 64.445312 69.5625 64.199219 C 69.726562 63.949219 69.867188 63.6875 69.980469 63.414062 C 70.09375 63.140625 70.179688 62.855469 70.238281 62.5625 C 70.296875 62.273438 70.328125 61.976562 70.328125 61.679688 C 70.328125 61.382812 70.296875 61.085938 70.238281 60.796875 C 70.179688 60.503906 70.09375 60.21875 69.980469 59.945312 C 69.867188 59.671875 69.726562 59.410156 69.5625 59.160156 C 69.398438 58.914062 69.210938 58.683594 69 58.476562 C 68.789062 58.265625 68.558594 58.078125 68.3125 57.910156 C 68.066406 57.746094 67.804688 57.605469 67.527344 57.492188 C 67.253906 57.378906 66.96875 57.292969 66.679688 57.234375 C 66.386719 57.175781 66.089844 57.148438 65.792969 57.148438 L 46.65625 57.148438 C 46.359375 57.148438 46.0625 57.175781 45.773438 57.234375 C 45.480469 57.292969 45.195312 57.378906 44.921875 57.492188 C 44.648438 57.605469 44.386719 57.746094 44.136719 57.910156 C 43.890625 58.078125 43.660156 58.265625 43.453125 58.476562 C 43.242188 58.683594 43.054688 58.914062 42.886719 59.160156 C 42.722656 59.410156 42.582031 59.671875 42.46875 59.945312 C 42.355469 60.21875 42.269531 60.503906 42.210938 60.796875 C 42.152344 61.085938 42.125 61.382812 42.125 61.679688 C 42.125 61.976562 42.152344 62.273438 42.210938 62.5625 C 42.269531 62.855469 42.355469 63.140625 42.46875 63.414062 C 42.582031 63.6875 42.722656 63.949219 42.886719 64.199219 C 43.054688 64.445312 43.242188 64.675781 43.453125 64.882812 C 43.660156 65.09375 43.890625 65.28125 44.136719 65.449219 C 44.386719 65.613281 44.648438 65.753906 44.921875 65.867188 C 45.195312 65.980469 45.480469 66.066406 45.773438 66.125 C 46.0625 66.183594 46.359375 66.210938 46.65625 66.210938 L 48.167969 66.210938 L 48.167969 77.007812 L 30.675781 105.398438 C 29.15625 107.78125 29.140625 110.886719 30.636719 113.503906 Z M 44.136719 61.679688 C 44.136719 61.347656 44.203125 61.023438 44.332031 60.714844 C 44.457031 60.40625 44.640625 60.136719 44.875 59.898438 C 45.113281 59.664062 45.382812 59.480469 45.691406 59.351562 C 46 59.226562 46.324219 59.160156 46.65625 59.160156 L 65.792969 59.160156 C 66.128906 59.160156 66.449219 59.226562 66.757812 59.351562 C 67.066406 59.480469 67.339844 59.664062 67.574219 59.898438 C 67.8125 60.136719 67.992188 60.40625 68.121094 60.714844 C 68.25 61.023438 68.3125 61.347656 68.3125 61.679688 C 68.3125 62.011719 68.25 62.335938 68.121094 62.644531 C 67.992188 62.953125 67.8125 63.222656 67.574219 63.460938 C 67.339844 63.695312 67.066406 63.878906 66.757812 64.007812 C 66.449219 64.132812 66.128906 64.199219 65.792969 64.199219 L 46.65625 64.199219 C 46.324219 64.199219 46 64.132812 45.691406 64.007812 C 45.382812 63.878906 45.113281 63.695312 44.875 63.460938 C 44.640625 63.222656 44.457031 62.953125 44.332031 62.644531 C 44.203125 62.335938 44.136719 62.011719 44.136719 61.679688 Z M 32.382812 106.46875 L 49.738281 78.300781 L 54.210938 78.300781 C 54.34375 78.300781 54.472656 78.273438 54.597656 78.222656 C 54.71875 78.171875 54.828125 78.097656 54.921875 78.003906 C 55.015625 77.910156 55.089844 77.800781 55.140625 77.675781 C 55.191406 77.554688 55.21875 77.425781 55.21875 77.292969 C 55.21875 77.160156 55.191406 77.03125 55.140625 76.90625 C 55.089844 76.78125 55.015625 76.675781 54.921875 76.578125 C 54.828125 76.484375 54.71875 76.414062 54.597656 76.359375 C 54.472656 76.308594 54.34375 76.285156 54.210938 76.285156 L 50.183594 76.285156 L 50.183594 74.269531 L 52.195312 74.269531 C 52.328125 74.269531 52.457031 74.246094 52.582031 74.195312 C 52.707031 74.140625 52.8125 74.070312 52.910156 73.976562 C 53.003906 73.878906 53.074219 73.773438 53.125 73.648438 C 53.179688 73.523438 53.203125 73.398438 53.203125 73.261719 C 53.203125 73.128906 53.179688 73 53.125 72.878906 C 53.074219 72.753906 53.003906 72.644531 52.910156 72.550781 C 52.8125 72.457031 52.707031 72.382812 52.582031 72.332031 C 52.457031 72.28125 52.328125 72.253906 52.195312 72.253906 L 50.183594 72.253906 L 50.183594 70.242188 L 54.210938 70.242188 C 54.34375 70.242188 54.472656 70.214844 54.597656 70.164062 C 54.71875 70.113281 54.828125 70.039062 54.921875 69.945312 C 55.015625 69.851562 55.089844 69.742188 55.140625 69.621094 C 55.191406 69.496094 55.21875 69.367188 55.21875 69.234375 C 55.21875 69.101562 55.191406 68.972656 55.140625 68.847656 C 55.089844 68.726562 55.015625 68.617188 54.921875 68.523438 C 54.828125 68.425781 54.71875 68.355469 54.597656 68.304688 C 54.472656 68.253906 54.34375 68.226562 54.210938 68.226562 L 50.183594 68.226562 L 50.183594 66.210938 L 62.269531 66.210938 L 62.269531 77.292969 C 62.269531 77.480469 62.320312 77.660156 62.417969 77.820312 L 80.074219 106.480469 C 81.191406 108.230469 81.1875 110.539062 80.066406 112.503906 C 78.945312 114.464844 76.976562 115.640625 74.859375 115.566406 L 37.558594 115.566406 C 35.46875 115.636719 33.503906 114.460938 32.386719 112.5 C 31.265625 110.539062 31.257812 108.230469 32.382812 106.46875 Z M 32.382812 106.46875 " fill-opacity="1" fill-rule="nonzero"/></g><path fill="#ffffff" d="M 57.234375 112.546875 C 57.234375 112.679688 57.207031 112.808594 57.15625 112.929688 C 57.105469 113.054688 57.03125 113.164062 56.9375 113.257812 C 56.84375 113.351562 56.734375 113.425781 56.609375 113.476562 C 56.488281 113.527344 56.359375 113.550781 56.226562 113.550781 C 56.089844 113.550781 55.964844 113.527344 55.839844 113.476562 C 55.714844 113.425781 55.609375 113.351562 55.511719 113.257812 C 55.417969 113.164062 55.347656 113.054688 55.292969 112.929688 C 55.242188 112.808594 55.21875 112.679688 55.21875 112.546875 C 55.21875 112.410156 55.242188 112.28125 55.292969 112.160156 C 55.347656 112.035156 55.417969 111.925781 55.511719 111.832031 C 55.609375 111.738281 55.714844 111.664062 55.839844 111.613281 C 55.964844 111.5625 56.089844 111.539062 56.226562 111.539062 C 56.359375 111.539062 56.488281 111.5625 56.609375 111.613281 C 56.734375 111.664062 56.84375 111.738281 56.9375 111.832031 C 57.03125 111.925781 57.105469 112.035156 57.15625 112.160156 C 57.207031 112.28125 57.234375 112.410156 57.234375 112.546875 Z M 57.234375 112.546875 " fill-opacity="1" fill-rule="nonzero"/><g clip-path="url(#4ee9e58fb9)"><g clip-path="url(#f8845e8f0d)"><path fill="#fabec0" d="M 44.777344 100.425781 L 49.835938 100.425781 L 49.835938 105.480469 L 44.777344 105.480469 Z M 44.777344 100.425781 " fill-opacity="1" fill-rule="nonzero"/></g></g><g fill="#ffffff" fill-opacity="1"><g transform="translate(91.94195, 114.148894)"><g><path d="M 1 -37.59375 C 1 -38.59375 1.332031 -39.257812 2 -39.59375 C 2.664062 -39.925781 3.597656 -40.257812 4.796875 -40.59375 C 5.992188 -40.925781 7.394531 -41.59375 9 -42.59375 C 11.132812 -43.925781 12.664062 -45.207031 13.59375 -46.4375 C 14.53125 -47.675781 15.265625 -48.675781 15.796875 -49.4375 C 16.328125 -50.207031 17.03125 -50.59375 17.90625 -50.59375 C 19.101562 -50.59375 19.816406 -49.992188 20.046875 -48.796875 C 20.285156 -47.597656 20.40625 -46.265625 20.40625 -44.796875 L 20.40625 -41.09375 C 20.40625 -40.363281 20.769531 -40 21.5 -40 L 23.09375 -40 C 24.757812 -40 25.59375 -39.164062 25.59375 -37.5 C 25.59375 -35.769531 24.757812 -34.90625 23.09375 -34.90625 L 21.5 -34.90625 C 20.769531 -34.90625 20.40625 -34.535156 20.40625 -33.796875 L 20.40625 -22.09375 C 20.40625 -17.832031 20.453125 -14.734375 20.546875 -12.796875 C 20.648438 -10.867188 21.164062 -9.4375 22.09375 -8.5 C 22.695312 -7.96875 23.195312 -7.632812 23.59375 -7.5 C 24 -7.363281 24.300781 -7.195312 24.5 -7 C 24.695312 -6.800781 24.796875 -6.332031 24.796875 -5.59375 C 24.796875 -4.332031 24.078125 -2.984375 22.640625 -1.546875 C 21.210938 -0.117188 18.695312 0.59375 15.09375 0.59375 C 10.894531 0.59375 8.046875 -0.921875 6.546875 -3.953125 C 5.046875 -6.984375 4.296875 -10.929688 4.296875 -15.796875 L 4.40625 -30.296875 C 4.40625 -32.097656 4.117188 -33.347656 3.546875 -34.046875 C 2.984375 -34.742188 2.414062 -35.289062 1.84375 -35.6875 C 1.28125 -36.09375 1 -36.726562 1 -37.59375 Z M 1 -37.59375 "/></g></g></g><g fill="#ffffff" fill-opacity="1"><g transform="translate(117.640944, 114.148894)"><g><path d="M 12.40625 0 C 11.40625 0 10.21875 0.0976562 8.84375 0.296875 C 7.476562 0.492188 6.195312 0.59375 5 0.59375 C 3.863281 0.59375 2.910156 0.425781 2.140625 0.09375 C 1.378906 -0.238281 1 -0.90625 1 -1.90625 C 1 -2.632812 1.164062 -3.179688 1.5 -3.546875 C 1.832031 -3.910156 2.234375 -4.375 2.703125 -4.9375 C 3.171875 -5.507812 3.570312 -6.394531 3.90625 -7.59375 C 4.238281 -8.800781 4.40625 -10.570312 4.40625 -12.90625 C 4.40625 -14.769531 4.40625 -16.953125 4.40625 -19.453125 C 4.40625 -21.953125 4.421875 -24.5 4.453125 -27.09375 C 4.484375 -29.695312 4.5 -32.097656 4.5 -34.296875 C 4.5 -36.492188 4.5 -38.273438 4.5 -39.640625 C 4.5 -41.015625 4.5 -41.703125 4.5 -41.703125 C 4.5 -43.503906 4.234375 -44.738281 3.703125 -45.40625 C 3.171875 -46.070312 2.632812 -46.601562 2.09375 -47 C 1.5625 -47.394531 1.296875 -48.03125 1.296875 -48.90625 C 1.296875 -49.90625 1.628906 -50.585938 2.296875 -50.953125 C 2.960938 -51.316406 3.910156 -51.628906 5.140625 -51.890625 C 6.378906 -52.160156 7.863281 -52.597656 9.59375 -53.203125 C 11.726562 -54.003906 13.195312 -54.71875 14 -55.34375 C 14.800781 -55.976562 15.398438 -56.492188 15.796875 -56.890625 C 16.203125 -57.296875 16.835938 -57.5 17.703125 -57.5 C 18.835938 -57.5 19.617188 -56.960938 20.046875 -55.890625 C 20.484375 -54.828125 20.703125 -53.5625 20.703125 -52.09375 L 20.703125 -33.203125 C 20.898438 -32.734375 21.332031 -32.847656 22 -33.546875 C 22.664062 -34.242188 23.597656 -35.144531 24.796875 -36.25 C 25.992188 -37.351562 27.457031 -38.351562 29.1875 -39.25 C 30.925781 -40.144531 32.929688 -40.59375 35.203125 -40.59375 C 38.335938 -40.59375 40.703125 -39.925781 42.296875 -38.59375 C 43.898438 -37.257812 44.984375 -35.59375 45.546875 -33.59375 C 46.117188 -31.59375 46.40625 -29.5625 46.40625 -27.5 L 46.40625 -12.90625 C 46.40625 -10.570312 46.570312 -8.800781 46.90625 -7.59375 C 47.238281 -6.394531 47.632812 -5.507812 48.09375 -4.9375 C 48.5625 -4.375 48.960938 -3.910156 49.296875 -3.546875 C 49.628906 -3.179688 49.796875 -2.632812 49.796875 -1.90625 C 49.796875 -0.90625 49.507812 -0.238281 48.9375 0.09375 C 48.375 0.425781 47.628906 0.59375 46.703125 0.59375 C 45.765625 0.59375 44.675781 0.492188 43.4375 0.296875 C 42.207031 0.0976562 41.03125 0 39.90625 0 C 38.832031 0 37.910156 0.046875 37.140625 0.140625 C 36.378906 0.242188 35.566406 0.363281 34.703125 0.5 C 33.367188 0.632812 32.285156 0.335938 31.453125 -0.390625 C 30.617188 -1.128906 30.203125 -2.164062 30.203125 -3.5 L 30.203125 -19.90625 C 30.203125 -23.101562 29.867188 -25.535156 29.203125 -27.203125 C 28.535156 -28.867188 27.332031 -29.703125 25.59375 -29.703125 C 24.332031 -29.703125 23.21875 -29.179688 22.25 -28.140625 C 21.28125 -27.109375 20.765625 -25.03125 20.703125 -21.90625 L 20.5 -12.90625 C 20.4375 -10.5 20.570312 -8.675781 20.90625 -7.4375 C 21.238281 -6.207031 21.632812 -5.34375 22.09375 -4.84375 C 22.5625 -4.34375 22.976562 -3.910156 23.34375 -3.546875 C 23.71875 -3.179688 23.90625 -2.632812 23.90625 -1.90625 C 23.90625 -0.90625 23.519531 -0.238281 22.75 0.09375 C 21.976562 0.425781 21.03125 0.59375 19.90625 0.59375 C 18.632812 0.59375 17.316406 0.492188 15.953125 0.296875 C 14.585938 0.0976562 13.40625 0 12.40625 0 Z M 12.40625 0 "/></g></g></g><g fill="#ffffff" fill-opacity="1"><g transform="translate(168.038987, 114.148894)"><g><path d="M 24.09375 0.59375 C 20.5625 0.59375 17.09375 -0.101562 13.6875 -1.5 C 10.289062 -2.894531 7.492188 -5.09375 5.296875 -8.09375 C 3.097656 -11.09375 2 -15.03125 2 -19.90625 C 2 -24.03125 2.898438 -27.644531 4.703125 -30.75 C 6.503906 -33.851562 9.003906 -36.269531 12.203125 -38 C 15.398438 -39.726562 19.097656 -40.59375 23.296875 -40.59375 C 27.429688 -40.59375 30.796875 -40.09375 33.390625 -39.09375 C 35.992188 -38.09375 38.007812 -36.8125 39.4375 -35.25 C 40.875 -33.6875 41.859375 -32.085938 42.390625 -30.453125 C 42.929688 -28.816406 43.203125 -27.398438 43.203125 -26.203125 C 43.203125 -22.867188 42.164062 -20.148438 40.09375 -18.046875 C 38.03125 -15.953125 35.398438 -14.421875 32.203125 -13.453125 C 29.003906 -12.484375 25.738281 -12 22.40625 -12 C 21.46875 -12 20.78125 -11.664062 20.34375 -11 C 19.914062 -10.332031 19.785156 -9.566406 19.953125 -8.703125 C 20.117188 -7.835938 20.648438 -7.070312 21.546875 -6.40625 C 22.453125 -5.738281 23.738281 -5.40625 25.40625 -5.40625 C 27.800781 -5.40625 29.695312 -5.835938 31.09375 -6.703125 C 32.5 -7.566406 33.617188 -8.566406 34.453125 -9.703125 C 35.285156 -10.835938 36.082031 -11.835938 36.84375 -12.703125 C 37.613281 -13.566406 38.632812 -14 39.90625 -14 C 41.03125 -14 41.875 -13.648438 42.4375 -12.953125 C 43.007812 -12.253906 43.296875 -11.46875 43.296875 -10.59375 C 43.296875 -8.332031 42.410156 -6.367188 40.640625 -4.703125 C 38.878906 -3.035156 36.53125 -1.734375 33.59375 -0.796875 C 30.664062 0.128906 27.5 0.59375 24.09375 0.59375 Z M 23.296875 -35.5 C 21.898438 -35.5 20.785156 -34.664062 19.953125 -33 C 19.117188 -31.332031 18.703125 -29.097656 18.703125 -26.296875 C 18.703125 -23.492188 19.117188 -21.257812 19.953125 -19.59375 C 20.785156 -17.925781 21.898438 -17.09375 23.296875 -17.09375 C 24.703125 -17.09375 25.820312 -17.925781 26.65625 -19.59375 C 27.488281 -21.257812 27.90625 -23.492188 27.90625 -26.296875 C 27.90625 -29.097656 27.488281 -31.332031 26.65625 -33 C 25.820312 -34.664062 24.703125 -35.5 23.296875 -35.5 Z M 23.296875 -35.5 "/></g></g></g><g clip-path="url(#fa726aaa22)"><g clip-path="url(#7154fa7e7b)"><path fill="#fabec0" d="M 54.890625 96.402344 L 62.9375 96.402344 L 62.9375 104.449219 L 54.890625 104.449219 Z M 54.890625 96.402344 " fill-opacity="1" fill-rule="nonzero"/></g></g><g clip-path="url(#e828ebf54d)"><g clip-path="url(#1061c375b5)"><path fill="#fabec0" d="M 64.375 102.039062 L 68.261719 102.039062 L 68.261719 105.925781 L 64.375 105.925781 Z M 64.375 102.039062 " fill-opacity="1" fill-rule="nonzero"/></g></g><g clip-path="url(#51075fbd31)"><g clip-path="url(#a5a1155b06)"><path fill="#fabec0" d="M 56.230469 37.246094 L 64.277344 37.246094 L 64.277344 45.292969 L 56.230469 45.292969 Z M 56.230469 37.246094 " fill-opacity="1" fill-rule="nonzero"/></g></g><g clip-path="url(#becafc8a3c)"><g clip-path="url(#ed7310805e)"><path fill="#fabec0" d="M 51.992188 30.5 L 54.890625 30.5 L 54.890625 33.398438 L 51.992188 33.398438 Z M 51.992188 30.5 " fill-opacity="1" fill-rule="nonzero"/></g></g><g clip-path="url(#2567453782)"><g clip-path="url(#4e65704b82)"><path fill="#fabec0" d="M 49.835938 47.605469 L 54.804688 47.605469 L 54.804688 52.574219 L 49.835938 52.574219 Z M 49.835938 47.605469 " fill-opacity="1" fill-rule="nonzero"/></g></g></svg>